<?xml version="1.0" encoding="utf-8"?>
<!-- Generator: Adobe Illustrator 21.0.2, SVG Export Plug-In . SVG Version: 6.00 Build 0)  -->
<svg version="1.0" id="Layer_1" xmlns="http://www.w3.org/2000/svg" xmlns:xlink="http://www.w3.org/1999/xlink" x="0px" y="0px"
	 viewBox="0 0 355 355" enable-background="new 0 0 355 355" xml:space="preserve">
<title>PUSH SETTINGS</title>
<desc>Created with Sketch.</desc>
<g id="v2">
	<g id="PUSH-SETTINGS">
		<path id="Rectangle-10" fill="#2288FF" d="M125.5,249.6l47.4-67.8l0,0c1.6-2.3,4.7-2.8,7-1.2c0.5,0.3,0.9,0.8,1.2,1.2l47.4,67.8
			l0,0c1.6,2.3,1,5.4-1.2,7c-0.8,0.6-1.8,0.9-2.9,0.9h-23.2l0,0c-2.8,0-5,2.2-5,5v73l0,0c0,2.8-2.2,5-5,5h-28l0,0c-2.8,0-5-2.2-5-5
			v-73h0c0-2.8-2.2-5-5-5c0,0,0,0,0,0l-23.7,0l0,0c-2.8,0-5-2.2-5-5C124.6,251.5,124.9,250.5,125.5,249.6z"/>
		<g id="Group" transform="translate(23.000000, 30.000000)">
			<path id="Rectangle" fill="#2A2A2A" d="M7,0h83c3.9,0,7,3.1,7,7v15c0,3.9-3.1,7-7,7H7c-3.9,0-7-3.1-7-7V7C0,3.1,3.1,0,7,0z"/>
			<path id="Rectangle-Copy-4" fill="#2A2A2A" d="M55.5,48h83c3.9,0,7,3.1,7,7v15c0,3.9-3.1,7-7,7h-83c-3.9,0-7-3.1-7-7V55
				C48.5,51.1,51.6,48,55.5,48z"/>
			<path id="Rectangle-Copy" fill="#2A2A2A" d="M125,0h60c3.9,0,7,3.1,7,7v15c0,3.9-3.1,7-7,7h-60c-3.9,0-7-3.1-7-7V7
				C118,3.1,121.1,0,125,0z"/>
			<path id="Rectangle-Copy-10" fill="#2A2A2A" d="M205,96h60c3.9,0,7,3.1,7,7v15c0,3.9-3.1,7-7,7h-60c-3.9,0-7-3.1-7-7v-15
				C198,99.1,201.1,96,205,96z"/>
			<path id="Rectangle-Copy-7" fill="#2A2A2A" d="M7,96h60c3.9,0,7,3.1,7,7v15c0,3.9-3.1,7-7,7H7c-3.9,0-7-3.1-7-7v-15
				C0,99.1,3.1,96,7,96z"/>
			<path id="Rectangle-Copy-6" fill="#2A2A2A" d="M172,48h60c3.9,0,7,3.1,7,7v15c0,3.9-3.1,7-7,7h-60c-3.9,0-7-3.1-7-7V55
				C165,51.1,168.1,48,172,48z"/>
			<path id="Rectangle-Copy-2" fill="#2A2A2A" d="M220,0h15c3.9,0,7,3.1,7,7v15c0,3.9-3.1,7-7,7h-15c-3.9,0-7-3.1-7-7V7
				C213,3.1,216.1,0,220,0z"/>
			<path id="Rectangle-Copy-8" fill="#2A2A2A" d="M97.3,96h15c3.9,0,7,3.1,7,7v15c0,3.9-3.1,7-7,7h-15c-3.9,0-7-3.1-7-7v-15
				C90.3,99.1,93.5,96,97.3,96z"/>
			<path id="Rectangle-Copy-5" fill="#2A2A2A" d="M7,48h15c3.9,0,7,3.1,7,7v15c0,3.9-3.1,7-7,7H7c-3.9,0-7-3.1-7-7V55
				C0,51.1,3.1,48,7,48z"/>
			<path id="Rectangle-Copy-3" fill="#2A2A2A" d="M270,0h32c3.9,0,7,3.1,7,7v15c0,3.9-3.1,7-7,7h-32c-3.9,0-7-3.1-7-7V7
				C263,3.1,266.1,0,270,0z"/>
			<path id="Rectangle-Copy-9" fill="#2A2A2A" d="M142.7,96h32c3.9,0,7,3.1,7,7v15c0,3.9-3.1,7-7,7h-32c-3.9,0-7-3.1-7-7v-15
				C135.7,99.1,138.8,96,142.7,96z"/>
		</g>
	</g>
</g>
</svg>
