<?xml version="1.0" encoding="utf-8"?>
<!-- Generator: Adobe Illustrator 21.0.2, SVG Export Plug-In . SVG Version: 6.00 Build 0)  -->
<svg version="1.0" id="Layer_1" xmlns="http://www.w3.org/2000/svg" xmlns:xlink="http://www.w3.org/1999/xlink" x="0px" y="0px"
	 viewBox="0 0 355 355" enable-background="new 0 0 355 355" xml:space="preserve">
<title>TRANSFORM</title>
<desc>Created with Sketch.</desc>
<g id="v2">
	<g id="TRANSFORM">
		
			<polygon id="Rectangle-4" fill="none" stroke="#FF6868" stroke-width="30" stroke-linecap="round" stroke-linejoin="round" points="
			235,30 332,117.6 332,297 235,197.9 		"/>
		
			<polygon id="Rectangle-4_1_" fill="none" stroke="#2A2A2A" stroke-width="30" stroke-linecap="round" stroke-linejoin="round" points="
			16,226 107.8,323 283,323 191.6,228.7 		"/>
		
			<g id="Group" transform="translate(140.012276, 137.819094) rotate(-26.000000) translate(-140.012276, -137.819094) translate(41.012276, 86.819094)">
			<path id="Oval-2" fill="none" stroke="#2288FF" stroke-width="29" stroke-linecap="round" stroke-linejoin="round" d="
				M153.1,54.6C133.7,33.5,106,20.3,75.3,20.3c-29.3,0-55.9,12-75.2,31.5"/>
			<path id="Path-8" fill="#2288FF" d="M158.6,6.1l15.2,57.2l0,0c0.7,2.7-0.9,5.4-3.5,6.1c-0.3,0.1-0.7,0.1-1,0.2l-59.1,3.2l0,0
				c-2.8,0.2-5.1-2-5.3-4.7c-0.1-1.1,0.3-2.3,0.9-3.2l43.9-60.4l0,0c1.6-2.2,4.7-2.7,7-1.1C157.6,4,158.3,5,158.6,6.1z"/>
		</g>
		<g id="Group-2" transform="translate(283.000000, 89.000000)">
			<path id="Path-21" fill="none" stroke="#FF6868" stroke-width="20" stroke-linecap="round" stroke-linejoin="round" d="M1,68.2V0
				"/>
			<path id="Path-22" fill="none" stroke="#FF6868" stroke-width="20" stroke-linecap="round" stroke-linejoin="round" d="M2.1,78.4
				L41,115.3"/>
		</g>
		
			<circle id="Oval-7" fill="#FFFFFF" stroke="#FF6868" stroke-width="15" stroke-linecap="round" stroke-linejoin="round" cx="283.5" cy="169.5" r="14.5"/>
		
			<g id="Group-3" transform="translate(185.365659, 290.372950) rotate(92.000000) translate(-185.365659, -290.372950) translate(156.365659, 242.872950)">
			<g id="Group-2-Copy" transform="translate(14.000000, 0.000000)">
				<path id="Path-21_1_" fill="none" stroke="#2A2A2A" stroke-width="20" stroke-linecap="round" stroke-linejoin="round" d="
					M1,68.2L1,0"/>
				<path id="Path-22_1_" fill="none" stroke="#2A2A2A" stroke-width="20" stroke-linecap="round" stroke-linejoin="round" d="
					M2.2,81.4l41.1-24"/>
			</g>
			
				<ellipse id="Oval-7-Copy" transform="matrix(3.489950e-02 -0.9994 0.9994 3.489950e-02 -66.457 92.1817)" fill="#FFFFFF" stroke="#2A2A2A" stroke-width="15" stroke-linecap="round" stroke-linejoin="round" cx="14.5" cy="80.5" rx="14.5" ry="14.5"/>
		</g>
	</g>
</g>
</svg>
