<?xml version="1.0" encoding="utf-8"?>
<!-- Generator: Adobe Illustrator 21.0.2, SVG Export Plug-In . SVG Version: 6.00 Build 0)  -->
<svg version="1.0" id="Layer_1" xmlns="http://www.w3.org/2000/svg" xmlns:xlink="http://www.w3.org/1999/xlink" x="0px" y="0px"
	 viewBox="0 0 355 355" enable-background="new 0 0 355 355" xml:space="preserve">
<title>ACTION MODE</title>
<desc>Created with Sketch.</desc>
<g id="v2">
	<g id="ACTION-MODE">
		
			<path id="Path-24" opacity="0.3" fill="none" stroke="#2A2A2A" stroke-width="15" stroke-linejoin="round" enable-background="new    " d="
			M0,355L355,0"/>
		<path id="_x2B_" fill="#FF6868" d="M120.5,84.6h55.8l0,0c3.9,0,7,3.1,7,7v29.6l0,0c0,3.9-3.1,7-7,7h-55.8V192l0,0c0,3.9-3.1,7-7,7
			H82l0,0c-3.9,0-7-3.1-7-7v-63.7H19l0,0c-3.9,0-7-3.1-7-7V91.6l0,0c0-3.9,3.1-7,7-7h56V24l0,0c0-3.9,3.1-7,7-7h31.5l0,0
			c3.9,0,7,3.1,7,7V84.6z"/>
		<g id="Group" transform="translate(178.000000, 199.000000)">
			<path id="_x2D_" fill="#FF6868" d="M153,127H7l0,0c-3.9,0-7-3.1-7-7V83l0,0c0-3.9,3.1-7,7-7h146l0,0c3.9,0,7,3.1,7,7v37l0,0
				C160,123.9,156.9,127,153,127z"/>
			<path id="_x2D_-copy" fill="#FF6868" d="M153,51H7l0,0c-3.9,0-7-3.1-7-7V7l0,0c0-3.9,3.1-7,7-7h146l0,0c3.9,0,7,3.1,7,7v37l0,0
				C160,47.9,156.9,51,153,51z"/>
		</g>
	</g>
</g>
</svg>
