<?xml version="1.0" encoding="utf-8"?>
<!-- Generator: Adobe Illustrator 21.0.2, SVG Export Plug-In . SVG Version: 6.00 Build 0)  -->
<svg version="1.0" id="Layer_1" xmlns="http://www.w3.org/2000/svg" xmlns:xlink="http://www.w3.org/1999/xlink" x="0px" y="0px"
	 viewBox="0 0 355 355" enable-background="new 0 0 355 355" xml:space="preserve">
<title>FEED RATE</title>
<desc>Created with Sketch.</desc>
<g id="v2">
	<g id="FEED-RATE">
		<g id="Group-3" transform="translate(2.000000, 0.000000)">
			<path id="Rectangle-11" fill="#2288FF" d="M151,0h45v280.3l0,0c0,0.6-0.1,1.3-0.3,1.9l-15.9,56.2l0,0c-1.1,3.7-4.9,5.9-8.6,4.8
				c-2.4-0.7-4.2-2.5-4.9-4.9l-15.1-56.1l0,0c-0.2-0.6-0.2-1.2-0.2-1.8V0z"/>
			<g id="Group-2" transform="translate(0.000000, 96.000000)">
				<ellipse id="Oval-5" fill="none" stroke="#2A2A2A" stroke-width="34" cx="249" cy="113.5" rx="34.7" ry="34.8"/>
				<ellipse id="Oval-5-Copy" fill="none" stroke="#2A2A2A" stroke-width="34" cx="102.1" cy="113.5" rx="34.7" ry="34.8"/>
				<g id="Group-4" transform="translate(174.000000, 95.000000) scale(-1, 1) translate(-174.000000, -95.000000) ">
					
						<g id="Group" transform="translate(61.879976, 94.519997) scale(-1, -1) rotate(-270.000000) translate(-61.879976, -94.519997) translate(-32.620024, 33.519997)">
						<path id="Oval-2" fill="none" stroke="#FF6868" stroke-width="15.5" stroke-linecap="round" stroke-linejoin="round" d="
							M127.6,37C114.2,22.2,95,12.9,73.7,12.9C33,12.9,0,46.8,0,88.6c0,11.9,2.7,23.1,7.4,33.1"/>
						<path id="Path-8" fill="#FF6868" d="M150.1,6.2L167.6,58l0,0c0.9,2.6-0.5,5.5-3.1,6.3c-0.4,0.1-0.7,0.2-1.1,0.2l-54.5,5.1l0,0
							c-2.7,0.3-5.2-1.8-5.4-4.5c-0.1-1.1,0.2-2.2,0.8-3.2l37-56.9l0,0c1.5-2.3,4.6-3,6.9-1.5C149,4.2,149.7,5.1,150.1,6.2z"/>
					</g>
					
						<g id="Group_1_" transform="translate(286.120024, 94.517953) scale(1, -1) rotate(-270.000000) translate(-286.120024, -94.517953) translate(191.620024, 33.517953)">
						<path id="Oval-2_1_" fill="none" stroke="#FF6868" stroke-width="15.5" stroke-linecap="round" stroke-linejoin="round" d="
							M127.6,37C114.2,22.2,95,12.9,73.7,12.9C33,12.9,0,46.8,0,88.6c0,11.9,2.7,23.1,7.4,33.1"/>
						<path id="Path-8_1_" fill="#FF6868" d="M150.1,6.2L167.6,58l0,0c0.9,2.6-0.5,5.5-3.1,6.3c-0.4,0.1-0.7,0.2-1.1,0.2l-54.5,5.1
							l0,0c-2.7,0.3-5.2-1.8-5.4-4.5c-0.1-1.1,0.2-2.2,0.8-3.2l37-56.9l0,0c1.5-2.3,4.6-3,6.9-1.5C149,4.2,149.7,5.1,150.1,6.2z"/>
					</g>
				</g>
			</g>
		</g>
	</g>
</g>
</svg>
