<?xml version="1.0" encoding="utf-8"?>
<!-- Generator: Adobe Illustrator 22.0.1, SVG Export Plug-In . SVG Version: 6.00 Build 0)  -->
<svg version="1.1" baseProfile="tiny" id="Layer_1" xmlns="http://www.w3.org/2000/svg" xmlns:xlink="http://www.w3.org/1999/xlink"
	 x="0px" y="0px" viewBox="0 0 355 355" xml:space="preserve">
<title>Actions.Extrude</title>
<desc>Created with Sketch.</desc>
<g>
	<path id="Path-25" fill="none" stroke="#2288FF" stroke-width="30" stroke-linejoin="round" d="M87.5,209.9v47.6
		c0,20.4,16.6,37,37,37H355"/>
	<path id="Rectangle-11" fill="#2A2A2A" d="M17,0h143.6v91.3c0,6-1.2,12-3.5,17.5L93.7,258.9c-1.5,3.6-5.6,5.2-9.2,3.7
		c-1.7-0.7-3.1-2.1-3.8-3.8L20.3,108.5c-2.2-5.3-3.3-11.1-3.3-16.8V0z"/>
	<path id="Oval-5" fill="none" stroke="#FF6868" stroke-width="33" stroke-linecap="round" stroke-linejoin="round" d="M206.2,128.4
		c-11.8,10.9-19.2,26.5-19.2,43.7c0,33.1,27.1,59.9,60.5,59.9s60.5-26.8,60.5-59.9c0-17.1-7.2-32.5-18.8-43.4"/>
	<path id="Path-20" fill="none" stroke="#FF6868" stroke-width="33" stroke-linecap="round" stroke-linejoin="round" d="
		M247.3,154.6V104"/>
</g>
</svg>
