<?xml version="1.0" encoding="utf-8"?>
<!-- Generator: Adobe Illustrator 21.0.2, SVG Export Plug-In . SVG Version: 6.00 Build 0)  -->
<svg version="1.0" id="Layer_1" xmlns="http://www.w3.org/2000/svg" xmlns:xlink="http://www.w3.org/1999/xlink" x="0px" y="0px"
	 viewBox="0 0 355 355" enable-background="new 0 0 355 355" xml:space="preserve">
<title>PRECISION</title>
<desc>Created with Sketch.</desc>
<g id="v2">
	<g id="PRECISION">
		<g id="Group-3">
			<g id="Mask">
			</g>
			<defs>
				<filter id="Adobe_OpacityMaskFilter" filterUnits="userSpaceOnUse" x="91.5" y="90.5" width="300" height="300">
					<feColorMatrix  type="matrix" values="1 0 0 0 0  0 1 0 0 0  0 0 1 0 0  0 0 0 1 0"/>
				</filter>
			</defs>
			<mask maskUnits="userSpaceOnUse" x="91.5" y="90.5" width="300" height="300" id="mask-2">
				<g filter="url(#Adobe_OpacityMaskFilter)">
					<rect id="path-1" fill="#FFFFFF" width="355" height="355"/>
				</g>
			</mask>
			<g id="Group-2" mask="url(#mask-2)">
				<g transform="translate(99.000000, 98.000000)">
					<g>
						<path id="Oval-8" opacity="0.3" fill="none" stroke="#2A2A2A" stroke-width="15" enable-background="new    " d="M142.5,285
							c31.7,0,61-10.4,84.7-27.9c10.6-7.9,20.1-17.2,28.2-27.6c18.6-24.1,29.7-54.3,29.7-87c0-31.6-10.3-60.8-27.7-84.4
							C231.4,22.9,189.6,0,142.5,0C63.8,0,0,63.8,0,142.5c0,47.3,23.1,89.3,58.6,115.2C82.1,274.9,111.1,285,142.5,285z"/>
						
							<circle id="Oval-3" fill="#2A2A2A" stroke="#2A2A2A" stroke-width="16" stroke-linecap="round" stroke-linejoin="round" cx="141.2" cy="141.2" r="11.5"/>
					</g>
				</g>
			</g>
		</g>
		<path id="Path-15" fill="none" stroke="#2A2A2A" stroke-width="30" stroke-linecap="round" stroke-linejoin="round" d="M0,213h101
			l0,0c55.2,0,100-44.8,100-100V13"/>
		<polyline id="Path-8" fill="none" stroke="#2A2A2A" stroke-width="30" stroke-linecap="round" stroke-linejoin="round" points="
			160.9,49 201,14 239.3,49 		"/>
		
			<g id="Group" transform="translate(179.000000, 192.000000) rotate(-6.000000) translate(-179.000000, -192.000000) translate(135.000000, 148.000000)">
			<path id="Path-16" fill="none" stroke="#FF6868" stroke-width="20" stroke-linecap="round" stroke-linejoin="round" d="
				M10.8,10.8L75,73"/>
			<path id="Path-17" fill="none" stroke="#FF6868" stroke-width="20" stroke-linecap="round" stroke-linejoin="round" d="M0,12
				L11.5,0.5"/>
			<path id="Path-17-Copy" fill="none" stroke="#FF6868" stroke-width="20" stroke-linecap="round" stroke-linejoin="round" d="
				M76,86l11.5-11.5"/>
		</g>
	</g>
</g>
</svg>
