<?xml version="1.0" encoding="utf-8"?>
<!-- Generator: Adobe Illustrator 21.0.2, SVG Export Plug-In . SVG Version: 6.00 Build 0)  -->
<svg version="1.0" id="Layer_1" xmlns="http://www.w3.org/2000/svg" xmlns:xlink="http://www.w3.org/1999/xlink" x="0px" y="0px"
	 viewBox="0 0 355 355" enable-background="new 0 0 355 355" xml:space="preserve">
<title>TEMPERATURE</title>
<desc>Created with Sketch.</desc>
<g id="v2">
	<g id="TEMPERATURE">
		<polygon id="Path-19" fill="#FF6868" points="139,141.9 221.5,141.9 221.5,239.2 239.7,295.9 196.4,338.5 139,315.7 121,271.6 
			139,217 		"/>
		<g id="Group" transform="translate(121.000000, 20.000000)">
			<path id="Rectangle-9" fill="none" stroke="#2A2A2A" stroke-width="34" stroke-linecap="round" stroke-linejoin="round" d="
				M15,218.5v-177l0,0C15,18.6,33.6,0,56.5,0l0,0l0,0l0,0C79.4,0,98,18.6,98,41.5v177l0,0"/>
			<path id="Oval" fill="none" stroke="#2A2A2A" stroke-width="34" stroke-linecap="round" stroke-linejoin="round" d="M12.8,223.1
				c-7.5,9.6-12,21.6-12,34.7C0.8,288.8,26,314,57,314l0,0c31,0,56.2-25.2,56.2-56.2c0-14.1-5.2-26.9-13.7-36.8"/>
		</g>
		<path id="Path-5" fill="none" stroke="#2A2A2A" stroke-width="15" stroke-linecap="round" stroke-linejoin="round" d="M182.1,86.7
			v180"/>
	</g>
</g>
</svg>
