<?xml version="1.0" encoding="utf-8"?>
<!-- Generator: Adobe Illustrator 21.0.2, SVG Export Plug-In . SVG Version: 6.00 Build 0)  -->
<svg version="1.0" id="Layer_1" xmlns="http://www.w3.org/2000/svg" xmlns:xlink="http://www.w3.org/1999/xlink" x="0px" y="0px"
	 viewBox="0 0 355 355" enable-background="new 0 0 355 355" xml:space="preserve">
<title>DISPLAY PROGRAM</title>
<desc>Created with Sketch.</desc>
<g id="v2">
	<g id="DISPLAY-PROGRAM">
		<g id="Group-2" transform="translate(23.000000, 29.000000)">
			<g id="Group">
				<g id="Group-5" transform="translate(0.000000, 79.142857)">
					<path id="Rectangle-Copy-10" fill="#2288FF" d="M205,0.4h60c3.9,0,7,3.1,7,7v4.7c0,3.9-3.1,7-7,7h-60c-3.9,0-7-3.1-7-7V7.4
						C198,3.5,201.1,0.4,205,0.4z"/>
					<path id="Rectangle-Copy-7" fill="#2288FF" d="M7,0.4h60c3.9,0,7,3.1,7,7v4.7c0,3.9-3.1,7-7,7H7c-3.9,0-7-3.1-7-7V7.4
						C0,3.5,3.1,0.4,7,0.4z"/>
					<path id="Rectangle-Copy-8" fill="#2288FF" d="M97,0h15c3.9,0,7,3.1,7,7v4.7c0,3.9-3.1,7-7,7H97c-3.9,0-7-3.1-7-7V7
						C90,3.1,93.1,0,97,0z"/>
					<path id="Rectangle-Copy-9" fill="#2288FF" d="M142,0h31c3.9,0,7,3.1,7,7v4.7c0,3.9-3.1,7-7,7h-31c-3.9,0-7-3.1-7-7V7
						C135,3.1,138.1,0,142,0z"/>
				</g>
				<g id="Group-5-Copy" transform="translate(0.000000, 198.857143)">
					<path id="Rectangle-Copy-10_1_" fill="#2288FF" d="M205,0.4h60c3.9,0,7,3.1,7,7v4.7c0,3.9-3.1,7-7,7h-60c-3.9,0-7-3.1-7-7V7.4
						C198,3.5,201.1,0.4,205,0.4z"/>
					<path id="Rectangle-Copy-7_1_" fill="#2288FF" d="M7,0.4h60c3.9,0,7,3.1,7,7v4.7c0,3.9-3.1,7-7,7H7c-3.9,0-7-3.1-7-7V7.4
						C0,3.5,3.1,0.4,7,0.4z"/>
					<path id="Rectangle-Copy-8_1_" fill="#2288FF" d="M97.3,0.4h15c3.9,0,7,3.1,7,7v4.7c0,3.9-3.1,7-7,7h-15c-3.9,0-7-3.1-7-7V7.4
						C90.3,3.5,93.5,0.4,97.3,0.4z"/>
				</g>
				<g id="Group-4" transform="translate(0.000000, 39.571429)">
					<path id="Rectangle-Copy-4" fill="#2288FF" d="M55.5,0.2h83c3.9,0,7,3.1,7,7v4.7c0,3.9-3.1,7-7,7h-83c-3.9,0-7-3.1-7-7V7.2
						C48.5,3.3,51.6,0.2,55.5,0.2z"/>
					<path id="Rectangle-Copy-6" fill="#2288FF" d="M172,0.2h60c3.9,0,7,3.1,7,7v4.7c0,3.9-3.1,7-7,7h-60c-3.9,0-7-3.1-7-7V7.2
						C165,3.3,168.1,0.2,172,0.2z"/>
					<path id="Rectangle-Copy-5" fill="#2288FF" d="M7,0.2h15c3.9,0,7,3.1,7,7v4.7c0,3.9-3.1,7-7,7H7c-3.9,0-7-3.1-7-7V7.2
						C0,3.3,3.1,0.2,7,0.2z"/>
				</g>
				<g id="Group-4-Copy" transform="translate(0.000000, 159.285714)">
					<path id="Rectangle-Copy-4_1_" fill="#2288FF" d="M55.5,0.2h83c3.9,0,7,3.1,7,7v4.7c0,3.9-3.1,7-7,7h-83c-3.9,0-7-3.1-7-7V7.2
						C48.5,3.3,51.6,0.2,55.5,0.2z"/>
					<path id="Rectangle-Copy-6_1_" fill="#2288FF" d="M172,0.2h60c3.9,0,7,3.1,7,7v4.7c0,3.9-3.1,7-7,7h-60c-3.9,0-7-3.1-7-7V7.2
						C165,3.3,168.1,0.2,172,0.2z"/>
					<path id="Rectangle-Copy-5_1_" fill="#2288FF" d="M7,0.2h15c3.9,0,7,3.1,7,7v4.7c0,3.9-3.1,7-7,7H7c-3.9,0-7-3.1-7-7V7.2
						C0,3.3,3.1,0.2,7,0.2z"/>
				</g>
				<g id="Group-4-Copy-2" transform="translate(0.000000, 279.000000)">
					<path id="Rectangle-Copy-4_2_" fill="#2288FF" d="M55.5,0.2h83c3.9,0,7,3.1,7,7v4.7c0,3.9-3.1,7-7,7h-83c-3.9,0-7-3.1-7-7V7.2
						C48.5,3.3,51.6,0.2,55.5,0.2z"/>
					<path id="Rectangle-Copy-6_2_" fill="#2288FF" d="M172,0.2h60c3.9,0,7,3.1,7,7v4.7c0,3.9-3.1,7-7,7h-60c-3.9,0-7-3.1-7-7V7.2
						C165,3.3,168.1,0.2,172,0.2z"/>
					<path id="Rectangle-Copy-5_2_" fill="#2288FF" d="M7,0.2h15c3.9,0,7,3.1,7,7v4.7c0,3.9-3.1,7-7,7H7c-3.9,0-7-3.1-7-7V7.2
						C0,3.3,3.1,0.2,7,0.2z"/>
				</g>
				<g id="Group-3">
					<path id="Rectangle" fill="#2288FF" d="M7,0h83c3.9,0,7,3.1,7,7v4.7c0,3.9-3.1,7-7,7H7c-3.9,0-7-3.1-7-7V7C0,3.1,3.1,0,7,0z"/>
					<path id="Rectangle-Copy" fill="#2288FF" d="M125,0h60c3.9,0,7,3.1,7,7v4.7c0,3.9-3.1,7-7,7h-60c-3.9,0-7-3.1-7-7V7
						C118,3.1,121.1,0,125,0z"/>
					<path id="Rectangle-Copy-2" fill="#2288FF" d="M220,0h15c3.9,0,7,3.1,7,7v4.7c0,3.9-3.1,7-7,7h-15c-3.9,0-7-3.1-7-7V7
						C213,3.1,216.1,0,220,0z"/>
					<path id="Rectangle-Copy-3" fill="#2288FF" d="M270,0h32c3.9,0,7,3.1,7,7v4.7c0,3.9-3.1,7-7,7h-32c-3.9,0-7-3.1-7-7V7
						C263,3.1,266.1,0,270,0z"/>
				</g>
				<g id="Group-3-Copy" transform="translate(0.000000, 119.714286)">
					<path id="Rectangle_1_" fill="#2288FF" d="M7,0h83c3.9,0,7,3.1,7,7v4.7c0,3.9-3.1,7-7,7H7c-3.9,0-7-3.1-7-7V7C0,3.1,3.1,0,7,0z
						"/>
					<path id="Rectangle-Copy_1_" fill="#2288FF" d="M125,0h60c3.9,0,7,3.1,7,7v4.7c0,3.9-3.1,7-7,7h-60c-3.9,0-7-3.1-7-7V7
						C118,3.1,121.1,0,125,0z"/>
					<path id="Rectangle-Copy-2_1_" fill="#2288FF" d="M220,0h15c3.9,0,7,3.1,7,7v4.7c0,3.9-3.1,7-7,7h-15c-3.9,0-7-3.1-7-7V7
						C213,3.1,216.1,0,220,0z"/>
					<path id="Rectangle-Copy-3_1_" fill="#2288FF" d="M270,0h32c3.9,0,7,3.1,7,7v4.7c0,3.9-3.1,7-7,7h-32c-3.9,0-7-3.1-7-7V7
						C263,3.1,266.1,0,270,0z"/>
				</g>
				<g id="Group-3-Copy-2" transform="translate(0.000000, 239.428571)">
					<path id="Rectangle_2_" fill="#2288FF" d="M7,0h83c3.9,0,7,3.1,7,7v4.7c0,3.9-3.1,7-7,7H7c-3.9,0-7-3.1-7-7V7C0,3.1,3.1,0,7,0z
						"/>
					<path id="Rectangle-Copy_2_" fill="#2288FF" d="M125,0h60c3.9,0,7,3.1,7,7v4.7c0,3.9-3.1,7-7,7h-60c-3.9,0-7-3.1-7-7V7
						C118,3.1,121.1,0,125,0z"/>
					<path id="Rectangle-Copy-2_2_" fill="#2288FF" d="M220,0h15c3.9,0,7,3.1,7,7v4.7c0,3.9-3.1,7-7,7h-15c-3.9,0-7-3.1-7-7V7
						C213,3.1,216.1,0,220,0z"/>
					<path id="Rectangle-Copy-3_2_" fill="#2288FF" d="M270,0h32c3.9,0,7,3.1,7,7v4.7c0,3.9-3.1,7-7,7h-32c-3.9,0-7-3.1-7-7V7
						C263,3.1,266.1,0,270,0z"/>
				</g>
			</g>
		</g>
	</g>
</g>
</svg>
