<?xml version="1.0" encoding="utf-8"?>
<!-- Generator: Adobe Illustrator 21.0.2, SVG Export Plug-In . SVG Version: 6.00 Build 0)  -->
<svg version="1.0" id="Layer_1" xmlns="http://www.w3.org/2000/svg" xmlns:xlink="http://www.w3.org/1999/xlink" x="0px" y="0px"
	 viewBox="0 0 355 355" enable-background="new 0 0 355 355" xml:space="preserve">
<title>TOOL CREATE</title>
<desc>Created with Sketch.</desc>
<g id="v2">
	<g id="TOOL-CREATE">
		<g id="Group" transform="translate(49.000000, 0.000000)">
			<g id="Group-2" transform="translate(0.000000, 135.000000)">
				
					<polygon id="Path-2" fill="#2288FF" stroke="#2288FF" stroke-width="25" stroke-linecap="round" stroke-linejoin="round" points="
					33.8,64.1 40.3,194 0,42.7 257,42.7 213.1,194 223.2,64.1 				"/>
				
					<rect id="Rectangle-3-Copy" x="112.1" fill="#2288FF" stroke="#2288FF" stroke-width="18" stroke-linecap="round" stroke-linejoin="round" width="31.7" height="39"/>
			</g>
			<g id="Group-3" transform="translate(104.000000, 0.000000)">
				<polyline id="Rectangle-3" fill="#2288FF" stroke="#2288FF" stroke-width="18" stroke-linejoin="round" points="40.2,0 
					40.2,74.6 8.5,74.6 8.5,0 8.5,0 				"/>
				
					<ellipse id="Oval-9" fill="none" stroke="#2288FF" stroke-width="18" stroke-linecap="round" stroke-linejoin="round" cx="25" cy="100.9" rx="25" ry="25.1"/>
			</g>
		</g>
		<path id="_x2B_" fill="#FF6868" d="M297.8,63.6h31.7l0,0c3.9,0,7,3.1,7,7v12.8l0,0c0,3.9-3.1,7-7,7h-31.7V127l0,0c0,3.9-3.1,7-7,7
			h-14l0,0c-3.9,0-7-3.1-7-7V90.5H238l0,0c-3.9,0-7-3.1-7-7V70.6l0,0c0-3.9,3.1-7,7-7h31.8V29l0,0c0-3.9,3.1-7,7-7h14l0,0
			c3.9,0,7,3.1,7,7V63.6z"/>
	</g>
</g>
</svg>
