<?xml version="1.0" encoding="utf-8"?>
<!-- Generator: Adobe Illustrator 21.0.2, SVG Export Plug-In . SVG Version: 6.00 Build 0)  -->
<svg version="1.1" id="레이어_1" xmlns="http://www.w3.org/2000/svg" xmlns:xlink="http://www.w3.org/1999/xlink" x="0px"
	 y="0px" viewBox="0 0 355 355" style="enable-background:new 0 0 355 355;" xml:space="preserve">
<style type="text/css">
	.st0{filter:url(#Adobe_OpacityMaskFilter);}
	.st1{fill:#FFFFFF;}
	.st2{mask:url(#mask-2_4_);}
	.st3{fill:#FF6868;}
	.st4{filter:url(#Adobe_OpacityMaskFilter_1_);}
	.st5{mask:url(#mask-2_2_);}
	.st6{fill:#2288FF;}
	.st7{fill:none;stroke:#2288FF;stroke-width:30;stroke-linecap:round;stroke-linejoin:round;}
	.st8{filter:url(#Adobe_OpacityMaskFilter_2_);}
	.st9{mask:url(#mask-2_3_);fill:none;stroke:#FF6868;stroke-width:30;stroke-linecap:round;stroke-linejoin:round;}
</style>
<g id="Mask">
</g>
<defs>
	<filter id="Adobe_OpacityMaskFilter" filterUnits="userSpaceOnUse" x="-7.1" y="167.4" width="359.2" height="23.2">
		<feColorMatrix  type="matrix" values="1 0 0 0 0  0 1 0 0 0  0 0 1 0 0  0 0 0 1 0"/>
	</filter>
</defs>
<mask maskUnits="userSpaceOnUse" x="-7.1" y="167.4" width="359.2" height="23.2" id="mask-2_4_">
	<g class="st0">
		<rect id="path-1_4_" class="st1" width="355" height="355"/>
	</g>
</mask>
<g id="Path-18" class="st2">
	<path class="st3" d="M352.1,190.6h-30.2v-23.2h30.2V190.6z M305.1,190.6h-30.2v-23.2h30.2V190.6z M258.1,190.6h-30.2v-23.2h30.2
		V190.6z M211.1,190.6h-30.2v-23.2h30.2V190.6z M164.1,190.6h-30.2v-23.2h30.2V190.6z M117.1,190.6H86.9v-23.2h30.2V190.6z
		 M70.1,190.6H39.9v-23.2h30.2V190.6z M23.1,190.6H-7.1v-23.2h30.2V190.6z"/>
</g>
<defs>
	<filter id="Adobe_OpacityMaskFilter_1_" filterUnits="userSpaceOnUse" x="88.2" y="34.7" width="230.1" height="252.8">
		<feColorMatrix  type="matrix" values="1 0 0 0 0  0 1 0 0 0  0 0 1 0 0  0 0 0 1 0"/>
	</filter>
</defs>
<mask maskUnits="userSpaceOnUse" x="88.2" y="34.7" width="230.1" height="252.8" id="mask-2_2_">
	<g class="st4">
		<rect id="path-1_2_" class="st1" width="355" height="355"/>
	</g>
</mask>
<g id="Group" class="st5">
	
		<g transform="translate(218.336995, 176.857608) rotate(-285.000000) translate(-218.336995, -176.857608) translate(70.336995, 96.857608)">
		<path id="Path-8" class="st6" d="M253.3,9.1l9.2,69l0,0c0.5,3.8-2.2,7.4-6,7.9c-0.4,0.1-0.9,0.1-1.4,0l-69.5-4.3l0,0
			c-3.9-0.2-6.8-3.6-6.6-7.4c0.1-1.6,0.8-3.2,1.9-4.3l60.3-64.7l0,0c2.6-2.8,7.1-3,9.9-0.3C252.3,6,253.1,7.5,253.3,9.1z"/>
		<path id="Oval-2" class="st7" d="M244,63.7C218.3,36.2,181.6,19,140.9,19C63.1,19,0,81.9,0,159.5"/>
	</g>
</g>
<defs>
	<filter id="Adobe_OpacityMaskFilter_2_" filterUnits="userSpaceOnUse" x="32.5" y="-15.4" width="268.9" height="385.4">
		<feColorMatrix  type="matrix" values="1 0 0 0 0  0 1 0 0 0  0 0 1 0 0  0 0 0 1 0"/>
	</filter>
</defs>
<mask maskUnits="userSpaceOnUse" x="32.5" y="-15.4" width="268.9" height="385.4" id="mask-2_3_">
	<g class="st8">
		<rect id="path-1_3_" y="0" class="st1" width="355" height="355"/>
	</g>
</mask>
<polyline id="Path-20" class="st9" points="47.5,-0.4 47.5,182.4 286.4,355 "/>
</svg>
