<?xml version="1.0" encoding="utf-8"?>
<!-- Generator: Adobe Illustrator 21.0.2, SVG Export Plug-In . SVG Version: 6.00 Build 0)  -->
<svg version="1.0" id="Layer_1" xmlns="http://www.w3.org/2000/svg" xmlns:xlink="http://www.w3.org/1999/xlink" x="0px" y="0px"
	 viewBox="0 0 355 355" enable-background="new 0 0 355 355" xml:space="preserve">
<title>SPEED</title>
<desc>Created with Sketch.</desc>
<g id="v2">
	<g id="SPEED">
		<g id="Group" transform="translate(13.000000, 65.000000)">
			<path id="Oval-3" fill="none" stroke="#2A2A2A" stroke-width="18" stroke-linecap="round" stroke-linejoin="round" d="M319.7,222
				c6.7-17.9,10.3-37.2,10.3-57.4C330,73.7,256.1,0,165,0S0,73.7,0,164.6c0,19.8,3.5,38.7,9.9,56.2"/>
			<path id="Path-9" fill="none" stroke="#2A2A2A" stroke-width="13.8" stroke-linecap="round" stroke-linejoin="round" d="
				M23,166.5h10"/>
			<path id="Path-9-Copy" fill="none" stroke="#2A2A2A" stroke-width="13.8" stroke-linecap="round" stroke-linejoin="round" d="
				M298,166.5h10"/>
			<path id="Path-9_1_" fill="none" stroke="#2A2A2A" stroke-width="13.8" stroke-linecap="round" stroke-linejoin="round" d="
				M42.7,95l8.7,5"/>
			<path id="Path-9_2_" fill="none" stroke="#2A2A2A" stroke-width="13.8" stroke-linecap="round" stroke-linejoin="round" d="
				M166,23.5v10"/>
			<path id="Path-9_3_" fill="none" stroke="#2A2A2A" stroke-width="13.8" stroke-linecap="round" stroke-linejoin="round" d="
				M288.3,95l-8.7,5"/>
			<path id="Path-9_4_" fill="none" stroke="#2A2A2A" stroke-width="13.8" stroke-linecap="round" stroke-linejoin="round" d="
				M236.5,44.2l-5,8.7"/>
			<path id="Path-9_5_" fill="none" stroke="#2A2A2A" stroke-width="13.8" stroke-linecap="round" stroke-linejoin="round" d="
				M94.5,44.2l5,8.7"/>
			<path id="Path-10" fill="none" stroke="#2A2A2A" stroke-width="18" stroke-linecap="round" stroke-linejoin="round" d="
				M10.3,222.3H318"/>
			<path id="Path-11" fill="none" stroke="#2A2A2A" stroke-width="18" stroke-linecap="round" stroke-linejoin="round" d="M146,171
				l-76-40"/>
			<path id="Path-11_1_" fill="none" stroke="#FF6868" stroke-width="18" stroke-linecap="round" stroke-linejoin="round" d="
				M184,173l78-42"/>
			<path id="Path-8" fill="#2288FF" d="M241.7,83.4l-2.6,39.3l0,0c-0.3,3.9-3.6,6.8-7.4,6.5c-0.3,0-0.5,0-0.8-0.1l-38.8-7l0,0
				c-3.8-0.7-6.3-4.3-5.6-8.1c0.3-1.7,1.2-3.2,2.6-4.3l41.4-32.3l0,0c3-2.4,7.4-1.8,9.8,1.2C241.3,80,241.9,81.7,241.7,83.4z"/>
			<path id="Oval-4" fill="none" stroke="#2288FF" stroke-width="17" stroke-linecap="round" stroke-linejoin="round" d="M221,104.8
				C205.5,91.2,185.1,83,162.7,83c-24.6,0-46.8,10-62.7,26"/>
			
				<ellipse id="Oval-3_1_" fill="none" stroke="#2A2A2A" stroke-width="9.2" stroke-linecap="round" stroke-linejoin="round" cx="164" cy="181.5" rx="16" ry="16.5"/>
		</g>
	</g>
</g>
</svg>
