<?xml version="1.0" encoding="utf-8"?>
<!-- Generator: Adobe Illustrator 22.0.1, SVG Export Plug-In . SVG Version: 6.00 Build 0)  -->
<svg version="1.1" baseProfile="tiny" id="Layer_1" xmlns="http://www.w3.org/2000/svg" xmlns:xlink="http://www.w3.org/1999/xlink"
	 x="0px" y="0px" viewBox="0 0 355 355" xml:space="preserve">
<title>Actions.Rotate</title>
<desc>Created with Sketch.</desc>
<g>
	<path id="Rectangle-Copy-5" fill="#FF6868" d="M97,167h24c1.7,0,3,1.3,3,3v18c0,1.7-1.3,3-3,3H97c-1.7,0-3-1.3-3-3v-18
		C94,168.3,95.3,167,97,167z"/>
	<path id="Rectangle-Copy-6" fill="#FF6868" d="M50,167h24c1.7,0,3,1.3,3,3v18c0,1.7-1.3,3-3,3H50c-1.7,0-3-1.3-3-3v-18
		C47,168.3,48.3,167,50,167z"/>
	<path id="Rectangle-Copy-7" fill="#FF6868" d="M3,167h24c1.7,0,3,1.3,3,3v18c0,1.7-1.3,3-3,3H3c-1.7,0-3-1.3-3-3v-18
		C0,168.3,1.3,167,3,167z"/>
	<path id="Rectangle-Copy-8" fill="#FF6868" d="M144,167h24c1.7,0,3,1.3,3,3v18c0,1.7-1.3,3-3,3h-24c-1.7,0-3-1.3-3-3v-18
		C141,168.3,142.3,167,144,167z"/>
	<path id="Rectangle-Copy-9" fill="#FF6868" d="M189,167h24c1.7,0,3,1.3,3,3v18c0,1.7-1.3,3-3,3h-24c-1.7,0-3-1.3-3-3v-18
		C186,168.3,187.3,167,189,167z"/>
	<path id="Rectangle-Copy-10" fill="#FF6868" d="M236,167h24c1.7,0,3,1.3,3,3v18c0,1.7-1.3,3-3,3h-24c-1.7,0-3-1.3-3-3v-18
		C233,168.3,234.3,167,236,167z"/>
	<path id="Rectangle-Copy-11" fill="#FF6868" d="M283,167h24c1.7,0,3,1.3,3,3v18c0,1.7-1.3,3-3,3h-24c-1.7,0-3-1.3-3-3v-18
		C280,168.3,281.3,167,283,167z"/>
	<path id="Rectangle-Copy-12" fill="#FF6868" d="M328,167h24c1.7,0,3,1.3,3,3v18c0,1.7-1.3,3-3,3h-24c-1.7,0-3-1.3-3-3v-18
		C325,168.3,326.3,167,328,167z"/>
	<polyline id="Path-20" fill="none" stroke="#FF6868" stroke-width="30" stroke-linecap="round" stroke-linejoin="round" points="
		47.5,-0.4 47.5,182.4 286.4,355 	"/>
	<path id="Stroke-4" fill="none" stroke="#2288FF" stroke-width="30" stroke-linecap="round" stroke-linejoin="round" d="
		M253.6,250.7c19.9-32,27-71.8,16.5-111.2C250,64.4,172.9,19.7,98,39.8"/>
	<path fill-rule="evenodd" fill="#2288FF" d="M306.7,254l-64.3,26.7c-3.6,1.5-7.7-0.2-9.2-3.8c-0.2-0.4-0.3-0.9-0.4-1.3l-13.8-68.2
		c-0.8-3.8,1.7-7.5,5.5-8.2c1.6-0.3,3.2-0.1,4.7,0.7l78.1,41.5c3.4,1.8,4.7,6.1,2.9,9.5C309.5,252.2,308.2,253.4,306.7,254"/>
</g>
</svg>
