<?xml version="1.0" encoding="utf-8"?>
<!-- Generator: Adobe Illustrator 22.0.1, SVG Export Plug-In . SVG Version: 6.00 Build 0)  -->
<svg version="1.1" baseProfile="tiny" id="Layer_1" xmlns="http://www.w3.org/2000/svg" xmlns:xlink="http://www.w3.org/1999/xlink"
	 x="0px" y="0px" viewBox="0 0 355 355" xml:space="preserve">
<title>Actions.Speed</title>
<desc>Created with Sketch.</desc>
<g>
	<path id="Oval-3" fill="none" stroke="#2A2A2A" stroke-width="18" stroke-linecap="round" stroke-linejoin="round" d="M332.7,287
		c6.7-17.9,10.3-37.2,10.3-57.4C343,138.7,269.1,65,178,65S13,138.7,13,229.6c0,19.8,3.5,38.7,9.9,56.2"/>
	<path id="Path-9" fill="none" stroke="#2A2A2A" stroke-width="13.8" stroke-linecap="round" stroke-linejoin="round" d="M36,231.5
		h10"/>
	<path id="Path-9-Copy" fill="none" stroke="#2A2A2A" stroke-width="13.8" stroke-linecap="round" stroke-linejoin="round" d="
		M311,231.5h10"/>
	<path id="Path-9_1_" fill="none" stroke="#2A2A2A" stroke-width="13.8" stroke-linecap="round" stroke-linejoin="round" d="
		M55.7,160l8.7,5"/>
	<path id="Path-9_2_" fill="none" stroke="#2A2A2A" stroke-width="13.8" stroke-linecap="round" stroke-linejoin="round" d="
		M179,88.5v10"/>
	<path id="Path-9_3_" fill="none" stroke="#2A2A2A" stroke-width="13.8" stroke-linecap="round" stroke-linejoin="round" d="
		M301.3,160l-8.7,5"/>
	<path id="Path-9_4_" fill="none" stroke="#2A2A2A" stroke-width="13.8" stroke-linecap="round" stroke-linejoin="round" d="
		M249.5,109.2l-5,8.7"/>
	<path id="Path-9_5_" fill="none" stroke="#2A2A2A" stroke-width="13.8" stroke-linecap="round" stroke-linejoin="round" d="
		M107.5,109.2l5,8.7"/>
	<path id="Path-10" fill="none" stroke="#2A2A2A" stroke-width="18" stroke-linecap="round" stroke-linejoin="round" d="M23.3,287.3
		H331"/>
	<path id="Path-11" fill="none" stroke="#2A2A2A" stroke-width="18" stroke-linecap="round" stroke-linejoin="round" d="M159,236
		l-76-40"/>
	<path id="Path-11_1_" fill="none" stroke="#FF6868" stroke-width="18" stroke-linecap="round" stroke-linejoin="round" d="M197,238
		l78-42"/>
	
		<ellipse id="Oval-3_1_" fill="none" stroke="#2A2A2A" stroke-width="9.2" stroke-linecap="round" stroke-linejoin="round" cx="177" cy="246.5" rx="16" ry="16.5"/>
	<path id="Stroke-3" fill="none" stroke="#2288FF" stroke-width="17" stroke-linecap="round" stroke-linejoin="round" d="
		M227.5,168.3c-15.5-13.6-35.9-21.8-58.3-21.8c-24.6,0-46.8,10-62.7,26"/>
	<path fill-rule="evenodd" fill="#2288FF" d="M246.3,146.3l-2.6,39.3c-0.3,3.9-3.6,6.8-7.4,6.5c-0.3,0-0.5-0.1-0.8-0.1l-38.8-7
		c-3.8-0.7-6.3-4.3-5.6-8.1c0.3-1.7,1.2-3.2,2.6-4.3l41.4-32.3c3-2.4,7.4-1.8,9.8,1.2C245.9,142.9,246.5,144.6,246.3,146.3"/>
</g>
</svg>
