<?xml version="1.0" encoding="utf-8"?>
<!-- Generator: Adobe Illustrator 22.0.1, SVG Export Plug-In . SVG Version: 6.00 Build 0)  -->
<svg version="1.1" baseProfile="tiny" id="Layer_1" xmlns="http://www.w3.org/2000/svg" xmlns:xlink="http://www.w3.org/1999/xlink"
	 x="0px" y="0px" viewBox="0 0 355 355" xml:space="preserve">
<title>Actions.FeedRate</title>
<desc>Created with Sketch.</desc>
<g>
	<path id="Rectangle-11" fill="#2288FF" d="M153,0h45v280.3c0,0.6-0.1,1.3-0.3,1.9l-15.9,56.2c-1.1,3.7-4.9,5.9-8.6,4.8
		c-2.4-0.7-4.2-2.5-4.9-4.9l-15.1-56.1c-0.2-0.6-0.2-1.2-0.2-1.8V0z"/>
	<ellipse id="Oval-5" fill="none" stroke="#2A2A2A" stroke-width="34" cx="251" cy="209.5" rx="34.7" ry="34.8"/>
	<ellipse id="Oval-5-Copy" fill="none" stroke="#2A2A2A" stroke-width="34" cx="104.1" cy="209.5" rx="34.7" ry="34.8"/>
	<path id="Stroke-1" fill="none" stroke="#FF6868" stroke-width="15.5" stroke-linecap="round" stroke-linejoin="round" d="
		M313.5,158.2c14.8,13.5,24.1,32.6,24.1,53.9c0,40.7-33.9,73.7-75.7,73.7c-11.9,0-23.1-2.7-33.1-7.4"/>
	<path id="Stroke-6" fill="none" stroke="#FF6868" stroke-width="15.5" stroke-linecap="round" stroke-linejoin="round" d="
		M41.2,158.2c-14.8,13.5-24.1,32.6-24.1,53.9c0,40.7,33.9,73.7,75.7,73.7c11.9,0,23.1-2.7,33.1-7.4"/>
	<path fill-rule="evenodd" fill="#FF6868" d="M10.4,136l51.9-17.5c2.6-0.9,5.5,0.5,6.3,3.1c0.1,0.4,0.2,0.8,0.2,1.1l5.1,54.5
		c0.3,2.7-1.8,5.2-4.5,5.4c-1.1,0.1-2.2-0.2-3.2-0.8L9.3,145c-2.3-1.5-3-4.6-1.5-6.9C8.5,137.1,9.4,136.4,10.4,136"/>
	<path fill-rule="evenodd" fill="#FF6868" d="M344.1,136l-51.9-17.5c-2.6-0.9-5.5,0.5-6.3,3.1c-0.1,0.4-0.2,0.8-0.2,1.1l-5.1,54.5
		c-0.3,2.7,1.8,5.2,4.5,5.4c1.1,0.1,2.2-0.2,3.2-0.8l56.9-37c2.3-1.5,3-4.6,1.5-6.9C346,137.1,345.1,136.4,344.1,136"/>
</g>
</svg>
