<?xml version="1.0" encoding="utf-8"?>
<!-- Generator: Adobe Illustrator 21.0.2, SVG Export Plug-In . SVG Version: 6.00 Build 0)  -->
<svg version="1.0" id="Layer_1" xmlns="http://www.w3.org/2000/svg" xmlns:xlink="http://www.w3.org/1999/xlink" x="0px" y="0px"
	 viewBox="0 0 355 355" enable-background="new 0 0 355 355" xml:space="preserve">
<title>MOVE</title>
<desc>Created with Sketch.</desc>
<g id="v2">
	<g id="MOVE">
		<path id="Rectangle-10" fill="#FF6868" d="M220.9,152l13.5,76.7l0,0c0.5,2.7-1.3,5.3-4.1,5.8c-0.6,0.1-1.2,0.1-1.7,0L152,221l0,0
			c-2.7-0.5-4.5-3.1-4.1-5.8c0.2-1,0.7-2,1.5-2.7l17.9-17.2l0,0c2-1.9,2-5.1,0.1-7.1c0,0,0,0-0.1-0.1l-48.8-48.8l0,0
			c-2-2-2-5.1,0-7.1l13.4-13.4l0,0c2-2,5.1-2,7.1,0l48.8,48.8l0,0c2,2,5.1,2,7.1,0c0,0,0,0,0.1-0.1l17.5-18.2l0,0
			c1.9-2,5.1-2,7.1-0.1C220.3,150,220.8,151,220.9,152z"/>
		<path id="Rectangle-2" fill="#2A2A2A" d="M35,22h76c5.5,0,10,4.5,10,10v76c0,5.5-4.5,10-10,10H35c-5.5,0-10-4.5-10-10V32
			C25,26.5,29.5,22,35,22z"/>
		<path id="Rectangle-2-Copy" fill="#2288FF" d="M251,241h76c5.5,0,10,4.5,10,10v76c0,5.5-4.5,10-10,10h-76c-5.5,0-10-4.5-10-10v-76
			C241,245.5,245.5,241,251,241z"/>
	</g>
</g>
</svg>
