<?xml version="1.0" encoding="utf-8"?>
<!-- Generator: Adobe Illustrator 21.0.2, SVG Export Plug-In . SVG Version: 6.00 Build 0)  -->
<svg version="1.0" id="Layer_1" xmlns="http://www.w3.org/2000/svg" xmlns:xlink="http://www.w3.org/1999/xlink" x="0px" y="0px"
	 viewBox="0 0 355 355" enable-background="new 0 0 355 355" xml:space="preserve">
<title>JOINTS</title>
<desc>Created with Sketch.</desc>
<g id="v2">
	<g id="JOINTS">
		
			<polyline id="Path-6" fill="none" stroke="#2A2A2A" stroke-width="33.25" stroke-linecap="round" stroke-linejoin="round" points="
			192.3,312 29,144.4 194.8,36 269.5,119.8 		"/>
		<polyline id="Rectangle" fill="#2A2A2A" stroke="#2A2A2A" stroke-width="23.94" stroke-linejoin="round" points="132.2,355 
			132.2,311.5 228.1,311.5 228.1,355 		"/>
		
			<circle id="Oval" fill="#FFFFFF" stroke="#FF6868" stroke-width="17" stroke-linecap="round" stroke-linejoin="round" cx="39.5" cy="147.5" r="23.5"/>
		
			<g id="Group" transform="translate(73.166793, 131.857973) rotate(72.000000) translate(-73.166793, -131.857973) translate(22.166793, 91.357973)">
			<path id="Oval-2" fill="none" stroke="#2288FF" stroke-width="15.5" stroke-linecap="round" stroke-linejoin="round" d="
				M85.8,24.5c-9-9.8-21.9-16-36.3-16C22.2,8.5,0,31,0,58.7c0,7.9,1.8,15.4,5,22"/>
			
				<polyline id="Path-8" fill="none" stroke="#2288FF" stroke-width="15.5" stroke-linecap="round" stroke-linejoin="round" points="
				85.5,0.2 90.4,27 63.4,30.6 			"/>
		</g>
		
			<g id="Group_1_" transform="translate(196.464146, 260.909219) rotate(47.000000) translate(-196.464146, -260.909219) translate(145.464146, 220.409219)">
			<path id="Oval-2_1_" fill="none" stroke="#2288FF" stroke-width="15.5" stroke-linecap="round" stroke-linejoin="round" d="
				M85.8,24.5c-9-9.8-21.9-16-36.3-16C22.2,8.5,0,31,0,58.7c0,7.9,1.8,15.4,5,22"/>
			
				<polyline id="Path-8_1_" fill="none" stroke="#2288FF" stroke-width="15.5" stroke-linecap="round" stroke-linejoin="round" points="
				85.9,0.3 90.3,27.1 63.3,30.3 			"/>
		</g>
		
			<g id="Group_2_" transform="translate(196.574029, 83.417296) scale(-1, 1) rotate(-159.000000) translate(-196.574029, -83.417296) translate(145.574029, 42.917296)">
			<path id="Oval-2_2_" fill="none" stroke="#2288FF" stroke-width="15.5" stroke-linecap="round" stroke-linejoin="round" d="
				M85.8,24.5c-9-9.8-21.9-16-36.3-16C22.2,8.5,0,31,0,58.7c0,7.9,1.8,15.4,5,22"/>
			
				<polyline id="Path-8_2_" fill="none" stroke="#2288FF" stroke-width="15.5" stroke-linecap="round" stroke-linejoin="round" points="
				85.9,0.3 90.3,27.1 63.3,30.3 			"/>
		</g>
		
			<circle id="Oval-Copy" fill="#FFFFFF" stroke="#FF6868" stroke-width="17" stroke-linecap="round" stroke-linejoin="round" cx="192.5" cy="45.5" r="23.5"/>
		
			<circle id="Oval-Copy-2" fill="#FFFFFF" stroke="#FF6868" stroke-width="17" stroke-linecap="round" stroke-linejoin="round" cx="174.5" cy="292.5" r="23.5"/>
		<polygon id="Path-2" fill="#2A2A2A" stroke="#2A2A2A" stroke-width="17" stroke-linecap="round" stroke-linejoin="round" points="
			250.4,155.8 289.6,192.4 234.3,159.1 310.5,85.5 340.8,142.9 306.6,101.5 		"/>
	</g>
</g>
</svg>
