<?xml version="1.0" encoding="utf-8"?>
<!-- Generator: Adobe Illustrator 22.0.1, SVG Export Plug-In . SVG Version: 6.00 Build 0)  -->
<svg version="1.1" baseProfile="tiny" id="Layer_1" xmlns="http://www.w3.org/2000/svg" xmlns:xlink="http://www.w3.org/1999/xlink"
	 x="0px" y="0px" viewBox="0 0 355 355" xml:space="preserve">
<title>Actions.ActionMode</title>
<desc>Created with Sketch.</desc>
<g>
	<path id="Path-24" fill="none" stroke="#BFBFBF" stroke-width="15" stroke-linejoin="round" d="M0,355L355,0"/>
	<path id="_x2B_" fill="#FF6868" d="M120.5,84.6h55.8c3.9,0,7,3.1,7,7v29.6c0,3.9-3.1,7-7,7h-55.8V192c0,3.9-3.1,7-7,7H82
		c-3.9,0-7-3.1-7-7v-63.7H19c-3.9,0-7-3.1-7-7V91.6c0-3.9,3.1-7,7-7h56V24c0-3.9,3.1-7,7-7h31.5c3.9,0,7,3.1,7,7V84.6z"/>
	<path id="_x2D_" fill="#FF6868" d="M331,326H185c-3.9,0-7-3.1-7-7v-37c0-3.9,3.1-7,7-7h146c3.9,0,7,3.1,7,7v37
		C338,322.9,334.9,326,331,326z"/>
	<path id="_x2D_-copy" fill="#FF6868" d="M331,250H185c-3.9,0-7-3.1-7-7v-37c0-3.9,3.1-7,7-7h146c3.9,0,7,3.1,7,7v37
		C338,246.9,334.9,250,331,250z"/>
</g>
</svg>
