<?xml version="1.0" encoding="utf-8"?>
<!-- Generator: Adobe Illustrator 22.0.1, SVG Export Plug-In . SVG Version: 6.00 Build 0)  -->
<svg version="1.1" baseProfile="tiny" id="Layer_1" xmlns="http://www.w3.org/2000/svg" xmlns:xlink="http://www.w3.org/1999/xlink"
	 x="0px" y="0px" viewBox="0 0 355 355" xml:space="preserve">
<title>Actions.PopSettings</title>
<desc>Created with Sketch.</desc>
<g>
	<path id="Rectangle-10" fill="#2288FF" d="M125.5,112.4l47.4,67.8c1.6,2.3,4.7,2.8,7,1.2c0.5-0.3,0.9-0.8,1.2-1.2l47.4-67.8
		c1.6-2.3,1-5.4-1.2-7c-0.8-0.6-1.8-0.9-2.9-0.9h-23.2c-2.8,0-5-2.2-5-5v-73c0-2.8-2.2-5-5-5h-28c-2.8,0-5,2.2-5,5l0,73
		c0,2.8-2.2,5-5,5c0,0,0,0,0,0l-23.7,0c-2.8,0-5,2.2-5,5C124.6,110.5,124.9,111.5,125.5,112.4z"/>
	<path id="Rectangle" fill="#2A2A2A" d="M30,332h83c3.9,0,7-3.1,7-7v-15c0-3.9-3.1-7-7-7H30c-3.9,0-7,3.1-7,7v15
		C23,328.9,26.1,332,30,332z"/>
	<path id="Rectangle-Copy-4" fill="#2A2A2A" d="M78.5,284h83c3.9,0,7-3.1,7-7v-15c0-3.9-3.1-7-7-7h-83c-3.9,0-7,3.1-7,7v15
		C71.5,280.9,74.6,284,78.5,284z"/>
	<path id="Rectangle-Copy" fill="#2A2A2A" d="M148,332h60c3.9,0,7-3.1,7-7v-15c0-3.9-3.1-7-7-7h-60c-3.9,0-7,3.1-7,7v15
		C141,328.9,144.1,332,148,332z"/>
	<path id="Rectangle-Copy-10" fill="#2A2A2A" d="M228,236h60c3.9,0,7-3.1,7-7v-15c0-3.9-3.1-7-7-7h-60c-3.9,0-7,3.1-7,7v15
		C221,232.9,224.1,236,228,236z"/>
	<path id="Rectangle-Copy-7" fill="#2A2A2A" d="M30,236h60c3.9,0,7-3.1,7-7v-15c0-3.9-3.1-7-7-7H30c-3.9,0-7,3.1-7,7v15
		C23,232.9,26.1,236,30,236z"/>
	<path id="Rectangle-Copy-6" fill="#2A2A2A" d="M195,284h60c3.9,0,7-3.1,7-7v-15c0-3.9-3.1-7-7-7h-60c-3.9,0-7,3.1-7,7v15
		C188,280.9,191.1,284,195,284z"/>
	<path id="Rectangle-Copy-2" fill="#2A2A2A" d="M243,332h15c3.9,0,7-3.1,7-7v-15c0-3.9-3.1-7-7-7h-15c-3.9,0-7,3.1-7,7v15
		C236,328.9,239.1,332,243,332z"/>
	<path id="Rectangle-Copy-8" fill="#2A2A2A" d="M120.3,236h15c3.9,0,7-3.1,7-7v-15c0-3.9-3.1-7-7-7h-15c-3.9,0-7,3.1-7,7v15
		C113.3,232.9,116.5,236,120.3,236z"/>
	<path id="Rectangle-Copy-5" fill="#2A2A2A" d="M30,284h15c3.9,0,7-3.1,7-7v-15c0-3.9-3.1-7-7-7H30c-3.9,0-7,3.1-7,7v15
		C23,280.9,26.1,284,30,284z"/>
	<path id="Rectangle-Copy-3" fill="#2A2A2A" d="M293,332h32c3.9,0,7-3.1,7-7v-15c0-3.9-3.1-7-7-7h-32c-3.9,0-7,3.1-7,7v15
		C286,328.9,289.1,332,293,332z"/>
	<path id="Rectangle-Copy-9" fill="#2A2A2A" d="M165.7,236h32c3.9,0,7-3.1,7-7v-15c0-3.9-3.1-7-7-7h-32c-3.9,0-7,3.1-7,7v15
		C158.7,232.9,161.8,236,165.7,236z"/>
</g>
</svg>
