<?xml version="1.0" encoding="utf-8"?>
<!-- Generator: Adobe Illustrator 21.0.2, SVG Export Plug-In . SVG Version: 6.00 Build 0)  -->
<svg version="1.0" id="Layer_1" xmlns="http://www.w3.org/2000/svg" xmlns:xlink="http://www.w3.org/1999/xlink" x="0px" y="0px"
	 viewBox="0 0 355 355" enable-background="new 0 0 355 355" xml:space="preserve">
<title>EXPORT CODE</title>
<desc>Created with Sketch.</desc>
<g id="v2">
	<g id="EXPORT-CODE">
		<g id="Group-2" transform="translate(23.000000, 10.000000)">
			<g id="Group">
				<path id="Rectangle" fill="#2A2A2A" d="M7,0h83c3.9,0,7,3.1,7,7v5c0,3.9-3.1,7-7,7H7c-3.9,0-7-3.1-7-7V7C0,3.1,3.1,0,7,0z"/>
				<path id="Rectangle-Copy-4" fill="#2A2A2A" d="M78,32h83c3.9,0,7,3.1,7,7v5c0,3.9-3.1,7-7,7H78c-3.9,0-7-3.1-7-7v-5
					C71,35.1,74.1,32,78,32z"/>
				<path id="Rectangle-Copy" fill="#2A2A2A" d="M125,0h60c3.9,0,7,3.1,7,7v5c0,3.9-3.1,7-7,7h-60c-3.9,0-7-3.1-7-7V7
					C118,3.1,121.1,0,125,0z"/>
				<path id="Rectangle-Copy-10" fill="#2A2A2A" d="M206,65h60c3.9,0,7,3.1,7,7v5c0,3.9-3.1,7-7,7h-60c-3.9,0-7-3.1-7-7v-5
					C199,68.1,202.1,65,206,65z"/>
				<path id="Rectangle-Copy-7" fill="#2A2A2A" d="M7,65h60c3.9,0,7,3.1,7,7v5c0,3.9-3.1,7-7,7H7c-3.9,0-7-3.1-7-7v-5
					C0,68.1,3.1,65,7,65z"/>
				<path id="Rectangle-Copy-6" fill="#2A2A2A" d="M194,32h60c3.9,0,7,3.1,7,7v5c0,3.9-3.1,7-7,7h-60c-3.9,0-7-3.1-7-7v-5
					C187,35.1,190.1,32,194,32z"/>
				<path id="Rectangle-Copy-5" fill="#2A2A2A" d="M7,32h38c3.9,0,7,3.1,7,7v5c0,3.9-3.1,7-7,7H7c-3.9,0-7-3.1-7-7v-5
					C0,35.1,3.1,32,7,32z"/>
				<path id="Rectangle-Copy-3" fill="#2A2A2A" d="M219,0h83c3.9,0,7,3.1,7,7v5c0,3.9-3.1,7-7,7h-83c-3.9,0-7-3.1-7-7V7
					C212,3.1,215.1,0,219,0z"/>
				<path id="Rectangle-Copy-9" fill="#2A2A2A" d="M97,65h78c3.9,0,7,3.1,7,7v5c0,3.9-3.1,7-7,7H97c-3.9,0-7-3.1-7-7v-5
					C90,68.1,93.1,65,97,65z"/>
			</g>
			<g id="Group-Copy" transform="translate(0.000000, 251.000000)">
				<path id="Rectangle_1_" fill="#2288FF" d="M7,0h35c3.9,0,7,3.1,7,7v5c0,3.9-3.1,7-7,7H7c-3.9,0-7-3.1-7-7V7C0,3.1,3.1,0,7,0z"/>
				<path id="Rectangle-Copy-4_1_" fill="#2288FF" d="M55,32h42c3.9,0,7,3.1,7,7v5c0,3.9-3.1,7-7,7H55c-3.9,0-7-3.1-7-7v-5
					C48,35.1,51.1,32,55,32z"/>
				<path id="Rectangle-Copy-13" fill="#2288FF" d="M224,32h27c3.9,0,7,3.1,7,7v5c0,3.9-3.1,7-7,7h-27c-3.9,0-7-3.1-7-7v-5
					C217,35.1,220.1,32,224,32z"/>
				<path id="Rectangle-Copy_1_" fill="#2288FF" d="M71,0h60c3.9,0,7,3.1,7,7v5c0,3.9-3.1,7-7,7H71c-3.9,0-7-3.1-7-7V7
					C64,3.1,67.1,0,71,0z"/>
				<path id="Rectangle-Copy-10_1_" fill="#2288FF" d="M182,65h35c3.9,0,7,3.1,7,7v5c0,3.9-3.1,7-7,7h-35c-3.9,0-7-3.1-7-7v-5
					C175,68.1,178.1,65,182,65z"/>
				<path id="Rectangle-Copy-7_1_" fill="#2288FF" d="M7,65h42c3.9,0,7,3.1,7,7v5c0,3.9-3.1,7-7,7H7c-3.9,0-7-3.1-7-7v-5
					C0,68.1,3.1,65,7,65z"/>
				<path id="Rectangle-Copy-6_1_" fill="#2288FF" d="M129,32h15c3.9,0,7,3.1,7,7v5c0,3.9-3.1,7-7,7h-15c-3.9,0-7-3.1-7-7v-5
					C122,35.1,125.1,32,129,32z"/>
				<path id="Rectangle-Copy-12" fill="#2288FF" d="M177,32h15c3.9,0,7,3.1,7,7v5c0,3.9-3.1,7-7,7h-15c-3.9,0-7-3.1-7-7v-5
					C170,35.1,173.1,32,177,32z"/>
				<path id="Rectangle-Copy-14" fill="#2288FF" d="M245,65h15c3.9,0,7,3.1,7,7v5c0,3.9-3.1,7-7,7h-15c-3.9,0-7-3.1-7-7v-5
					C238,68.1,241.1,65,245,65z"/>
				<path id="Rectangle-Copy-2" fill="#2288FF" d="M160,0h15c3.9,0,7,3.1,7,7v5c0,3.9-3.1,7-7,7h-15c-3.9,0-7-3.1-7-7V7
					C153,3.1,156.1,0,160,0z"/>
				<path id="Rectangle-Copy-11" fill="#2288FF" d="M265,0h15c3.9,0,7,3.1,7,7v5c0,3.9-3.1,7-7,7h-15c-3.9,0-7-3.1-7-7V7
					C258,3.1,261.1,0,265,0z"/>
				<path id="Rectangle-Copy-8" fill="#2288FF" d="M78,65h15c3.9,0,7,3.1,7,7v5c0,3.9-3.1,7-7,7H78c-3.9,0-7-3.1-7-7v-5
					C71,68.1,74.1,65,78,65z"/>
				<path id="Rectangle-Copy-5_1_" fill="#2288FF" d="M7,32h15c3.9,0,7,3.1,7,7v5c0,3.9-3.1,7-7,7H7c-3.9,0-7-3.1-7-7v-5
					C0,35.1,3.1,32,7,32z"/>
				<path id="Rectangle-Copy-3_1_" fill="#2288FF" d="M204,0h32c3.9,0,7,3.1,7,7v5c0,3.9-3.1,7-7,7h-32c-3.9,0-7-3.1-7-7V7
					C197,3.1,200.1,0,204,0z"/>
				<path id="Rectangle-Copy-9_1_" fill="#2288FF" d="M121,65h32c3.9,0,7,3.1,7,7v5c0,3.9-3.1,7-7,7h-32c-3.9,0-7-3.1-7-7v-5
					C114,68.1,117.1,65,121,65z"/>
			</g>
		</g>
		<path id="Rectangle-10" fill="#2A2A2A" d="M135.1,187.7l38.5,48.4l0,0c1.7,2.2,4.9,2.5,7,0.8c0.3-0.2,0.6-0.5,0.8-0.8l38.5-48.4
			l0,0c1.7-2.2,1.4-5.3-0.8-7c-0.9-0.7-2-1.1-3.1-1.1h-17l0,0c-2.8,0-5-2.2-5-5V122l0,0c0-2.8-2.2-5-5-5h-22.6l0,0c-2.8,0-5,2.2-5,5
			v52.6h0c0,2.8-2.2,5-5,5c0,0,0,0,0,0l-17.4,0l0,0c-2.8,0-5,2.2-5,5C134,185.7,134.4,186.8,135.1,187.7z"/>
	</g>
</g>
</svg>
