<?xml version="1.0" encoding="utf-8"?>
<!-- Generator: Adobe Illustrator 22.0.1, SVG Export Plug-In . SVG Version: 6.00 Build 0)  -->
<svg version="1.1" baseProfile="tiny" id="Layer_1" xmlns="http://www.w3.org/2000/svg" xmlns:xlink="http://www.w3.org/1999/xlink"
	 x="0px" y="0px" viewBox="0 0 355 355" xml:space="preserve">
<title>Programs.CompileProgram</title>
<desc>Created with Sketch.</desc>
<g>
	<path id="Rectangle" fill="#2A2A2A" d="M30,10h83c3.9,0,7,3.1,7,7v5c0,3.9-3.1,7-7,7H30c-3.9,0-7-3.1-7-7v-5C23,13.1,26.1,10,30,10
		z"/>
	<path id="Rectangle-Copy-4" fill="#2A2A2A" d="M101,42h83c3.9,0,7,3.1,7,7v5c0,3.9-3.1,7-7,7h-83c-3.9,0-7-3.1-7-7v-5
		C94,45.1,97.1,42,101,42z"/>
	<path id="Rectangle-Copy" fill="#2A2A2A" d="M148,10h60c3.9,0,7,3.1,7,7v5c0,3.9-3.1,7-7,7h-60c-3.9,0-7-3.1-7-7v-5
		C141,13.1,144.1,10,148,10z"/>
	<path id="Rectangle-Copy-10" fill="#2A2A2A" d="M229,75h60c3.9,0,7,3.1,7,7v5c0,3.9-3.1,7-7,7h-60c-3.9,0-7-3.1-7-7v-5
		C222,78.1,225.1,75,229,75z"/>
	<path id="Rectangle-Copy-7" fill="#2A2A2A" d="M30,75h60c3.9,0,7,3.1,7,7v5c0,3.9-3.1,7-7,7H30c-3.9,0-7-3.1-7-7v-5
		C23,78.1,26.1,75,30,75z"/>
	<path id="Rectangle-Copy-6" fill="#2A2A2A" d="M217,42h60c3.9,0,7,3.1,7,7v5c0,3.9-3.1,7-7,7h-60c-3.9,0-7-3.1-7-7v-5
		C210,45.1,213.1,42,217,42z"/>
	<path id="Rectangle-Copy-5" fill="#2A2A2A" d="M30,42h38c3.9,0,7,3.1,7,7v5c0,3.9-3.1,7-7,7H30c-3.9,0-7-3.1-7-7v-5
		C23,45.1,26.1,42,30,42z"/>
	<path id="Rectangle-Copy-3" fill="#2A2A2A" d="M242,10h83c3.9,0,7,3.1,7,7v5c0,3.9-3.1,7-7,7h-83c-3.9,0-7-3.1-7-7v-5
		C235,13.1,238.1,10,242,10z"/>
	<path id="Rectangle-Copy-9" fill="#2A2A2A" d="M120,75h78c3.9,0,7,3.1,7,7v5c0,3.9-3.1,7-7,7h-78c-3.9,0-7-3.1-7-7v-5
		C113,78.1,116.1,75,120,75z"/>
	<path id="Rectangle_1_" fill="#2288FF" d="M30,261h35c3.9,0,7,3.1,7,7v5c0,3.9-3.1,7-7,7H30c-3.9,0-7-3.1-7-7v-5
		C23,264.1,26.1,261,30,261z"/>
	<path id="Rectangle-Copy-4_1_" fill="#2288FF" d="M78,293h42c3.9,0,7,3.1,7,7v5c0,3.9-3.1,7-7,7H78c-3.9,0-7-3.1-7-7v-5
		C71,296.1,74.1,293,78,293z"/>
	<path id="Rectangle-Copy-13" fill="#2288FF" d="M247,293h27c3.9,0,7,3.1,7,7v5c0,3.9-3.1,7-7,7h-27c-3.9,0-7-3.1-7-7v-5
		C240,296.1,243.1,293,247,293z"/>
	<path id="Rectangle-Copy_1_" fill="#2288FF" d="M94,261h60c3.9,0,7,3.1,7,7v5c0,3.9-3.1,7-7,7H94c-3.9,0-7-3.1-7-7v-5
		C87,264.1,90.1,261,94,261z"/>
	<path id="Rectangle-Copy-10_1_" fill="#2288FF" d="M205,326h35c3.9,0,7,3.1,7,7v5c0,3.9-3.1,7-7,7h-35c-3.9,0-7-3.1-7-7v-5
		C198,329.1,201.1,326,205,326z"/>
	<path id="Rectangle-Copy-7_1_" fill="#2288FF" d="M30,326h42c3.9,0,7,3.1,7,7v5c0,3.9-3.1,7-7,7H30c-3.9,0-7-3.1-7-7v-5
		C23,329.1,26.1,326,30,326z"/>
	<path id="Rectangle-Copy-6_1_" fill="#2288FF" d="M152,293h15c3.9,0,7,3.1,7,7v5c0,3.9-3.1,7-7,7h-15c-3.9,0-7-3.1-7-7v-5
		C145,296.1,148.1,293,152,293z"/>
	<path id="Rectangle-Copy-12" fill="#2288FF" d="M200,293h15c3.9,0,7,3.1,7,7v5c0,3.9-3.1,7-7,7h-15c-3.9,0-7-3.1-7-7v-5
		C193,296.1,196.1,293,200,293z"/>
	<path id="Rectangle-Copy-14" fill="#2288FF" d="M268,326h15c3.9,0,7,3.1,7,7v5c0,3.9-3.1,7-7,7h-15c-3.9,0-7-3.1-7-7v-5
		C261,329.1,264.1,326,268,326z"/>
	<path id="Rectangle-Copy-2" fill="#2288FF" d="M183,261h15c3.9,0,7,3.1,7,7v5c0,3.9-3.1,7-7,7h-15c-3.9,0-7-3.1-7-7v-5
		C176,264.1,179.1,261,183,261z"/>
	<path id="Rectangle-Copy-11" fill="#2288FF" d="M288,261h15c3.9,0,7,3.1,7,7v5c0,3.9-3.1,7-7,7h-15c-3.9,0-7-3.1-7-7v-5
		C281,264.1,284.1,261,288,261z"/>
	<path id="Rectangle-Copy-8" fill="#2288FF" d="M101,326h15c3.9,0,7,3.1,7,7v5c0,3.9-3.1,7-7,7h-15c-3.9,0-7-3.1-7-7v-5
		C94,329.1,97.1,326,101,326z"/>
	<path id="Rectangle-Copy-5_1_" fill="#2288FF" d="M30,293h15c3.9,0,7,3.1,7,7v5c0,3.9-3.1,7-7,7H30c-3.9,0-7-3.1-7-7v-5
		C23,296.1,26.1,293,30,293z"/>
	<path id="Rectangle-Copy-3_1_" fill="#2288FF" d="M227,261h32c3.9,0,7,3.1,7,7v5c0,3.9-3.1,7-7,7h-32c-3.9,0-7-3.1-7-7v-5
		C220,264.1,223.1,261,227,261z"/>
	<path id="Rectangle-Copy-9_1_" fill="#2288FF" d="M144,326h32c3.9,0,7,3.1,7,7v5c0,3.9-3.1,7-7,7h-32c-3.9,0-7-3.1-7-7v-5
		C137,329.1,140.1,326,144,326z"/>
	<path id="Rectangle-10" fill="#2A2A2A" d="M135.1,187.7l38.5,48.4c1.7,2.2,4.9,2.5,7,0.8c0.3-0.2,0.6-0.5,0.8-0.8l38.5-48.4
		c1.7-2.2,1.4-5.3-0.8-7c-0.9-0.7-2-1.1-3.1-1.1h-17c-2.8,0-5-2.2-5-5V122c0-2.8-2.2-5-5-5h-22.6c-2.8,0-5,2.2-5,5l0,52.6
		c0,2.8-2.2,5-5,5c0,0,0,0,0,0l-17.4,0c-2.8,0-5,2.2-5,5C134,185.7,134.4,186.8,135.1,187.7z"/>
</g>
</svg>
