<?xml version="1.0" encoding="utf-8"?>
<!-- Generator: Adobe Illustrator 22.0.1, SVG Export Plug-In . SVG Version: 6.00 Build 0)  -->
<svg version="1.1" baseProfile="tiny" id="Layer_1" xmlns="http://www.w3.org/2000/svg" xmlns:xlink="http://www.w3.org/1999/xlink"
	 x="0px" y="0px" viewBox="0 0 355 355" xml:space="preserve">
<title>Robots.Create</title>
<desc>Created with Sketch.</desc>
<g>
	
		<polyline id="Path-6" fill="none" stroke="#2288FF" stroke-width="29.925" stroke-linecap="round" stroke-linejoin="round" points="
		136.3,310 -28,141.8 138.8,33 214,117.1 	"/>
	<polyline id="Rectangle" fill="#2288FF" stroke="#2288FF" stroke-width="21.546" stroke-linejoin="round" points="76,354 76,310 
		172,310 172,354 	"/>
	
		<circle id="Oval" fill="#FFFFFF" stroke="#2288FF" stroke-width="15.3" stroke-linecap="round" stroke-linejoin="round" cx="-16.5" cy="145.5" r="23.5"/>
	
		<circle id="Oval-Copy" fill="#FFFFFF" stroke="#2288FF" stroke-width="15.3" stroke-linecap="round" stroke-linejoin="round" cx="136.5" cy="43.5" r="23.5"/>
	
		<circle id="Oval-Copy-2" fill="#FFFFFF" stroke="#2288FF" stroke-width="15.3" stroke-linecap="round" stroke-linejoin="round" cx="118.5" cy="291.5" r="23.5"/>
	<path id="_x2B_" fill="#FF6868" d="M300.9,262.6H339c3.9,0,7,3.1,7,7v17.3c0,3.9-3.1,7-7,7h-38.1v43.8c0,3.9-3.1,7-7,7h-18.7
		c-3.9,0-7-3.1-7-7v-43.8H230c-3.9,0-7-3.1-7-7v-17.3c0-3.9,3.1-7,7-7h38.2V221c0-3.9,3.1-7,7-7h18.7c3.9,0,7,3.1,7,7V262.6z"/>
	<polygon id="Page-1" fill="none" stroke="#2288FF" stroke-width="17" stroke-linecap="round" stroke-linejoin="round" points="
		193.1,159.3 232.3,196 177,162.6 253.2,89 283.6,146.5 249.4,105 	"/>
</g>
</svg>
