<?xml version="1.0" encoding="utf-8"?>
<!-- Generator: Adobe Illustrator 21.0.2, SVG Export Plug-In . SVG Version: 6.00 Build 0)  -->
<svg version="1.0" id="Layer_1" xmlns="http://www.w3.org/2000/svg" xmlns:xlink="http://www.w3.org/1999/xlink" x="0px" y="0px"
	 viewBox="0 0 355 355" enable-background="new 0 0 355 355" xml:space="preserve">
<title>SET IO NAME</title>
<desc>Created with Sketch.</desc>
<g id="v2">
	<g id="SET-IO-NAME">
		<polyline id="Rectangle" fill="#2A2A2A" stroke="#2A2A2A" stroke-width="23.7006" stroke-linejoin="round" points="77,355 77,312 
			172,312 172,355 		"/>
		<g id="Group">
			<g id="Mask">
			</g>
			<defs>
				<filter id="Adobe_OpacityMaskFilter" filterUnits="userSpaceOnUse" x="-46.4" y="17.6" width="391.6" height="321.4">
					<feColorMatrix  type="matrix" values="1 0 0 0 0  0 1 0 0 0  0 0 1 0 0  0 0 0 1 0"/>
				</filter>
			</defs>
			<mask maskUnits="userSpaceOnUse" x="-46.4" y="17.6" width="391.6" height="321.4" id="mask-2">
				<g filter="url(#Adobe_OpacityMaskFilter)">
					<rect id="path-1" fill="#FFFFFF" width="355" height="355"/>
				</g>
			</mask>
			<g mask="url(#mask-2)">
				<g transform="translate(-38.000000, 26.000000)">
					
						<polyline id="Path-6" fill="none" stroke="#2A2A2A" stroke-width="32.9175" stroke-linecap="round" stroke-linejoin="round" points="
						173.5,286 12,120.2 176.1,13 250,95.9 					"/>
					<g enable-background="new    ">
						<path fill="#FF6868" d="M333.1,273h-18.8l-7,40h-17.9l7-40h-22.2v-16.8h25.1l4.9-27.7h-22.7v-17h25.7l7.1-40.6h17.8l-7.1,40.6
							H344l7.1-40.6H369l-7.1,40.6h21.4v17h-24.4l-4.9,27.7h21.9V273H351l-7,40h-17.9L333.1,273z M317.2,256.2h18.8l4.9-27.7H322
							L317.2,256.2z"/>
					</g>
					
						<circle id="Oval" fill="#FFFFFF" stroke="#2A2A2A" stroke-width="16.83" stroke-linecap="round" stroke-linejoin="round" cx="23" cy="123" r="23"/>
					
						<circle id="Oval-Copy" fill="#FFFFFF" stroke="#2A2A2A" stroke-width="16.83" stroke-linecap="round" stroke-linejoin="round" cx="174" cy="23" r="23"/>
					
						<circle id="Oval-Copy-2" fill="#FFFFFF" stroke="#2A2A2A" stroke-width="16.83" stroke-linecap="round" stroke-linejoin="round" cx="156" cy="267" r="23"/>
					
						<polygon id="Path-2" fill="#2A2A2A" stroke="#2A2A2A" stroke-width="16.83" stroke-linecap="round" stroke-linejoin="round" points="
						232,131.7 270.9,168.1 216,134.9 291.5,62 321.7,119.1 287.7,77.9 					"/>
				</g>
			</g>
		</g>
	</g>
</g>
</svg>
