<?xml version="1.0" encoding="utf-8"?>
<!-- Generator: Adobe Illustrator 22.0.1, SVG Export Plug-In . SVG Version: 6.00 Build 0)  -->
<svg version="1.0" id="레이어_1" xmlns="http://www.w3.org/2000/svg" xmlns:xlink="http://www.w3.org/1999/xlink" x="0px"
	 y="0px" viewBox="0 0 355 355" enable-background="new 0 0 355 355" xml:space="preserve">
<title>ROBOT CREATE</title>
<desc>Created with Sketch.</desc>
<g id="v2">
	<g id="ROBOT-CREATE">
		<g id="Group-2-_x2B_-_x2B_-Mask" transform="translate(0.000000, -1.000000)">
			<g id="Mask">
			</g>
			<defs>
				<filter id="Adobe_OpacityMaskFilter" filterUnits="userSpaceOnUse" x="-47.7" y="13.4" width="341.3" height="341.6">
					<feColorMatrix  type="matrix" values="1 0 0 0 0  0 1 0 0 0  0 0 1 0 0  0 0 0 1 0"/>
				</filter>
			</defs>
			<mask maskUnits="userSpaceOnUse" x="-47.7" y="13.4" width="341.3" height="341.6" id="mask-2_1_">
				<g filter="url(#Adobe_OpacityMaskFilter)">
					<rect id="path-1_1_" fill="#FFFFFF" width="355" height="354"/>
				</g>
			</mask>
			<g id="Group-2" mask="url(#mask-2_1_)">
				<g transform="translate(-40.000000, 21.000000)">
					
						<polyline id="Path-6" fill="none" stroke="#2288FF" stroke-width="29.925" stroke-linecap="round" stroke-linejoin="round" points="
						176.3,290 12,121.8 178.8,13 254,97.1 					"/>
					<polyline id="Rectangle" fill="#2288FF" stroke="#2288FF" stroke-width="21.546" stroke-linejoin="round" points="116,334 
						116,290 212,290 212,334 					"/>
					
						<circle id="Oval" fill="#FFFFFF" stroke="#2288FF" stroke-width="15.3" stroke-linecap="round" stroke-linejoin="round" cx="23.5" cy="125.5" r="23.5"/>
					
						<circle id="Oval-Copy" fill="#FFFFFF" stroke="#2288FF" stroke-width="15.3" stroke-linecap="round" stroke-linejoin="round" cx="176.5" cy="23.5" r="23.5"/>
					
						<circle id="Oval-Copy-2" fill="#FFFFFF" stroke="#2288FF" stroke-width="15.3" stroke-linecap="round" stroke-linejoin="round" cx="158.5" cy="271.5" r="23.5"/>
					
						<polygon id="Path-2" fill="#2A2A2A" stroke="#2288FF" stroke-width="15.3" stroke-linecap="round" stroke-linejoin="round" points="
						235.2,134.4 274.7,171.4 219,137.7 295.2,64 326,121.9 291.4,80.1 					"/>
				</g>
			</g>
			<defs>
				<filter id="Adobe_OpacityMaskFilter_1_" filterUnits="userSpaceOnUse" x="223" y="215" width="123" height="130.6">
					<feColorMatrix  type="matrix" values="1 0 0 0 0  0 1 0 0 0  0 0 1 0 0  0 0 0 1 0"/>
				</filter>
			</defs>
			<mask maskUnits="userSpaceOnUse" x="223" y="215" width="123" height="130.6" id="mask-2_2_">
				<g filter="url(#Adobe_OpacityMaskFilter_1_)">
					<rect id="path-1_2_" fill="#FFFFFF" width="355" height="354"/>
				</g>
			</mask>
			<path id="_x2B_" mask="url(#mask-2_2_)" fill="#FF6868" d="M300.9,263.6H339l0,0c3.9,0,7,3.1,7,7v17.3l0,0c0,3.9-3.1,7-7,7h-38.1
				v43.8l0,0c0,3.9-3.1,7-7,7h-18.7l0,0c-3.9,0-7-3.1-7-7v-43.8H230l0,0c-3.9,0-7-3.1-7-7v-17.3l0,0c0-3.9,3.1-7,7-7h38.2V222l0,0
				c0-3.9,3.1-7,7-7h18.7l0,0c3.9,0,7,3.1,7,7V263.6z"/>
		</g>
	</g>
</g>
</svg>
