<?xml version="1.0" encoding="utf-8"?>
<!-- Generator: Adobe Illustrator 22.0.1, SVG Export Plug-In . SVG Version: 6.00 Build 0)  -->
<svg version="1.1" baseProfile="tiny" id="Layer_1" xmlns="http://www.w3.org/2000/svg" xmlns:xlink="http://www.w3.org/1999/xlink"
	 x="0px" y="0px" viewBox="0 0 355 355" xml:space="preserve">
<title>Robot.SetIOName</title>
<desc>Created with Sketch.</desc>
<g>
	<polyline id="Rectangle" fill="#2A2A2A" stroke="#2A2A2A" stroke-width="23.7006" stroke-linejoin="round" points="77,355 77,312 
		172,312 172,355 	"/>
	
		<polyline id="Path-6" fill="none" stroke="#2A2A2A" stroke-width="32.9175" stroke-linecap="round" stroke-linejoin="round" points="
		135.5,312 -26,146.2 138.1,39 212,121.9 	"/>
	<path id="_x23_" fill="#FF6868" d="M289.8,299H274l-6.5,40h-19.4l6.5-40h-21.7v-17.9h24.6l4.3-25.8h-21.6v-17.9h24.5l6.7-40.6h19.3
		l-6.6,40.6h15.7l6.7-40.6h19.4l-6.7,40.6h22.6v17.9h-25.5l-4.3,25.8h22.4V299h-25.3l-6.5,40h-19.4L289.8,299z M277,281.1h15.7
		l4.3-25.8h-15.7L277,281.1z"/>
	
		<circle id="Oval" fill="#FFFFFF" stroke="#2A2A2A" stroke-width="16.83" stroke-linecap="round" stroke-linejoin="round" cx="-15" cy="149" r="23"/>
	
		<circle id="Oval-Copy" fill="#FFFFFF" stroke="#2A2A2A" stroke-width="16.83" stroke-linecap="round" stroke-linejoin="round" cx="136" cy="49" r="23"/>
	
		<circle id="Oval-Copy-2" fill="#FFFFFF" stroke="#2A2A2A" stroke-width="16.83" stroke-linecap="round" stroke-linejoin="round" cx="118" cy="293" r="23"/>
	<polygon id="Page-1" fill="none" stroke="#2A2A2A" stroke-width="17" stroke-linecap="round" stroke-linejoin="round" points="
		193.1,159.3 232.3,196 177,162.6 253.2,89 283.6,146.5 249.4,105 	"/>
</g>
</svg>
