<?xml version="1.0" encoding="utf-8"?>
<!-- Generator: Adobe Illustrator 21.0.2, SVG Export Plug-In . SVG Version: 6.00 Build 0)  -->
<svg version="1.0" id="Layer_1" xmlns="http://www.w3.org/2000/svg" xmlns:xlink="http://www.w3.org/1999/xlink" x="0px" y="0px"
	 viewBox="0 0 355 355" enable-background="new 0 0 355 355" xml:space="preserve">
<title>VERSION</title>
<desc>Created with Sketch.</desc>
<g id="v2">
	<g id="VERSION">
		<g id="Group">
			<g id="Mask">
			</g>
			<defs>
				<filter id="Adobe_OpacityMaskFilter" filterUnits="userSpaceOnUse" x="-46.4" y="17.6" width="374.2" height="337.4">
					<feColorMatrix  type="matrix" values="1 0 0 0 0  0 1 0 0 0  0 0 1 0 0  0 0 0 1 0"/>
				</filter>
			</defs>
			<mask maskUnits="userSpaceOnUse" x="-46.4" y="17.6" width="374.2" height="337.4" id="mask-2">
				<g filter="url(#Adobe_OpacityMaskFilter)">
					<rect id="path-1" fill="#FFFFFF" width="355" height="355"/>
				</g>
			</mask>
			<g mask="url(#mask-2)">
				<g transform="translate(-38.000000, 26.000000)">
					<polyline id="Rectangle" fill="#2A2A2A" stroke="#2A2A2A" stroke-width="23.7006" stroke-linejoin="round" points="115,329 
						115,286 210,286 210,329 					"/>
					
						<polyline id="Path-6" fill="none" stroke="#2A2A2A" stroke-width="32.9175" stroke-linecap="round" stroke-linejoin="round" points="
						173.5,286 12,120.2 176.1,13 250,95.9 					"/>
					<g enable-background="new    ">
						<path fill="#2288FF" d="M269.1,261.1l14.7-53.4H306L279.2,287H259l-26.7-79.2h22.1L269.1,261.1z"/>
						<path fill="#2288FF" d="M365.8,287h-21.2v-81.6l-25.3,7.8V196l44.2-15.8h2.3V287z"/>
					</g>
					
						<circle id="Oval" fill="#FFFFFF" stroke="#2A2A2A" stroke-width="16.83" stroke-linecap="round" stroke-linejoin="round" cx="23" cy="123" r="23"/>
					
						<circle id="Oval-Copy" fill="#FFFFFF" stroke="#2A2A2A" stroke-width="16.83" stroke-linecap="round" stroke-linejoin="round" cx="174" cy="23" r="23"/>
					
						<circle id="Oval-Copy-2" fill="#FFFFFF" stroke="#2A2A2A" stroke-width="16.83" stroke-linecap="round" stroke-linejoin="round" cx="156" cy="267" r="23"/>
					
						<polygon id="Path-2" fill="#2A2A2A" stroke="#2A2A2A" stroke-width="16.83" stroke-linecap="round" stroke-linejoin="round" points="
						232.2,131.9 271.1,168.3 216.2,135.2 291.7,62.2 321.9,119.3 287.9,78.1 					"/>
				</g>
			</g>
		</g>
	</g>
</g>
</svg>
