<?xml version="1.0" encoding="utf-8"?>
<!-- Generator: Adobe Illustrator 22.0.1, SVG Export Plug-In . SVG Version: 6.00 Build 0)  -->
<svg version="1.1" baseProfile="tiny" id="Layer_1" xmlns="http://www.w3.org/2000/svg" xmlns:xlink="http://www.w3.org/1999/xlink"
	 x="0px" y="0px" viewBox="0 0 355 355" xml:space="preserve">
<title>Actions.Comment</title>
<desc>Created with Sketch.</desc>
<g>
	<polygon fill="#2A2A2A" points="42.1,262.2 16.8,262.2 70,107.8 95.3,107.8 	"/>
	<polygon fill="#2A2A2A" points="106.1,262.2 80.8,262.2 134,107.8 159.3,107.8 	"/>
	<path id="Rectangle-5" fill="#FF6868" d="M166,184h97c1.7,0,3,1.3,3,3v20c0,1.7-1.3,3-3,3h-97c-1.7,0-3-1.3-3-3v-20
		C163,185.3,164.3,184,166,184z"/>
	<path id="Rectangle-5-Copy" fill="#FF6868" d="M289,184h45c1.7,0,3,1.3,3,3v20c0,1.7-1.3,3-3,3h-45c-1.7,0-3-1.3-3-3v-20
		C286,185.3,287.3,184,289,184z"/>
</g>
</svg>
