<?xml version="1.0" encoding="utf-8"?>
<!-- Generator: Adobe Illustrator 22.0.1, SVG Export Plug-In . SVG Version: 6.00 Build 0)  -->
<svg version="1.1" baseProfile="tiny" id="Layer_1" xmlns="http://www.w3.org/2000/svg" xmlns:xlink="http://www.w3.org/1999/xlink"
	 x="0px" y="0px" viewBox="0 0 355 355" xml:space="preserve">
<title>MESSAGE</title>
<desc>Created with Sketch.</desc>
<g>
	<path id="Oval-6" fill="none" stroke="#2288FF" stroke-width="30" stroke-linecap="round" stroke-linejoin="round" d="M178.5,282.5
		c90.9,0,164.5-50.7,164.5-113.3S269.4,56,178.5,56S14,106.7,14,169.3c0,40.5,30.8,76,77.2,96c10.3,4.5-24,56.7-12.3,59.5
		C95.8,328.8,159.5,282.5,178.5,282.5z"/>
	<path id="Rectangle" fill="#2A2A2A" d="M67,125h60c3.9,0,7,3.1,7,7v8c0,3.9-3.1,7-7,7H67c-3.9,0-7-3.1-7-7v-8
		C60,128.1,63.1,125,67,125z"/>
	<path id="Rectangle-Copy-4" fill="#2A2A2A" d="M104,161h60c3.9,0,7,3.1,7,7v8c0,3.9-3.1,7-7,7h-60c-3.9,0-7-3.1-7-7v-8
		C97,164.1,100.1,161,104,161z"/>
	<path id="Rectangle-Copy" fill="#2A2A2A" d="M157,125h42c3.9,0,7,3.1,7,7v8c0,3.9-3.1,7-7,7h-42c-3.9,0-7-3.1-7-7v-8
		C150,128.1,153.1,125,157,125z"/>
	<path id="Rectangle-Copy-10" fill="#2A2A2A" d="M218,198h42c3.9,0,7,3.1,7,7v8c0,3.9-3.1,7-7,7h-42c-3.9,0-7-3.1-7-7v-8
		C211,201.1,214.1,198,218,198z"/>
	<path id="Rectangle-Copy-7" fill="#2A2A2A" d="M67,198h42c3.9,0,7,3.1,7,7v8c0,3.9-3.1,7-7,7H67c-3.9,0-7-3.1-7-7v-8
		C60,201.1,63.1,198,67,198z"/>
	<path id="Rectangle-Copy-6" fill="#2A2A2A" d="M192,161h42c3.9,0,7,3.1,7,7v8c0,3.9-3.1,7-7,7h-42c-3.9,0-7-3.1-7-7v-8
		C185,164.1,188.1,161,192,161z"/>
	<path id="Rectangle-Copy-2" fill="#2A2A2A" d="M229,125h8c3.9,0,7,3.1,7,7v8c0,3.9-3.1,7-7,7h-8c-3.9,0-7-3.1-7-7v-8
		C222,128.1,225.1,125,229,125z"/>
	<path id="Rectangle-Copy-8" fill="#2A2A2A" d="M136,198h8c3.9,0,7,3.1,7,7v8c0,3.9-3.1,7-7,7h-8c-3.9,0-7-3.1-7-7v-8
		C129,201.1,132.1,198,136,198z"/>
	<path id="Rectangle-Copy-5" fill="#2A2A2A" d="M67,161h8c3.9,0,7,3.1,7,7v8c0,3.9-3.1,7-7,7h-8c-3.9,0-7-3.1-7-7v-8
		C60,164.1,63.1,161,67,161z"/>
	<path id="Rectangle-Copy-3" fill="#2A2A2A" d="M267,125h21c3.9,0,7,3.1,7,7v8c0,3.9-3.1,7-7,7h-21c-3.9,0-7-3.1-7-7v-8
		C260,128.1,263.1,125,267,125z"/>
	<path id="Rectangle-Copy-9" fill="#2A2A2A" d="M170,198h21c3.9,0,7,3.1,7,7v8c0,3.9-3.1,7-7,7h-21c-3.9,0-7-3.1-7-7v-8
		C163,201.1,166.1,198,170,198z"/>
</g>
</svg>
