<?xml version="1.0" encoding="utf-8"?>
<!-- Generator: Adobe Illustrator 21.0.2, SVG Export Plug-In . SVG Version: 6.00 Build 0)  -->
<svg version="1.1" baseProfile="tiny" id="Layer_1" xmlns="http://www.w3.org/2000/svg" xmlns:xlink="http://www.w3.org/1999/xlink"
	 x="0px" y="0px" viewBox="0 0 355 355" xml:space="preserve">
<path fill="#FF6868" d="M343.6,322.8c3.5,4.5,3.4,11.5-0.3,15.7h-93.4c-8.1,1-13-0.2-16.5-4.7L11.4,53C7.9,48.6,8,41.5,11.7,37.3
	l92.5-0.6c8.1-0.3,14.6,2.3,18.1,6.7L343.6,322.8z"/>
<g>
	<path id="Path-3_1_" fill="none" stroke="#2288FF" stroke-width="18" stroke-linecap="round" stroke-linejoin="round" d="
		M145,151.1L81.3,62.7"/>
	<polyline id="Path-4_1_" fill="none" stroke="#2288FF" stroke-width="18" stroke-linecap="round" stroke-linejoin="round" points="
		71.8,99.1 77.3,56.9 118,65.8 	"/>
</g>
<g>
	<path id="Path-3" fill="none" stroke="#2288FF" stroke-width="18" stroke-linecap="round" stroke-linejoin="round" d="M211,225.1
		l63.8,88.4"/>
	<polyline id="Path-4" fill="none" stroke="#2288FF" stroke-width="18" stroke-linecap="round" stroke-linejoin="round" points="
		284.2,277.1 278.7,319.3 238,310.5 	"/>
</g>
<polyline id="Rectangle_4_" fill="#2A2A2A" stroke="#2A2A2A" stroke-width="12.9962" stroke-linejoin="round" points="144.6,207.3 
	144.6,175.3 219.7,176.9 219.7,208.2 "/>
<polyline id="Path-6_1_" fill="none" stroke="#2A2A2A" stroke-width="20.7939" stroke-linecap="round" stroke-linejoin="round" points="
	194.7,196.3 136,63.4 254.6,35.8 279.9,100.7 "/>
<ellipse id="Oval_1_" fill="#FFFFFF" stroke="#2A2A2A" stroke-width="11.6966" stroke-linecap="round" stroke-linejoin="round" cx="141.8" cy="68" rx="14.3" ry="14.5"/>
<ellipse id="Oval-Copy_1_" fill="#FFFFFF" stroke="#2A2A2A" stroke-width="11.6966" stroke-linecap="round" stroke-linejoin="round" cx="251" cy="41.4" rx="14.3" ry="14.5"/>
<polygon id="Page-1_1_" fill="none" stroke="#2A2A2A" stroke-width="11.6966" stroke-linecap="round" stroke-linejoin="round" points="
	259.1,120.9 273.8,150.6 249.1,119.3 308.2,92.7 313.7,132.7 302.7,101.2 "/>
</svg>
