<?xml version="1.0" encoding="utf-8"?>
<!-- Generator: Adobe Illustrator 16.0.0, SVG Export Plug-In . SVG Version: 6.00 Build 0)  -->
<!DOCTYPE svg PUBLIC "-//W3C//DTD SVG 1.1//EN" "http://www.w3.org/Graphics/SVG/1.1/DTD/svg11.dtd">
<svg version="1.1" id="Layer_1" xmlns="http://www.w3.org/2000/svg" xmlns:xlink="http://www.w3.org/1999/xlink" x="0px" y="0px"
	 width="959.98px" height="540px" viewBox="0 0 959.98 540" enable-background="new 0 0 959.98 540" xml:space="preserve">
<path id="Oval-3" fill="none" stroke="#2A2A2A" stroke-width="10" stroke-linecap="round" stroke-linejoin="round" d="
	M731.804,504.166c5.674-15.156,8.721-31.496,8.721-48.6c0-76.964-62.57-139.364-139.703-139.364
	c-77.134,0-139.702,62.4-139.702,139.364c0,16.766,2.962,32.768,8.382,47.584"/>
<path id="Stroke-3" fill="none" stroke="#2288FF" stroke-width="17" stroke-linecap="round" stroke-linejoin="round" d="
	M638.289,399.902c-10.942-9.602-25.345-15.391-41.158-15.391c-17.367,0-33.04,7.061-44.265,18.355"/>
<path fill="#2288FF" d="M651.562,384.371l-1.836,27.744c-0.211,2.754-2.541,4.801-5.224,4.59c-0.212,0-0.354-0.07-0.564-0.07
	l-27.393-4.943c-2.683-0.492-4.447-3.035-3.953-5.717c0.212-1.201,0.847-2.26,1.836-3.037l29.227-22.803
	c2.118-1.693,5.225-1.27,6.919,0.848C651.279,381.971,651.703,383.172,651.562,384.371"/>
<path id="Path-9-Copy_1_" fill="none" stroke="#2A2A2A" stroke-width="10" stroke-linecap="round" stroke-linejoin="round" d="
	M716.916,455.684h8.688"/>
<path id="Path-9_9_" fill="none" stroke="#2A2A2A" stroke-width="10" stroke-linecap="round" stroke-linejoin="round" d="
	M602.228,331.438v8.689"/>
<path id="Path-9_8_" fill="none" stroke="#2A2A2A" stroke-width="10" stroke-linecap="round" stroke-linejoin="round" d="
	M708.488,393.561l-7.559,4.345"/>
<path id="Path-9-Copy_2_" fill="none" stroke="#2A2A2A" stroke-width="10" stroke-linecap="round" stroke-linejoin="round" d="
	M478.499,455.684h8.688"/>
<path id="Path-9_10_" fill="none" stroke="#2A2A2A" stroke-width="10" stroke-linecap="round" stroke-linejoin="round" d="
	M503.174,397.905l-7.559-4.345"/>
<path id="Path-9_7_" fill="none" stroke="#2A2A2A" stroke-width="10" stroke-linecap="round" stroke-linejoin="round" d="
	M663.482,349.423l-4.345,7.56"/>
<path id="Path-9_6_" fill="none" stroke="#2A2A2A" stroke-width="10" stroke-linecap="round" stroke-linejoin="round" d="
	M540.104,349.423l4.345,7.56"/>
<path id="Path-10_1_" fill="none" stroke="#2A2A2A" stroke-width="10" stroke-linecap="round" stroke-linejoin="round" d="
	M470.365,504.166h261.438"/>
<path id="Path-11_3_" fill="none" stroke="#2A2A2A" stroke-width="10" stroke-linecap="round" stroke-linejoin="round" d="
	M584.851,459.594l-66.033-34.754"/>
<path id="Path-11_2_" fill="none" stroke="#FF6868" stroke-width="10" stroke-linecap="round" stroke-linejoin="round" d="
	M617.867,461.332l67.771-36.492"/>
<ellipse id="Oval-3_2_" fill="none" stroke="#2A2A2A" stroke-width="9.2" stroke-linecap="round" stroke-linejoin="round" cx="600.49" cy="468.717" rx="13.9" ry="14.336"/>
<path fill="none" d="M352.47,263.5l-47.04,38.41c-38.842,27.62-30.21,49.198-24.6,57.398l0.432,0.863
	c0.432,0.432,6.905,12.516,22.873,14.673c13.378,1.727,29.347-3.884,47.904-16.399h0.431l75.525-45.314
	c-21.147-4.315-40.137-18.558-52.651-30.21L352.47,263.5z M331.324,349.814c-4.747,12.084-18.558,18.125-30.642,13.378
	c-12.083-4.747-18.126-18.558-13.378-30.642c4.747-12.083,18.557-18.125,30.641-13.378S336.071,337.299,331.324,349.814z"/>
<path fill="none" d="M403.396,203.943c12.947-9.063,28.483-12.946,44.02-11.221c2.158,0.432,4.316,0.863,6.474,1.295
	c-0.863-0.863-2.157-2.158-3.452-3.021l-0.432-0.432L339.956,70.158l-6.042-6.474c-9.927-9.495-22.441-15.105-35.82-16.831
	c-20.716-2.589-41.431,4.747-55.672,19.852c-12.084,12.516-18.126,29.347-17.694,46.609s7.768,33.23,20.284,44.883l7.768,6.474
	l99.692,81.136L403.396,203.943z M345.134,122.377c-4.747,28.916-32.368,48.335-61.283,43.588
	c-9.063-1.726-16.831-5.179-23.736-10.357c-15.104-11.652-23.304-31.073-19.852-50.925c4.747-28.915,32.367-48.335,61.282-43.588
	c12.084,2.158,22.441,8.2,30.21,16.399C342.544,89.146,347.723,105.546,345.134,122.377z"/>
<path fill="none" d="M445.69,206.533c-12.084-1.295-23.736,1.295-34.095,8.631l-47.903,39.273l21.146,17.263
	c16.831,15.968,34.957,25.894,50.062,27.62c6.042,0.863,11.221,0.432,16.4-1.295l12.946-7.768c1.727-1.295,3.021-2.158,4.748-3.453
	l2.589-3.884c12.084-12.947,15.106-36.252,2.158-60.851C467.268,213.438,456.911,208.26,445.69,206.533z M470.289,260.048
	c-3.021,18.126-20.715,30.642-38.841,27.62s-30.642-20.283-27.62-38.841c3.021-18.126,20.283-30.642,38.841-27.62
	C460.794,224.659,473.31,241.922,470.289,260.048z"/>
<path fill="#2288FF" d="M442.668,221.207c-18.126-3.021-35.82,9.063-38.841,27.62c-3.021,18.126,9.063,35.819,27.62,38.841
	c18.126,3.021,35.82-9.063,38.841-27.62C473.31,241.922,460.794,224.659,442.668,221.207z"/>
<path fill="#FF6868" d="M488.414,217.322c-0.863-1.727-2.156-3.021-3.451-4.315c-6.474-11.652-15.106-22.873-25.032-31.937
	L343.839,54.189l-0.432-0.432c-12.084-11.652-27.188-18.557-44.02-20.715c-24.6-3.021-50.063,6.042-67.325,24.167
	c-14.242,15.105-22.01,35.389-21.146,56.536c0.431,21.146,9.494,40.567,25.031,54.809l105.734,85.883l-44.451,36.252
	c-34.094,24.168-44.452,52.651-27.62,75.956c1.726,3.021,11.652,18.557,33.23,21.578c16.831,2.158,36.252-4.315,57.398-18.558
	l97.534-58.693c8.2-2.589,15.105-7.769,21.579-14.242l0,0c9.494-9.063,15.968-20.715,18.558-33.662
	C500.93,246.237,497.479,230.27,488.414,217.322z M252.778,164.671l-7.768-6.474c-12.516-11.652-19.852-27.62-20.284-44.883
	s5.61-33.662,17.694-46.609c14.242-15.105,34.957-22.441,55.672-19.852c13.379,1.726,25.894,7.768,35.82,16.831l6.042,6.474
	l110.05,120.408l0.432,0.432c1.295,0.862,2.157,2.157,3.452,3.021c-2.157-0.432-4.315-0.863-6.474-1.295
	c-15.536-2.157-31.072,2.158-44.02,11.221l-50.925,41.432L252.778,164.671z M352.47,357.582L352.47,357.582
	c-18.557,12.947-34.957,18.558-48.335,16.831c-15.537-2.157-22.441-13.81-22.441-14.673l-0.863-0.432
	c-5.61-8.2-14.674-29.778,24.6-57.398l47.04-38.41l22.874,18.558c12.515,11.652,31.504,25.895,52.651,30.21L352.47,357.582z
	 M472.015,282.921l-2.59,3.884c-1.294,1.295-3.021,2.59-4.747,3.453l-12.946,7.768c-5.18,1.727-10.79,2.158-16.4,1.295
	c-15.536-2.158-33.23-11.652-50.062-27.62l-21.147-17.263l47.904-39.273c9.927-6.904,22.01-9.926,34.094-8.631
	c11.652,1.295,21.579,6.905,28.916,15.537C487.119,246.669,484.1,269.974,472.015,282.921z"/>
<path fill="#2288FF" d="M317.945,319.173c-12.084-4.747-25.894,1.295-30.641,13.378c-4.748,12.084,1.295,25.895,13.378,30.642
	c12.084,4.747,25.895-1.295,30.642-13.378C336.071,337.299,330.029,323.92,317.945,319.173z"/>
<path fill="#2288FF" d="M301.545,61.095c-28.915-4.747-56.104,14.673-61.282,43.588c-3.453,19.852,4.747,39.273,19.852,50.925
	c6.474,5.179,14.674,8.632,23.736,10.357c28.915,4.747,56.536-14.673,61.283-43.588c3.021-16.831-2.59-32.799-12.947-44.883
	C323.987,68.863,313.629,62.821,301.545,61.095z"/>
</svg>
