<?xml version="1.0" encoding="utf-8"?>
<!-- Generator: Adobe Illustrator 22.0.1, SVG Export Plug-In . SVG Version: 6.00 Build 0)  -->
<svg version="1.1" baseProfile="tiny" id="Layer_1" xmlns="http://www.w3.org/2000/svg" xmlns:xlink="http://www.w3.org/1999/xlink"
	 x="0px" y="0px" viewBox="0 0 355 355" xml:space="preserve">
<title>Actions.WriteAnalog</title>
<desc>Created with Sketch.</desc>
<g>
	<path id="Path-14" fill="none" stroke="#2A2A2A" stroke-width="34" stroke-linecap="round" stroke-linejoin="round" d="M-2,221h358
		"/>
	<path id="Path-14-Copy" fill="none" stroke="#2A2A2A" stroke-width="34" stroke-linecap="round" stroke-linejoin="round" d="
		M-2,321h358"/>
	<path id="Path-14-Copy-2" fill="none" stroke="#2A2A2A" stroke-width="34" stroke-linecap="round" stroke-linejoin="round" d="
		M79,321.5V222"/>
	<path id="Path-14-Copy-3" fill="none" stroke="#2A2A2A" stroke-width="34" stroke-linecap="round" stroke-linejoin="round" d="
		M176,321.5V222"/>
	<path id="Path-14-Copy-4" fill="none" stroke="#2A2A2A" stroke-width="34" stroke-linecap="round" stroke-linejoin="round" d="
		M273,321.5V222"/>
	<rect id="Rectangle-8" x="95" y="237" fill="#2288FF" width="64" height="68"/>
	<path id="_x7E_" fill="#FF6868" d="M308,72.7c0,12.6-1.7,24.2-5.2,34.9c-3.5,10.7-8.4,19.9-14.7,27.6c-6.3,7.7-13.8,13.7-22.7,18
		s-18.5,6.5-29.1,6.5c-6.8,0-13.2-0.6-19.2-1.9c-6-1.2-11.8-3.1-17.6-5.7c-5.7-2.6-11.4-5.8-17-9.7c-5.6-3.9-11.3-8.5-17.2-14
		c-7.6-6.2-14.9-11-21.9-14.4c-7-3.4-14.1-5.1-21.4-5.1c-4.2,0-8.2,1-12.1,3.1c-3.9,2.1-7.3,4.9-10.3,8.4s-5.4,7.5-7.2,12
		c-1.8,4.5-2.7,9.1-2.7,14L48,141.3c0-12.6,1.7-24.1,5.1-34.5s8.3-19.5,14.5-27c6.3-7.5,13.8-13.4,22.6-17.6s18.4-6.3,29-6.3
		c13.5,0,25.9,2.6,37.3,7.9s22.8,12.9,34.3,23c7.6,6.5,14.8,11.4,21.7,14.7c6.9,3.3,13.8,4.9,20.8,4.9c4.2,0,8.1-1.1,11.9-3.3
		c3.7-2.2,7-5,9.8-8.6s5-7.6,6.7-12.2c1.7-4.6,2.6-9.3,2.6-14.1L308,72.7z"/>
</g>
</svg>
