<?xml version="1.0" encoding="utf-8"?>
<!-- Generator: Adobe Illustrator 22.0.1, SVG Export Plug-In . SVG Version: 6.00 Build 0)  -->
<svg version="1.1" baseProfile="tiny" id="Layer_1" xmlns="http://www.w3.org/2000/svg" xmlns:xlink="http://www.w3.org/1999/xlink"
	 x="0px" y="0px" viewBox="0 0 355 355" xml:space="preserve">
<title>Actions.Move</title>
<desc>Created with Sketch.</desc>
<g>
	<path id="Rectangle-2" fill="#2A2A2A" d="M35,22h76c5.5,0,10,4.5,10,10v76c0,5.5-4.5,10-10,10H35c-5.5,0-10-4.5-10-10V32
		C25,26.5,29.5,22,35,22z"/>
	<path id="Rectangle-2-Copy" fill="#2288FF" d="M251,241h76c5.5,0,10,4.5,10,10v76c0,5.5-4.5,10-10,10h-76c-5.5,0-10-4.5-10-10v-76
		C241,245.5,245.5,241,251,241z"/>
	<path fill-rule="evenodd" fill="#FF6868" d="M222.6,156.6l13.5,76.7c0.5,2.7-1.3,5.3-4.1,5.8c-0.6,0.1-1.2,0.1-1.7,0l-76.6-13.5
		c-2.7-0.5-4.5-3.1-4.1-5.8c0.2-1,0.7-2,1.5-2.7l17.9-17.2c2-1.9,2-5.1,0.1-7.1c0,0,0,0-0.1-0.1l-48.8-48.8c-2-2-2-5.1,0-7.1
		l13.4-13.4c2-2,5.1-2,7.1,0l48.8,48.8c2,2,5.1,2,7.1,0c0,0,0,0,0.1-0.1l17.5-18.2c1.9-2,5.1-2,7.1-0.1
		C221.9,154.6,222.4,155.6,222.6,156.6"/>
</g>
</svg>
