<?xml version="1.0" encoding="utf-8"?>
<!-- Generator: Adobe Illustrator 22.0.1, SVG Export Plug-In . SVG Version: 6.00 Build 0)  -->
<svg version="1.1" baseProfile="tiny" id="Layer_1" xmlns="http://www.w3.org/2000/svg" xmlns:xlink="http://www.w3.org/1999/xlink"
	 x="0px" y="0px" viewBox="0 0 355 355" xml:space="preserve">
<title>Actions.Rotate</title>
<desc>Created with Sketch.</desc>
<g>
	
		<polygon id="Rectangle-4" fill="none" stroke="#FF6868" stroke-width="30" stroke-linecap="round" stroke-linejoin="round" points="
		235,30 332,117.6 332,297 235,197.9 	"/>
	
		<polygon id="Rectangle-4_1_" fill="none" stroke="#2A2A2A" stroke-width="30" stroke-linecap="round" stroke-linejoin="round" points="
		16,226 107.8,323 283,323 191.6,228.7 	"/>
	<path id="Path-21" fill="none" stroke="#FF6868" stroke-width="20" stroke-linecap="round" stroke-linejoin="round" d="M284,157.2
		V89"/>
	<path id="Path-22" fill="none" stroke="#FF6868" stroke-width="20" stroke-linecap="round" stroke-linejoin="round" d="
		M285.1,167.4l38.9,36.9"/>
	
		<circle id="Oval-7" fill="#FFFFFF" stroke="#FF6868" stroke-width="15" stroke-linecap="round" stroke-linejoin="round" cx="283.5" cy="169.5" r="14.5"/>
	<path id="Path-21_1_" fill="none" stroke="#2A2A2A" stroke-width="20" stroke-linecap="round" stroke-linejoin="round" d="
		M165.2,275.7l68.2,2.4"/>
	<path id="Path-22_1_" fill="none" stroke="#2A2A2A" stroke-width="20" stroke-linecap="round" stroke-linejoin="round" d="
		M151.9,276.4l22.6,41.9"/>
	
		<circle id="Oval-7-Copy" fill="#FFFFFF" stroke="#2A2A2A" stroke-width="15" stroke-linecap="round" stroke-linejoin="round" cx="152.9" cy="274.7" r="14.5"/>
	<path id="Stroke-1" fill="none" stroke="#2288FF" stroke-width="29" stroke-linecap="round" stroke-linejoin="round" d="
		M179.2,112.7c-26.7-10.5-57.4-10.2-85,3.3c-26.4,12.9-45,35.3-53.7,61.3"/>
	<path fill="#2288FF" d="M196.2,83l13.7,44.3c1.3,4.4-1.1,9-5.4,10.3c-0.3,0.1-0.6,0.1-0.9,0.2l-45.6,8.6c-4.5,0.8-8.7-2.1-9.6-6.5
		c-0.4-2,0-4,1-5.8l31.9-52.9c2.3-3.9,7.4-5.1,11.3-2.8C194.3,79.5,195.7,81.1,196.2,83"/>
</g>
</svg>
