<?xml version="1.0" encoding="utf-8"?>
<!-- Generator: Adobe Illustrator 21.0.2, SVG Export Plug-In . SVG Version: 6.00 Build 0)  -->
<svg version="1.1" baseProfile="tiny" id="Layer_1" xmlns="http://www.w3.org/2000/svg" xmlns:xlink="http://www.w3.org/1999/xlink"
	 x="0px" y="0px" viewBox="0 0 355 355" xml:space="preserve">
<title>Tools.Create</title>
<desc>Created with Sketch.</desc>
<polygon id="Path-2" fill="#FF6868" stroke="#FF6868" stroke-width="25" stroke-linecap="round" stroke-linejoin="round" points="
	82.8,199.1 89.3,329 49,177.7 306,177.7 262.1,329 272.2,199.1 "/>
<rect id="Rectangle-3-Copy" x="161.1" y="135" fill="#FF6868" stroke="#FF6868" stroke-width="25" stroke-linecap="round" stroke-linejoin="round" width="31.7" height="39"/>
<polyline id="Rectangle-3" fill="#2A2A2A" stroke="#2A2A2A" stroke-width="18" stroke-linejoin="round" points="193.2,0 193.2,74.6 
	161.5,74.6 161.5,0 161.5,0 "/>
<ellipse id="Oval-9" fill="none" stroke="#2A2A2A" stroke-width="18" stroke-miterlimit="10" cx="178" cy="100.9" rx="25" ry="25.1"/>
<path id="_x2B_" fill="#2288FF" d="M297.8,63.6h31.7c3.9,0,7,3.1,7,7v12.8c0,3.9-3.1,7-7,7h-31.7V127c0,3.9-3.1,7-7,7h-14
	c-3.9,0-7-3.1-7-7V90.5H238c-3.9,0-7-3.1-7-7V70.6c0-3.9,3.1-7,7-7h31.8V29c0-3.9,3.1-7,7-7h14c3.9,0,7,3.1,7,7V63.6z"/>
</svg>
