<?xml version="1.0" encoding="utf-8"?>
<!-- Generator: Adobe Illustrator 22.0.1, SVG Export Plug-In . SVG Version: 6.00 Build 0)  -->
<svg version="1.1" baseProfile="tiny" id="Layer_1" xmlns="http://www.w3.org/2000/svg" xmlns:xlink="http://www.w3.org/1999/xlink"
	 x="0px" y="0px" viewBox="0 0 355 355" xml:space="preserve">
<title>Actions.Motion</title>
<desc>Created with Sketch.</desc>
<g>
	<path id="Rectangle-2" fill="#2A2A2A" d="M27,21h65c5.5,0,10,4.5,10,10v65c0,5.5-4.5,10-10,10H27c-5.5,0-10-4.5-10-10V31
		C17,25.5,21.5,21,27,21z"/>
	<path id="Rectangle-2-Copy" fill="#2A2A2A" d="M262,21h65c5.5,0,10,4.5,10,10v65c0,5.5-4.5,10-10,10h-65c-5.5,0-10-4.5-10-10V31
		C252,25.5,256.5,21,262,21z"/>
	<path id="Rectangle-2-Copy-2" fill="#2A2A2A" d="M28,254h65c5.5,0,10,4.5,10,10v65c0,5.5-4.5,10-10,10H28c-5.5,0-10-4.5-10-10v-65
		C18,258.5,22.5,254,28,254z"/>
	<path id="Rectangle-2-Copy-3" fill="#2A2A2A" d="M263,254h65c5.5,0,10,4.5,10,10v65c0,5.5-4.5,10-10,10h-65c-5.5,0-10-4.5-10-10
		v-65C253,258.5,257.5,254,263,254z"/>
	<path id="Path-24" fill="none" stroke="#BFBFBF" stroke-width="15" stroke-linejoin="round" d="M0.6,138.9h356"/>
	<path id="Stroke-1" fill="none" stroke="#FF6868" stroke-width="25" stroke-linecap="round" stroke-linejoin="round" d="
		M122.5,69.6h99.1"/>
	<path id="Stroke-1_1_" fill="none" stroke="#FF6868" stroke-width="25" stroke-linecap="round" stroke-linejoin="round" d="
		M94.5,230.5c16.8-30.8,39.6-47.9,68.4-51.4c28.8-3.5,54.2,6.8,76.1,30.7"/>
	<path fill="#FF6868" d="M200.1,31.6L243.5,65c2.2,1.7,2.6,4.9,0.9,7c-0.3,0.3-0.6,0.6-0.8,0.8l-42.5,34.5c-2.1,1.7-5.3,1.4-7-0.7
		c-0.7-0.9-1.1-1.9-1.1-3.1L192,35.6c0-2.7,2.2-5,4.9-5.1C198.2,30.6,199.2,31,200.1,31.6"/>
	<path fill="#FF6868" d="M264.2,182.9l6.9,54.3c0.4,2.7-1.6,5.3-4.3,5.6c-0.4,0-0.8,0-1.1,0l-54.4-5.8c-2.7-0.2-4.7-2.8-4.4-5.5
		c0.1-1.1,0.6-2.1,1.4-3l47.3-48.5c1.9-2,5.1-2,7.1-0.1C263.5,180.8,264,181.8,264.2,182.9"/>
</g>
</svg>
