<?xml version="1.0" encoding="utf-8"?>
<!-- Generator: Adobe Illustrator 22.0.1, SVG Export Plug-In . SVG Version: 6.00 Build 0)  -->
<svg version="1.1" baseProfile="tiny" id="Layer_1" xmlns="http://www.w3.org/2000/svg" xmlns:xlink="http://www.w3.org/1999/xlink"
	 x="0px" y="0px" viewBox="0 0 355 355" xml:space="preserve">
<title>Actions.Axes</title>
<desc>Created with Sketch.</desc>
<g>
	<polyline id="Path-6" fill="none" stroke="#2A2A2A" stroke-width="33.25" stroke-linecap="round" stroke-linejoin="round" points="
		192.3,312 29,144.4 194.8,36 269.5,119.8 	"/>
	<polyline id="Rectangle" fill="#2A2A2A" stroke="#2A2A2A" stroke-width="23.94" stroke-linejoin="round" points="132.2,355 
		132.2,311.5 228.1,311.5 228.1,355 	"/>
	
		<circle id="Oval" fill="#FFFFFF" stroke="#FF6868" stroke-width="17" stroke-linecap="round" stroke-linejoin="round" cx="39.5" cy="147.5" r="23.5"/>
	
		<circle id="Oval-Copy" fill="#FFFFFF" stroke="#FF6868" stroke-width="17" stroke-linecap="round" stroke-linejoin="round" cx="192.5" cy="45.5" r="23.5"/>
	
		<circle id="Oval-Copy-2" fill="#FFFFFF" stroke="#FF6868" stroke-width="17" stroke-linecap="round" stroke-linejoin="round" cx="174.5" cy="292.5" r="23.5"/>
	<path id="Stroke-1" fill="none" stroke="#2288FF" stroke-width="15.5" stroke-linecap="round" stroke-linejoin="round" d="
		M228,276.8c1-13.3-3.3-26.9-13-37.4c-18.7-20-50.2-20.9-70.5-2c-5.8,5.4-10,11.8-12.7,18.7"/>
	
		<polyline id="Stroke-3" fill="none" stroke="#2288FF" stroke-width="15.5" stroke-linecap="round" stroke-linejoin="round" points="
		245.8,260.3 229.1,281.8 208.4,264.3 	"/>
	<path id="Stroke-1_1_" fill="none" stroke="#2288FF" stroke-width="15.5" stroke-linecap="round" stroke-linejoin="round" d="
		M99.2,160.4c6.6-11.6,8.4-25.8,4-39.4c-8.5-26-36.7-40.2-63.1-31.6c-7.5,2.4-14,6.5-19.4,11.5"/>
	
		<polyline id="Stroke-3_1_" fill="none" stroke="#2288FF" stroke-width="15.5" stroke-linecap="round" stroke-linejoin="round" points="
		122.2,152.7 98.3,165.5 86.5,141.1 	"/>
	<path id="Stroke-5" fill="none" stroke="#2288FF" stroke-width="15.5" stroke-linecap="round" stroke-linejoin="round" d="
		M234.9,86.3c-4.9,12.4-14.8,22.8-28.1,27.9c-25.5,9.8-54.3-3.2-64.3-29.1c-2.8-7.4-3.8-15-3.2-22.3"/>
	
		<polyline id="Stroke-7" fill="none" stroke="#2288FF" stroke-width="15.5" stroke-linecap="round" stroke-linejoin="round" points="
		243.6,108.9 238.1,82.3 211.8,89 	"/>
	<polygon id="Page-1_2_" fill="none" stroke="#2A2A2A" stroke-width="17" stroke-linecap="round" stroke-linejoin="round" points="
		250.1,156.3 289.3,193 234,159.6 310.2,86 340.6,143.5 306.4,102 	"/>
</g>
</svg>
