<?xml version="1.0" encoding="utf-8"?>
<!-- Generator: Adobe Illustrator 16.0.0, SVG Export Plug-In . SVG Version: 6.00 Build 0)  -->
<!DOCTYPE svg PUBLIC "-//W3C//DTD SVG 1.1//EN" "http://www.w3.org/Graphics/SVG/1.1/DTD/svg11.dtd">
<svg version="1.1" id="Layer_1" xmlns="http://www.w3.org/2000/svg" xmlns:xlink="http://www.w3.org/1999/xlink" x="0px" y="0px"
	 width="959.98px" height="540px" viewBox="0 0 959.98 540" enable-background="new 0 0 959.98 540" xml:space="preserve">
<g>
	<rect x="419.379" y="255.121" fill="#2288FF" width="74.393" height="14.878"/>
	<rect x="270.379" y="143.121" fill="#2288FF" width="74.393" height="14.878"/>
	<rect x="371.379" y="143.121" fill="#2288FF" width="74.393" height="14.878"/>
	<rect x="472.379" y="143.121" fill="#2288FF" width="74.393" height="14.878"/>
	<rect x="572.379" y="143.121" fill="#2288FF" width="74.393" height="14.878"/>
	<rect x="270.379" y="170.533" fill="#2288FF" width="74.393" height="14.878"/>
	<rect x="371.379" y="170.533" fill="#2288FF" width="74.393" height="14.878"/>
	<rect x="472.379" y="170.533" fill="#2288FF" width="74.393" height="14.878"/>
	<rect x="572.379" y="170.533" fill="#2288FF" width="74.393" height="14.878"/>
	<rect x="270.379" y="200.028" fill="#2288FF" width="74.393" height="14.878"/>
	<rect x="371.379" y="200.028" fill="#2288FF" width="74.393" height="14.878"/>
	<rect x="472.379" y="200.028" fill="#2288FF" width="74.393" height="14.878"/>
	<rect x="572.379" y="200.028" fill="#2288FF" width="74.393" height="14.878"/>
	<path id="_x2B_" fill="#FF6868" d="M693.506,98.542h34.229c3.504,0,6.287,2.783,6.287,6.287v15.543
		c0,3.504-2.783,6.287-6.287,6.287h-34.229v39.35c0,3.504-2.785,6.289-6.289,6.289h-16.799c-3.504,0-6.289-2.785-6.289-6.289v-39.35
		h-34.318c-3.504,0-6.289-2.783-6.289-6.287V104.83c0-3.504,2.785-6.287,6.289-6.287h34.318V61.169c0-3.504,2.785-6.289,6.289-6.289
		h16.799c3.504,0,6.289,2.785,6.289,6.289V98.542z"/>
	<path d="M682.825,195.599c-3.563,0-7.064-0.245-10.512-0.671v89.951h-29.757v-7.439c0-5.953-2.32-11.56-6.532-15.779
		c-6.264-6.271-16.001-7.863-24.051-4.807c-0.996-3.763-2.879-7.246-5.706-10.072c-6.264-6.271-16.001-7.863-24.051-4.806
		c-0.996-3.764-2.879-7.246-5.706-10.072c-8.429-8.436-23.144-8.436-31.572,0c-2.827,2.826-4.708,6.308-5.706,10.072
		c-8.05-3.057-17.786-1.465-24.051,4.806c-4.212,4.219-6.532,9.826-6.532,15.778v22.318H404.501v-22.318
		c0-5.958-2.322-11.568-6.54-15.778c-6.264-6.271-16.001-7.863-24.043-4.806c-0.997-3.764-2.879-7.246-5.714-10.072
		c-8.429-8.436-23.128-8.436-31.557,0c-2.827,2.826-4.717,6.308-5.714,10.072c-8.05-3.057-17.779-1.465-24.043,4.806
		c-2.828,2.826-4.717,6.309-5.714,10.072c-8.05-3.057-17.779-1.464-24.044,4.807c-4.219,4.21-6.539,9.82-6.539,15.779v7.439h-29.757
		V121.215h357.751c-0.427-3.451-0.673-6.959-0.673-10.526c0-1.46,0.037-2.911,0.11-4.353H464.015v-7.439
		c0-5.958-2.328-11.567-6.539-15.778c-4.211-4.219-9.82-6.54-15.778-6.54h-44.636c-1.987,0-3.854-0.774-5.26-2.18
		c-1.406-1.407-2.18-3.273-2.18-5.26s0.773-3.853,2.18-5.26c1.406-1.406,3.272-2.18,5.26-2.18h89.271
		c5.966,0,11.575-2.329,15.786-6.539c4.211-4.21,6.531-9.827,6.531-15.778v-7.439h-14.878v7.439c0,1.987-0.774,3.853-2.187,5.267
		c-1.4,1.398-3.26,2.172-5.253,2.172h-89.271c-5.959,0-11.568,2.321-15.778,6.54c-4.218,4.21-6.54,9.82-6.54,15.778
		c0,5.958,2.322,11.568,6.54,15.778c4.21,4.219,9.819,6.54,15.778,6.54h44.636c1.986,0,3.853,0.774,5.26,2.179
		c1.405,1.407,2.179,3.273,2.179,5.26v7.439H240.837c-3.973,0-7.707,1.548-10.52,4.359c-2.812,2.813-4.359,6.547-4.359,10.52
		v163.664c0,3.965,1.548,7.699,4.353,10.51c2.805,2.82,6.546,4.367,10.526,4.367h29.757v75.748l22.317,59.514v15.586
		c-1.101,0.646-2.165,1.383-3.086,2.313c-2.806,2.805-4.353,6.539-4.353,10.504v44.637h14.878V463.42h89.271v44.637h14.879V463.42
		c0-3.965-1.548-7.699-4.353-10.51c-0.931-0.93-1.986-1.666-3.087-2.314v-13.934c8.339-8.854,37.196-41.555,37.196-69.795v-37.354
		c0-5.967-2.328-11.574-6.54-15.787c-6.063-6.055-15.339-7.684-23.217-5.035v-8.936h104.148v8.943
		c-7.885-2.648-17.162-1.027-23.217,5.037c-4.212,4.209-6.539,9.818-6.539,15.777v37.354c0,28.24,28.856,60.936,37.195,69.795
		v13.934c-1.101,0.648-2.156,1.385-3.08,2.305c-2.811,2.814-4.359,6.549-4.359,10.52v44.637h14.879V463.42H612.8v44.637h14.879
		V463.42c0-3.971-1.549-7.705-4.359-10.52c-0.924-0.92-1.979-1.656-3.08-2.305v-15.584l22.317-59.516v-75.74h29.757
		c3.973,0,7.707-1.547,10.52-4.357c2.812-2.813,4.359-6.547,4.359-10.52v-89.39C685.746,195.562,684.29,195.599,682.825,195.599z
		 M406.673,324.262c2.819-2.82,7.707-2.82,10.526,0c1.406,1.398,2.18,3.26,2.18,5.252v37.354c0,21.699-25.278,51.777-35.024,61.529
		l-2.172,2.188v17.959H307.79v-16.234l-22.317-59.514v-95.355c0-1.986,0.773-3.854,2.179-5.26c2.813-2.813,7.708-2.813,10.52,0
		c1.406,1.406,2.18,3.273,2.18,5.26v44.635h14.879v-44.635v-14.879c0-1.987,0.773-3.853,2.18-5.259c2.812-2.813,7.707-2.813,10.52,0
		c1.405,1.406,2.179,3.272,2.179,5.259v59.514h14.879v-59.514v-14.878c0-1.987,0.774-3.853,2.18-5.259
		c2.813-2.813,7.707-2.813,10.52,0c1.405,1.407,2.18,3.272,2.18,5.259v14.878v59.514h14.878v-59.514c0-1.987,0.774-3.853,2.18-5.259
		c2.813-2.813,7.707-2.813,10.52,0c1.405,1.406,2.18,3.272,2.18,5.259v96.711h14.879v-29.758
		C404.501,327.521,405.274,325.66,406.673,324.262z M627.679,372.795l-22.318,59.514v16.234h-74.393v-17.959l-2.18-2.18
		c-9.738-9.76-35.017-39.838-35.017-61.537v-37.354c0-1.986,0.774-3.854,2.18-5.258c2.819-2.805,7.699-2.805,10.52,0
		c1.405,1.404,2.179,3.271,2.179,5.258v29.758h14.879v-96.711c0-1.987,0.773-3.853,2.188-5.268c2.805-2.805,7.699-2.805,10.504,0
		c1.414,1.415,2.188,3.281,2.188,5.268v59.514h14.879v-59.514v-14.878c0-1.987,0.773-3.853,2.187-5.267
		c2.805-2.805,7.7-2.805,10.505,0c1.412,1.415,2.187,3.28,2.187,5.267v14.878v59.514h14.878v-59.514
		c0-1.987,0.774-3.853,2.188-5.268c2.805-2.805,7.699-2.805,10.504,0c1.414,1.415,2.188,3.281,2.188,5.268v14.879v44.635H612.8
		v-44.635c0-1.986,0.773-3.854,2.188-5.268c2.805-2.805,7.699-2.805,10.504,0c1.413,1.414,2.188,3.281,2.188,5.268V372.795z"/>
</g>
</svg>
