<?xml version="1.0" encoding="utf-8"?>
<!-- Generator: Adobe Illustrator 16.0.0, SVG Export Plug-In . SVG Version: 6.00 Build 0)  -->
<!DOCTYPE svg PUBLIC "-//W3C//DTD SVG 1.1//EN" "http://www.w3.org/Graphics/SVG/1.1/DTD/svg11.dtd">
<svg version="1.1" id="Layer_1" xmlns="http://www.w3.org/2000/svg" xmlns:xlink="http://www.w3.org/1999/xlink" x="0px" y="0px"
	 width="959.98px" height="540px" viewBox="0 0 959.98 540" enable-background="new 0 0 959.98 540" xml:space="preserve">
<path id="Path-9-Copy" fill="none" stroke="#2A2A2A" stroke-width="10" stroke-linecap="round" stroke-linejoin="round" d="
	M707.108,452.555h8.688"/>
<path id="Path-9_2_" fill="none" stroke="#2A2A2A" stroke-width="10" stroke-linecap="round" stroke-linejoin="round" d="
	M592.42,328.309v8.689"/>
<path id="Path-9_3_" fill="none" stroke="#2A2A2A" stroke-width="10" stroke-linecap="round" stroke-linejoin="round" d="
	M698.681,390.432l-7.559,4.344"/>
<path id="Path-9_4_" fill="none" stroke="#2A2A2A" stroke-width="10" stroke-linecap="round" stroke-linejoin="round" d="
	M653.675,346.293l-4.345,7.561"/>
<path id="Path-9_5_" fill="none" stroke="#2A2A2A" stroke-width="10" stroke-linecap="round" stroke-linejoin="round" d="
	M530.297,346.293l4.345,7.561"/>
<path id="Path-10" fill="none" stroke="#2A2A2A" stroke-width="12" stroke-linecap="round" stroke-linejoin="round" d="
	M457.139,501.037h267.347"/>
<path id="Path-11" fill="none" stroke="#2A2A2A" stroke-width="10" stroke-linecap="round" stroke-linejoin="round" d="
	M575.043,456.465l-66.033-34.754"/>
<path id="Path-11_1_" fill="none" stroke="#FF6868" stroke-width="10" stroke-linecap="round" stroke-linejoin="round" d="
	M608.06,458.203l67.771-36.492"/>
<ellipse id="Oval-3_1_" fill="none" stroke="#2A2A2A" stroke-width="9.2" stroke-linecap="round" stroke-linejoin="round" cx="590.683" cy="465.588" rx="13.9" ry="14.336"/>
<path fill="#2288FF" d="M629.106,366.045l25.068,23.295c2.465,2.34,2.61,6.154,0.325,8.551c-0.164,0.203-0.341,0.283-0.506,0.484
	l-25.987,22.318c-2.555,2.178-6.353,1.891-8.53-0.664c-0.981-1.135-1.499-2.563-1.474-4.111l0.92-45.613
	c0.027-3.338,2.843-5.975,6.181-5.947C626.596,364.451,628.071,364.977,629.106,366.045"/>
<line fill="none" stroke="#2288FF" stroke-width="17" stroke-linecap="round" stroke-linejoin="round" x1="408.58" y1="366.51" x2="517.601" y2="366.51"/>
<line fill="none" stroke="#2288FF" stroke-width="17" stroke-linecap="round" stroke-linejoin="round" x1="383.904" y1="401.293" x2="492.926" y2="401.293"/>
<line fill="none" stroke="#2288FF" stroke-width="17" stroke-linecap="round" stroke-linejoin="round" x1="363.92" y1="439.088" x2="472.941" y2="439.088"/>
<path fill="none" stroke="#2A2A2A" stroke-width="12" stroke-linecap="round" stroke-linejoin="round" d="M448.822,464.355
	c1.155,12.334,3.877,24.188,7.97,35.379l269.171,1.041c5.821-15.553,8.949-32.32,8.949-49.871
	c0-78.979-64.208-143.014-143.36-143.014c-31.926,0-61.416,10.422-85.247,28.035"/>
<line fill="none" stroke="#2288FF" stroke-width="17" stroke-linecap="round" stroke-linejoin="round" x1="635.429" y1="393.408" x2="556.274" y2="393.408"/>
<path fill="none" d="M342.663,260.371l-47.04,38.411c-38.842,27.619-30.21,49.197-24.6,57.398l0.432,0.863
	c0.432,0.432,6.905,12.516,22.873,14.672c13.378,1.727,29.347-3.883,47.904-16.398h0.431l75.525-45.314
	c-21.147-4.316-40.137-18.559-52.651-30.211L342.663,260.371z M321.516,346.686c-4.747,12.084-18.558,18.125-30.642,13.377
	c-12.083-4.746-18.126-18.557-13.378-30.641c4.747-12.084,18.557-18.125,30.641-13.379
	C320.221,320.791,326.263,334.17,321.516,346.686z"/>
<path fill="none" d="M393.588,200.814c12.947-9.063,28.483-12.946,44.02-11.221c2.158,0.432,4.316,0.863,6.474,1.295
	c-0.863-0.863-2.157-2.158-3.452-3.021l-0.432-0.432L330.148,67.028l-6.042-6.474c-9.927-9.495-22.441-15.105-35.82-16.831
	c-20.716-2.589-41.431,4.747-55.672,19.852c-12.084,12.516-18.126,29.347-17.694,46.609s7.768,33.23,20.284,44.883l7.768,6.474
	l99.692,81.136L393.588,200.814z M335.327,119.248c-4.747,28.916-32.368,48.335-61.283,43.588
	c-9.063-1.726-16.831-5.179-23.736-10.357c-15.104-11.652-23.304-31.073-19.852-50.925c4.747-28.915,32.367-48.335,61.282-43.588
	c12.084,2.158,22.441,8.2,30.21,16.399C332.737,86.017,337.916,102.417,335.327,119.248z"/>
<path fill="none" d="M435.882,203.404c-12.084-1.295-23.736,1.295-34.095,8.631l-47.903,39.273l21.146,17.263
	c16.831,15.968,34.957,25.894,50.062,27.621c6.042,0.863,11.221,0.432,16.4-1.295l12.946-7.768c1.727-1.295,3.021-2.158,4.748-3.453
	l2.589-3.885c12.084-12.947,15.105-36.251,2.158-60.85C457.46,210.309,447.103,205.13,435.882,203.404z M460.481,256.918
	c-3.021,18.126-20.715,30.642-38.841,27.621s-30.642-20.284-27.62-38.841c3.021-18.126,20.283-30.642,38.841-27.62
	C450.987,221.53,463.502,238.792,460.481,256.918z"/>
<path fill="none" stroke="#2A2A2A" stroke-width="9.2" stroke-linecap="round" stroke-linejoin="round" d="M432.861,218.078
	c-18.126-3.021-35.82,9.063-38.841,27.62c-3.021,18.126,9.063,35.82,27.62,38.841c18.126,3.021,35.82-9.063,38.841-27.621
	C463.502,238.792,450.987,221.53,432.861,218.078z"/>
<path fill="#FF6868" d="M478.607,214.193c-0.863-1.727-2.157-3.021-3.452-4.315c-6.474-11.652-15.105-22.873-25.031-31.937
	L334.032,51.06l-0.432-0.432c-12.084-11.652-27.188-18.557-44.02-20.715c-24.6-3.021-50.063,6.042-67.325,24.167
	c-14.242,15.105-22.01,35.389-21.146,56.536c0.431,21.146,9.494,40.567,25.031,54.809l105.734,85.883l-44.451,36.252
	c-34.094,24.168-44.452,52.65-27.62,75.955c1.726,3.021,11.652,18.557,33.23,21.578c16.831,2.158,36.252-4.314,57.398-18.557
	l97.534-58.693c8.2-2.59,15.105-7.77,21.579-14.242l0,0c9.494-9.063,15.967-20.715,18.557-33.663
	C491.123,243.108,487.67,227.14,478.607,214.193z M242.971,161.542l-7.768-6.474c-12.516-11.652-19.852-27.62-20.284-44.883
	s5.61-33.662,17.694-46.609c14.242-15.105,34.957-22.441,55.672-19.852c13.379,1.726,25.894,7.768,35.82,16.831l6.042,6.474
	l110.05,120.408l0.432,0.432c1.295,0.862,2.157,2.157,3.452,3.021c-2.157-0.432-4.315-0.863-6.474-1.295
	c-15.536-2.157-31.072,2.158-44.02,11.221l-50.925,41.432L242.971,161.542z M342.663,354.453L342.663,354.453
	c-18.557,12.947-34.957,18.557-48.335,16.83c-15.537-2.156-22.441-13.809-22.441-14.672l-0.863-0.432
	c-5.61-8.201-14.674-29.779,24.6-57.398l47.04-38.411l22.874,18.557c12.515,11.652,31.504,25.895,52.651,30.211L342.663,354.453z
	 M462.208,279.791l-2.59,3.885c-1.294,1.295-3.021,2.59-4.747,3.453l-12.946,7.768c-5.18,1.727-10.79,2.158-16.4,1.295
	c-15.536-2.158-33.23-11.652-50.062-27.621l-21.147-17.263l47.904-39.273c9.927-6.904,22.01-9.926,34.094-8.631
	c11.652,1.295,21.579,6.905,28.916,15.537C477.312,243.54,474.292,266.844,462.208,279.791z"/>
<path fill="none" stroke="#2A2A2A" stroke-width="9.2" stroke-linecap="round" stroke-linejoin="round" d="M308.137,316.043
	c-12.084-4.746-25.894,1.295-30.641,13.379c-4.748,12.084,1.295,25.895,13.378,30.641c12.084,4.748,25.895-1.295,30.642-13.377
	C326.263,334.17,320.221,320.791,308.137,316.043z"/>
<path fill="none" stroke="#2A2A2A" stroke-width="9.2" stroke-linecap="round" stroke-linejoin="round" d="M291.738,57.965
	c-28.915-4.747-56.104,14.673-61.282,43.588c-3.453,19.852,4.747,39.273,19.852,50.925c6.474,5.179,14.674,8.632,23.736,10.357
	c28.915,4.747,56.536-14.673,61.283-43.588c3.021-16.831-2.59-32.799-12.947-44.883C314.179,65.733,303.822,59.691,291.738,57.965z"
	/>
</svg>
