<?xml version="1.0" encoding="utf-8"?>
<!-- Generator: Adobe Illustrator 22.0.1, SVG Export Plug-In . SVG Version: 6.00 Build 0)  -->
<svg version="1.1" baseProfile="tiny" id="Layer_1" xmlns="http://www.w3.org/2000/svg" xmlns:xlink="http://www.w3.org/1999/xlink"
	 x="0px" y="0px" viewBox="0 0 355 355" xml:space="preserve">
<title>Actions.PushSettings</title>
<desc>Created with Sketch.</desc>
<g>
	<path id="Rectangle-10" fill="#2288FF" d="M125.5,249.6l47.4-67.8c1.6-2.3,4.7-2.8,7-1.2c0.5,0.3,0.9,0.8,1.2,1.2l47.4,67.8
		c1.6,2.3,1,5.4-1.2,7c-0.8,0.6-1.8,0.9-2.9,0.9h-23.2c-2.8,0-5,2.2-5,5v73c0,2.8-2.2,5-5,5h-28c-2.8,0-5-2.2-5-5l0-73
		c0-2.8-2.2-5-5-5c0,0,0,0,0,0l-23.7,0c-2.8,0-5-2.2-5-5C124.6,251.5,124.9,250.5,125.5,249.6z"/>
	<path id="Rectangle" fill="#2A2A2A" d="M30,30h83c3.9,0,7,3.1,7,7v15c0,3.9-3.1,7-7,7H30c-3.9,0-7-3.1-7-7V37
		C23,33.1,26.1,30,30,30z"/>
	<path id="Rectangle-Copy-4" fill="#2A2A2A" d="M78.5,78h83c3.9,0,7,3.1,7,7v15c0,3.9-3.1,7-7,7h-83c-3.9,0-7-3.1-7-7V85
		C71.5,81.1,74.6,78,78.5,78z"/>
	<path id="Rectangle-Copy" fill="#2A2A2A" d="M148,30h60c3.9,0,7,3.1,7,7v15c0,3.9-3.1,7-7,7h-60c-3.9,0-7-3.1-7-7V37
		C141,33.1,144.1,30,148,30z"/>
	<path id="Rectangle-Copy-10" fill="#2A2A2A" d="M228,126h60c3.9,0,7,3.1,7,7v15c0,3.9-3.1,7-7,7h-60c-3.9,0-7-3.1-7-7v-15
		C221,129.1,224.1,126,228,126z"/>
	<path id="Rectangle-Copy-7" fill="#2A2A2A" d="M30,126h60c3.9,0,7,3.1,7,7v15c0,3.9-3.1,7-7,7H30c-3.9,0-7-3.1-7-7v-15
		C23,129.1,26.1,126,30,126z"/>
	<path id="Rectangle-Copy-6" fill="#2A2A2A" d="M195,78h60c3.9,0,7,3.1,7,7v15c0,3.9-3.1,7-7,7h-60c-3.9,0-7-3.1-7-7V85
		C188,81.1,191.1,78,195,78z"/>
	<path id="Rectangle-Copy-2" fill="#2A2A2A" d="M243,30h15c3.9,0,7,3.1,7,7v15c0,3.9-3.1,7-7,7h-15c-3.9,0-7-3.1-7-7V37
		C236,33.1,239.1,30,243,30z"/>
	<path id="Rectangle-Copy-8" fill="#2A2A2A" d="M120.3,126h15c3.9,0,7,3.1,7,7v15c0,3.9-3.1,7-7,7h-15c-3.9,0-7-3.1-7-7v-15
		C113.3,129.1,116.5,126,120.3,126z"/>
	<path id="Rectangle-Copy-5" fill="#2A2A2A" d="M30,78h15c3.9,0,7,3.1,7,7v15c0,3.9-3.1,7-7,7H30c-3.9,0-7-3.1-7-7V85
		C23,81.1,26.1,78,30,78z"/>
	<path id="Rectangle-Copy-3" fill="#2A2A2A" d="M293,30h32c3.9,0,7,3.1,7,7v15c0,3.9-3.1,7-7,7h-32c-3.9,0-7-3.1-7-7V37
		C286,33.1,289.1,30,293,30z"/>
	<path id="Rectangle-Copy-9" fill="#2A2A2A" d="M165.7,126h32c3.9,0,7,3.1,7,7v15c0,3.9-3.1,7-7,7h-32c-3.9,0-7-3.1-7-7v-15
		C158.7,129.1,161.8,126,165.7,126z"/>
</g>
</svg>
