<?xml version="1.0" encoding="utf-8"?>
<!-- Generator: Adobe Illustrator 16.0.0, SVG Export Plug-In . SVG Version: 6.00 Build 0)  -->
<!DOCTYPE svg PUBLIC "-//W3C//DTD SVG 1.1//EN" "http://www.w3.org/Graphics/SVG/1.1/DTD/svg11.dtd">
<svg version="1.1" id="Layer_1" xmlns="http://www.w3.org/2000/svg" xmlns:xlink="http://www.w3.org/1999/xlink" x="0px" y="0px"
	 width="959.98px" height="540px" viewBox="0 0 959.98 540" enable-background="new 0 0 959.98 540" xml:space="preserve">
<path id="Oval-3" fill="none" stroke="#2A2A2A" stroke-width="10" stroke-linecap="round" stroke-linejoin="round" d="
	M584.284,302.472c4.519-12.068,6.944-25.08,6.944-38.697c0-61.284-49.821-110.97-111.238-110.97
	c-61.418,0-111.238,49.687-111.238,110.97c0,13.35,2.359,26.09,6.674,37.889"/>
<path id="Stroke-3" fill="none" stroke="#2288FF" stroke-width="17" stroke-linecap="round" stroke-linejoin="round" d="
	M509.824,219.451c-8.714-7.646-20.181-12.255-32.772-12.255c-13.829,0-26.309,5.622-35.246,14.614"/>
<path fill="#2288FF" d="M520.392,207.083l-1.462,22.091c-0.168,2.191-2.023,3.822-4.158,3.654c-0.17,0-0.281-0.057-0.449-0.057
	l-21.812-3.936c-2.137-0.393-3.541-2.417-3.148-4.552c0.168-0.956,0.674-1.799,1.463-2.418l23.271-18.156
	c1.686-1.348,4.16-1.011,5.508,0.675C520.168,205.172,520.505,206.129,520.392,207.083"/>
<path fill="#FF6868" d="M677.438,127.343l-3.454,52.195c-0.396,5.178-4.78,9.031-9.824,8.634c-0.401,0-0.665-0.134-1.062-0.134
	l-51.534-9.299c-5.048-0.927-8.366-5.709-7.438-10.755c0.396-2.259,1.592-4.25,3.456-5.713l54.983-42.898
	c3.982-3.185,9.829-2.388,13.014,1.594C676.91,122.827,677.706,125.087,677.438,127.343"/>
<path fill="#FF6868" d="M268.657,397.656l10.994-51.141c1.144-5.065,6.041-8.242,10.974-7.117c0.397,0.058,0.638,0.229,1.031,0.287
	l49.639,16.681c4.86,1.649,7.449,6.863,5.798,11.721c-0.72,2.178-2.192,3.974-4.249,5.15L282.216,407.7
	c-4.402,2.573-10.072,0.937-12.645-3.467C268.524,402.201,268.065,399.849,268.657,397.656"/>
<path id="Path-9-Copy_1_" fill="none" stroke="#2A2A2A" stroke-width="10" stroke-linecap="round" stroke-linejoin="round" d="
	M572.431,263.866h6.918"/>
<path id="Path-9_9_" fill="none" stroke="#2A2A2A" stroke-width="10" stroke-linecap="round" stroke-linejoin="round" d="
	M481.11,164.936v6.919"/>
<path id="Path-9_8_" fill="none" stroke="#2A2A2A" stroke-width="10" stroke-linecap="round" stroke-linejoin="round" d="
	M565.721,214.401l-6.019,3.459"/>
<path id="Path-9-Copy_2_" fill="none" stroke="#2A2A2A" stroke-width="10" stroke-linecap="round" stroke-linejoin="round" d="
	M382.591,263.866h6.918"/>
<path id="Path-9_10_" fill="none" stroke="#2A2A2A" stroke-width="10" stroke-linecap="round" stroke-linejoin="round" d="
	M402.238,217.86l-6.019-3.459"/>
<path id="Path-9_7_" fill="none" stroke="#2A2A2A" stroke-width="10" stroke-linecap="round" stroke-linejoin="round" d="
	M529.885,179.256l-3.461,6.019"/>
<path id="Path-9_6_" fill="none" stroke="#2A2A2A" stroke-width="10" stroke-linecap="round" stroke-linejoin="round" d="
	M431.645,179.256l3.459,6.019"/>
<path id="Path-10_1_" fill="none" stroke="#2A2A2A" stroke-width="10" stroke-linecap="round" stroke-linejoin="round" d="
	M376.114,302.472h208.17"/>
<path id="Path-11_3_" fill="none" stroke="#2A2A2A" stroke-width="10" stroke-linecap="round" stroke-linejoin="round" d="
	M467.273,266.981l-52.579-27.672"/>
<path id="Path-11_2_" fill="none" stroke="#FF6868" stroke-width="10" stroke-linecap="round" stroke-linejoin="round" d="
	M493.563,268.364l53.962-29.055"/>
<ellipse id="Oval-3_2_" fill="none" stroke="#2A2A2A" stroke-width="9.2" stroke-linecap="round" stroke-linejoin="round" cx="479.991" cy="270" rx="11.07" ry="11.415"/>
<path fill="none" stroke="#FF6868" stroke-width="20" stroke-linecap="round" stroke-linejoin="round" d="M656.118,162.167
	C619.807,102.984,554.514,63.5,479.99,63.5c-112.123,0-203.37,89.362-206.417,200.749"/>
<path fill="none" stroke="#FF6868" stroke-width="20" stroke-linecap="round" stroke-linejoin="round" d="M307.993,384.295
	c37.006,55.577,100.22,92.205,171.998,92.205c107.065,0,195.095-81.481,205.472-185.815"/>
</svg>
