<?xml version="1.0" encoding="utf-8"?>
<!-- Generator: Adobe Illustrator 16.0.0, SVG Export Plug-In . SVG Version: 6.00 Build 0)  -->
<!DOCTYPE svg PUBLIC "-//W3C//DTD SVG 1.1//EN" "http://www.w3.org/Graphics/SVG/1.1/DTD/svg11.dtd">
<svg version="1.1" id="Layer_1" xmlns="http://www.w3.org/2000/svg" xmlns:xlink="http://www.w3.org/1999/xlink" x="0px" y="0px"
	 width="959.98px" height="540px" viewBox="0 0 959.98 540" enable-background="new 0 0 959.98 540" xml:space="preserve">
<path fill="#3399FF" d="M679.469,497.98c4.564,4.804,4.371,12.399-0.433,16.965l-120.825-0.01
	c-10.545,1.052-16.77-0.236-21.335-5.04l-287.29-302.892c-4.565-4.804-4.372-12.399,0.432-16.965l119.64-0.636
	c10.497-0.358,18.862,2.428,23.428,7.232L679.469,497.98z"/>
<path fill="#FF6868" d="M347.451,275.179l2.202-43.99c0.264-4.367,3.9-7.668,8.156-7.4c0.335-0.006,0.561,0.102,0.896,0.099
	l43.51,7.128c4.262,0.715,7.123,4.696,6.409,8.956c-0.305,1.907-1.285,3.601-2.831,4.856l-45.712,36.86
	c-3.312,2.737-8.241,2.145-10.979-1.165C347.96,278.974,347.257,277.084,347.451,275.179"/>
<path id="_x2B_" fill="#FF6868" d="M647.974,324.354h34.229c3.504,0,6.287,2.783,6.287,6.287v15.543
	c0,3.504-2.783,6.287-6.287,6.287h-34.229v39.35c0,3.504-2.785,6.289-6.289,6.289h-16.799c-3.504,0-6.289-2.785-6.289-6.289v-39.35
	h-34.318c-3.504,0-6.289-2.783-6.289-6.287v-15.543c0-3.504,2.785-6.287,6.289-6.287h34.318V286.98c0-3.504,2.785-6.289,6.289-6.289
	h16.799c3.504,0,6.289,2.785,6.289,6.289V324.354z"/>
<line fill="none" stroke="#FF6868" stroke-width="16" stroke-miterlimit="10" x1="378.077" y1="253.597" x2="550.978" y2="436.588"/>
<polyline id="Rectangle" fill="#231F20" stroke="#000000" stroke-width="21.546" stroke-linejoin="round" points="415.479,337.72 
	415.479,298.192 501.724,298.192 501.724,337.72 "/>
<polyline id="Path-6" fill="none" stroke="#000000" stroke-width="29.925" stroke-linecap="round" stroke-linejoin="round" points="
	469.652,298.192 322.049,147.085 471.897,49.343 539.455,124.896 "/>
<circle id="Oval" fill="#FFFFFF" stroke="#000000" stroke-width="15.3" stroke-linecap="round" stroke-linejoin="round" cx="332.38" cy="150.41" r="21.112"/>
<circle id="Oval-Copy" fill="#FFFFFF" stroke="#000000" stroke-width="15.3" stroke-linecap="round" stroke-linejoin="round" cx="469.831" cy="58.775" r="21.112"/>
<circle id="Oval-Copy-2" fill="#FFFFFF" stroke="#000000" stroke-width="15.3" stroke-linecap="round" stroke-linejoin="round" cx="453.66" cy="281.572" r="21.112"/>
<polygon id="Page-1" fill="none" stroke="#000000" stroke-width="17" stroke-linecap="round" stroke-linejoin="round" points="
	520.679,162.807 555.895,195.777 506.215,165.771 574.672,99.651 601.98,151.308 571.258,114.025 "/>
<path fill="#FF6868" d="M577.957,417.141l-2.202,43.99c-0.264,4.367-3.9,7.668-8.156,7.4c-0.335,0.006-0.561-0.102-0.896-0.099
	l-43.51-7.128c-4.262-0.715-7.123-4.696-6.409-8.956c0.305-1.907,1.285-3.601,2.831-4.856l45.712-36.86
	c3.312-2.737,8.241-2.145,10.979,1.165C577.448,413.346,578.151,415.235,577.957,417.141"/>
</svg>
