<?xml version="1.0" encoding="utf-8"?>
<!-- Generator: Adobe Illustrator 22.0.1, SVG Export Plug-In . SVG Version: 6.00 Build 0)  -->
<svg version="1.1" baseProfile="tiny" id="Layer_1" xmlns="http://www.w3.org/2000/svg" xmlns:xlink="http://www.w3.org/1999/xlink"
	 x="0px" y="0px" viewBox="0 0 355 355" xml:space="preserve">
<title>Actions.Precision</title>
<desc>Created with Sketch.</desc>
<g>
	<path id="Oval-8" fill="none" stroke="#BFBFBF" stroke-width="15" d="M241.5,383c31.7,0,61-10.4,84.7-27.9
		c10.6-7.9,20.1-17.2,28.2-27.6c18.6-24.1,29.7-54.3,29.7-87c0-31.6-10.3-60.8-27.7-84.4C330.4,120.9,288.6,98,241.5,98
		C162.8,98,99,161.8,99,240.5c0,47.3,23.1,89.3,58.6,115.2C181.1,372.9,210.1,383,241.5,383z"/>
	
		<circle id="Oval-3" fill="#2A2A2A" stroke="#2A2A2A" stroke-width="16" stroke-linecap="round" stroke-linejoin="round" cx="240.2" cy="239.2" r="11.5"/>
	<path id="Path-15" fill="none" stroke="#2A2A2A" stroke-width="30" stroke-linecap="round" stroke-linejoin="round" d="M0,213h101
		c55.2,0,100-44.8,100-100V13"/>
	<polyline id="Path-8" fill="none" stroke="#2A2A2A" stroke-width="30" stroke-linecap="round" stroke-linejoin="round" points="
		160.9,49 201,14 239.3,49 	"/>
	<path id="Stroke-1" fill="none" stroke="#FF6868" stroke-width="20" stroke-linecap="round" stroke-linejoin="round" d="
		M143.6,164.3l70.4,55.2"/>
	<path id="Stroke-3" fill="none" stroke="#FF6868" stroke-width="20" stroke-linecap="round" stroke-linejoin="round" d="M133,166.6
		l10.2-12.6"/>
	<path id="Stroke-5" fill="none" stroke="#FF6868" stroke-width="20" stroke-linecap="round" stroke-linejoin="round" d="
		M216.3,232.3l10.2-12.6"/>
</g>
</svg>
