<?xml version="1.0" encoding="utf-8"?>
<!-- Generator: Adobe Illustrator 16.0.0, SVG Export Plug-In . SVG Version: 6.00 Build 0)  -->
<!DOCTYPE svg PUBLIC "-//W3C//DTD SVG 1.1//EN" "http://www.w3.org/Graphics/SVG/1.1/DTD/svg11.dtd">
<svg version="1.1" id="Layer_1" xmlns="http://www.w3.org/2000/svg" xmlns:xlink="http://www.w3.org/1999/xlink" x="0px" y="0px"
	 width="959.98px" height="540px" viewBox="0 0 959.98 540" enable-background="new 0 0 959.98 540" xml:space="preserve">
<path fill="#FF6868" d="M289.91,200.88c0,9.543,7.737,17.28,17.28,17.28s17.28-7.737,17.28-17.28v-51.84
	c0-19.087,15.473-34.56,34.56-34.56h241.92c19.087,0,34.56,15.473,34.56,34.56v51.84c0,9.543,7.737,17.28,17.28,17.28
	c9.544,0,17.28-7.737,17.28-17.28v-51.84c0-38.174-30.946-69.12-69.12-69.12H359.03c-38.174,0-69.12,30.946-69.12,69.12V200.88z"/>
<path d="M561.914,399.516c0.415,0.001,0.835-0.032,1.258-0.1c4.321-0.689,7.267-4.752,6.577-9.073
	c-2.592-16.248,4.084-21.774,13.323-29.423c7.05-5.838,15.04-12.452,17.117-24.281c1.004-5.719,3.637-25.495-4.61-39.859
	c-3.8-6.617-9.915-11.521-18.177-14.576c-5.712-2.111-12.388-3.338-20.405-3.749c-7.859-0.401-14.99,0.88-21.189,3.812
	c-6.81,3.221-12.348,8.343-16.46,15.225c-9.104,15.239-3.101,33.606,2.207,46.097c1.712,4.027,6.364,5.905,10.393,4.193
	c4.027-1.712,5.904-6.364,4.192-10.393c-6.286-14.792-7.299-24.887-3.188-31.769c4.888-8.18,12.491-11.889,23.234-11.338
	c13.647,0.699,22.037,4.098,25.648,10.389c4.452,7.753,4.262,20.592,2.745,29.229c-1.016,5.788-5.075,9.399-11.614,14.813
	c-5.002,4.141-10.672,8.836-14.638,15.69c-4.623,7.99-6.006,17.292-4.229,28.436C554.721,396.737,558.088,399.515,561.914,399.516z"
	/>
<path d="M568.663,457.382c2.295,0,4.59-0.197,6.882-0.594c6.915-1.196,13.418-4.152,19.327-8.787
	c11.344-8.895,11.668-21.036,11.981-32.777c0.033-1.264,0.068-2.57,0.116-3.879c0.158-4.373-3.26-8.047-7.633-8.205
	c-4.371-0.162-8.047,3.259-8.205,7.632c-0.05,1.384-0.086,2.729-0.121,4.029c-0.297,11.099-0.672,16.616-5.918,20.729
	c-7.318,5.739-15.914,7.425-24.202,4.747c-9.564-3.091-17.386-11.531-20.413-22.027c-0.81-2.809-1.532-5.585-2.231-8.271
	c-2.613-10.035-5.082-19.514-11.548-29.783c-2.519-3.999-5.197-7.854-7.788-11.582c-5.403-7.773-10.506-15.116-14.01-23.357
	c-8.487-19.968-7.438-44.681,2.608-61.496c11.877-19.876,35.833-21.707,49.059-21.031c27.436,1.405,44.914,8.33,51.948,20.583
	c8.315,14.482,9.111,23.484,9.267,45.514c0.03,4.357,3.572,7.868,7.922,7.868c0.02,0,0.038,0,0.058,0
	c4.376-0.03,7.898-3.604,7.868-7.979c-0.157-22.279-0.734-34.768-11.371-53.294c-5.871-10.225-15.988-17.827-30.072-22.594
	c-9.701-3.283-21.087-5.221-34.809-5.923c-12.824-0.657-25,1.124-35.206,5.149c-12.309,4.854-21.818,12.788-28.268,23.58
	c-6.421,10.747-10.059,23.8-10.52,37.748c-0.437,13.216,1.96,26.383,6.93,38.075c4.144,9.746,9.958,18.113,15.582,26.203
	c2.489,3.583,5.064,7.288,7.39,10.981c5.16,8.193,7.229,16.137,9.623,25.334c0.725,2.783,1.475,5.66,2.342,8.666
	c2.221,7.705,6.261,14.806,11.681,20.532c5.367,5.671,11.968,9.885,19.086,12.186C560.191,456.706,564.424,457.382,568.663,457.382z
	"/>
<path fill="#2288FF" d="M404.967,457.333c2.028,0,4.055-0.773,5.603-2.321c13.905-13.904,24.671-30.111,32.001-48.17
	c7.079-17.442,10.67-35.868,10.67-54.766s-3.59-37.322-10.67-54.766c-7.33-18.059-18.096-34.265-32-48.17
	c-3.095-3.095-8.112-3.095-11.206,0c-3.095,3.094-3.095,8.111-0.001,11.206c50.579,50.579,50.579,132.879,0,183.459
	c-3.094,3.095-3.094,8.112,0,11.207C400.911,456.56,402.939,457.333,404.967,457.333z"/>
<path fill="#2288FF" d="M370.435,437.866c2.029,0,4.056-0.773,5.604-2.32c11.274-11.275,20.004-24.417,25.948-39.062
	c5.741-14.145,8.651-29.085,8.651-44.408s-2.911-30.264-8.651-44.408c-5.944-14.645-14.674-27.786-25.948-39.061
	c-3.095-3.095-8.112-3.095-11.206,0c-3.095,3.094-3.095,8.111,0,11.206c39.845,39.846,39.845,104.68,0,144.526
	c-3.094,3.095-3.094,8.111,0,11.206C366.379,437.093,368.407,437.866,370.435,437.866z"/>
<path fill="#2288FF" d="M334.274,416.063c2.028,0,4.056-0.773,5.604-2.32c16.483-16.484,25.562-38.385,25.562-61.667
	s-9.078-45.182-25.562-61.666c-3.095-3.095-8.112-3.095-11.206,0c-3.095,3.094-3.095,8.111,0,11.206
	c27.823,27.823,27.823,73.097-0.001,100.921c-3.094,3.095-3.094,8.111,0,11.206C330.219,415.29,332.247,416.063,334.274,416.063z"/>
</svg>
