<?xml version="1.0" encoding="utf-8"?>
<!-- Generator: Adobe Illustrator 16.0.0, SVG Export Plug-In . SVG Version: 6.00 Build 0)  -->
<!DOCTYPE svg PUBLIC "-//W3C//DTD SVG 1.1//EN" "http://www.w3.org/Graphics/SVG/1.1/DTD/svg11.dtd">
<svg version="1.1" id="Layer_1" xmlns="http://www.w3.org/2000/svg" xmlns:xlink="http://www.w3.org/1999/xlink" x="0px" y="0px"
	 width="959.98px" height="540px" viewBox="0 0 959.98 540" enable-background="new 0 0 959.98 540" xml:space="preserve">
<path fill="#FF6868" d="M289.91,200.88c0,9.543,7.737,17.28,17.28,17.28s17.28-7.737,17.28-17.28v-51.84
	c0-19.087,15.473-34.56,34.56-34.56h241.92c19.087,0,34.56,15.473,34.56,34.56v51.84c0,9.543,7.737,17.28,17.28,17.28
	c9.544,0,17.28-7.737,17.28-17.28v-51.84c0-38.174-30.946-69.12-69.12-69.12H359.03c-38.174,0-69.12,30.946-69.12,69.12V200.88z"/>
<path fill="#2288FF" d="M479.99,460.08c9.544,0,17.28-7.736,17.28-17.28V227.016l39.873,38.188
	c6.896,6.609,17.843,6.377,24.451-0.518c6.609-6.896,6.377-17.842-0.519-24.451l0,0l-69.119-66.139
	c-6.687-6.419-17.247-6.419-23.934,0l-69.119,66.139c-6.896,6.609-7.128,17.556-0.519,24.451c6.608,6.896,17.556,7.127,24.451,0.518
	l39.873-38.188V442.8C462.71,452.344,470.447,460.08,479.99,460.08z"/>
</svg>
