<?xml version="1.0" encoding="utf-8"?>
<!-- Generator: Adobe Illustrator 21.0.2, SVG Export Plug-In . SVG Version: 6.00 Build 0)  -->
<svg version="1.1" baseProfile="tiny" id="Layer_1" xmlns="http://www.w3.org/2000/svg" xmlns:xlink="http://www.w3.org/1999/xlink"
	 x="0px" y="0px" viewBox="0 0 355 355" xml:space="preserve">
<path fill="#FF6868" d="M35.7,171.5c-3.9,3.9-3.9,10.3,0,14.2L60,210c4,4,10,3.6,14.4-0.2l67.8-70.5c3.8-4,3.7-10.4-0.3-14.2
	c-4-3.8-10.4-3.7-14.2,0.3l-60.8,63.2l-17-17.1C46,167.7,39.6,167.7,35.7,171.5z"/>
<path fill="#FF6868" d="M35.7,85.5c-3.9,3.9-3.9,10.3,0,14.2L60,124c4,4,10,3.6,14.4-0.2l67.8-70.5c3.8-4,3.7-10.4-0.3-14.2
	c-4-3.8-10.4-3.7-14.2,0.3l-60.8,63.2l-17-17.1C46,81.7,39.6,81.7,35.7,85.5z"/>
<text transform="matrix(1 0 0 1 176.7685 188.558)" fill="#FF6868" font-family="'Arial-BoldMT'" font-size="0.2026px">Created by joni</text>
<text transform="matrix(1 0 0 1 176.4365 188.5575)" fill="#FF6868" font-family="'Arial-BoldMT'" font-size="0.2026px">from the Noun Project</text>
<path fill="#2288FF" stroke="#2288FF" stroke-width="12" stroke-miterlimit="10" d="M51.8,6.8h251.4c24.8,0,45,20.3,45,45v251.4
	c0,24.8-20.2,45-45,45H51.8c-24.8,0-45-20.2-45-45V51.8C6.8,27.1,27.1,6.8,51.8,6.8z M303.2,15.8H51.8c-19.8,0-36,16.2-36,36v251.4
	c0,19.8,16.2,36,36,36h251.4c19.8,0,36-16.2,36-36V51.8C339.2,32,323,15.8,303.2,15.8z"/>
<path id="Rectangle-Copy-4" fill="#2A2A2A" d="M128,76.4h83c3.9,0,7,3.1,7,7v15c0,3.9-3.1,7-7,7h-83c-3.9,0-7-3.1-7-7v-15
	C121,79.5,124.1,76.4,128,76.4z"/>
<path id="Rectangle-Copy-6" fill="#2A2A2A" d="M244.5,76.4h60c3.9,0,7,3.1,7,7v15c0,3.9-3.1,7-7,7h-60c-3.9,0-7-3.1-7-7v-15
	C237.5,79.5,240.6,76.4,244.5,76.4z"/>
<path id="Rectangle-Copy-5" fill="#2A2A2A" d="M79.5,76.4h15c3.9,0,7,3.1,7,7v15c0,3.9-3.1,7-7,7h-15c-3.9,0-7-3.1-7-7v-15
	C72.5,79.5,75.6,76.4,79.5,76.4z"/>
<path id="Rectangle-Copy-4_1_" fill="#2A2A2A" d="M128,159.6h83c3.9,0,7,3.1,7,7v15c0,3.9-3.1,7-7,7h-83c-3.9,0-7-3.1-7-7v-15
	C121,162.7,124.1,159.6,128,159.6z"/>
<path id="Rectangle-Copy-6_1_" fill="#2A2A2A" d="M244.5,159.6h60c3.9,0,7,3.1,7,7v15c0,3.9-3.1,7-7,7h-60c-3.9,0-7-3.1-7-7v-15
	C237.5,162.7,240.6,159.6,244.5,159.6z"/>
<path id="Rectangle-Copy-5_1_" fill="#2A2A2A" d="M79.5,159.6h15c3.9,0,7,3.1,7,7v15c0,3.9-3.1,7-7,7h-15c-3.9,0-7-3.1-7-7v-15
	C72.5,162.7,75.6,159.6,79.5,159.6z"/>
<path fill="#FF6868" d="M35.7,253.5c-3.9,3.9-3.9,10.3,0,14.2L60,292c4,4,10,3.6,14.4-0.2l67.8-70.5c3.8-4,3.7-10.4-0.3-14.2
	c-4-3.8-10.4-3.7-14.2,0.3l-60.8,63.2l-17-17.1C46,249.7,39.6,249.7,35.7,253.5z"/>
<path id="Rectangle-Copy-4_3_" fill="#2A2A2A" d="M128,241.6h83c3.9,0,7,3.1,7,7v15c0,3.9-3.1,7-7,7h-83c-3.9,0-7-3.1-7-7v-15
	C121,244.7,124.1,241.6,128,241.6z"/>
<path id="Rectangle-Copy-6_3_" fill="#2A2A2A" d="M244.5,241.6h60c3.9,0,7,3.1,7,7v15c0,3.9-3.1,7-7,7h-60c-3.9,0-7-3.1-7-7v-15
	C237.5,244.7,240.6,241.6,244.5,241.6z"/>
<path id="Rectangle-Copy-5_3_" fill="#2A2A2A" d="M79.5,241.6h15c3.9,0,7,3.1,7,7v15c0,3.9-3.1,7-7,7h-15c-3.9,0-7-3.1-7-7v-15
	C72.5,244.7,75.6,241.6,79.5,241.6z"/>
</svg>
