<?xml version="1.0" encoding="utf-8"?>
<!-- Generator: Adobe Illustrator 16.0.0, SVG Export Plug-In . SVG Version: 6.00 Build 0)  -->
<!DOCTYPE svg PUBLIC "-//W3C//DTD SVG 1.1//EN" "http://www.w3.org/Graphics/SVG/1.1/DTD/svg11.dtd">
<svg version="1.1" id="Layer_1" xmlns="http://www.w3.org/2000/svg" xmlns:xlink="http://www.w3.org/1999/xlink" x="0px" y="0px"
	 width="959.98px" height="540px" viewBox="0 0 959.98 540" enable-background="new 0 0 959.98 540" xml:space="preserve">
<path fill="#FF6868" d="M309.916,282.672c-12.459,12.407-12.459,32.967-0.051,45.374l77.674,77.725
	c12.766,12.767,32.198,11.382,45.938-0.615l217.025-225.638c12.202-12.715,11.843-33.121-0.872-45.375
	c-12.715-12.201-33.12-11.843-45.322,0.924l-194.569,202.26l-54.551-54.604C342.78,270.367,322.323,270.367,309.916,282.672z"/>
<path fill="#2288FF" d="M319.605,54h318.078c31.377,0,56.961,25.635,56.961,56.961v318.078c0,31.377-25.584,56.961-56.961,56.961
	H319.605c-31.326,0-56.961-25.584-56.961-56.961V110.961C262.645,79.635,288.279,54,319.605,54z M637.684,65.382H319.605
	c-25.071,0-45.579,20.508-45.579,45.579v318.078c0,25.071,20.508,45.579,45.579,45.579h318.078
	c25.071,0,45.579-20.508,45.579-45.579V110.961C683.263,85.89,662.755,65.382,637.684,65.382z"/>
<text transform="matrix(1 0 0 1 479.0645 270.0615)" fill="#FF6868" font-family="'Arial-BoldMT'" font-size="0.2563">Created by joni</text>
<text transform="matrix(1 0 0 1 478.6445 270.061)" fill="#FF6868" font-family="'Arial-BoldMT'" font-size="0.2563">from the Noun Project</text>
<path fill="none" stroke="#2288FF" stroke-width="5" stroke-miterlimit="10" d="M320.951,54h318.078
	c31.377,0,56.961,25.635,56.961,56.961v318.078c0,31.377-25.584,56.961-56.961,56.961H320.951
	c-31.326,0-56.961-25.584-56.961-56.961V110.961C263.99,79.635,289.625,54,320.951,54z M639.029,65.382H320.951
	c-25.071,0-45.579,20.508-45.579,45.579v318.078c0,25.071,20.508,45.579,45.579,45.579h318.078
	c25.071,0,45.579-20.508,45.579-45.579V110.961C684.608,85.89,664.101,65.382,639.029,65.382z"/>
</svg>
