<?xml version="1.0" encoding="utf-8"?>
<!-- Generator: Adobe Illustrator 16.0.0, SVG Export Plug-In . SVG Version: 6.00 Build 0)  -->
<!DOCTYPE svg PUBLIC "-//W3C//DTD SVG 1.1//EN" "http://www.w3.org/Graphics/SVG/1.1/DTD/svg11.dtd">
<svg version="1.1" id="Layer_1" xmlns="http://www.w3.org/2000/svg" xmlns:xlink="http://www.w3.org/1999/xlink" x="0px" y="0px"
	 width="959.98px" height="540px" viewBox="0 0 959.98 540" enable-background="new 0 0 959.98 540" xml:space="preserve">
<path fill="#FF6868" d="M289.91,200.88c0,9.543,7.737,17.28,17.28,17.28s17.28-7.737,17.28-17.28v-51.84
	c0-19.087,15.473-34.56,34.56-34.56h241.92c19.087,0,34.56,15.473,34.56,34.56v51.84c0,9.543,7.737,17.28,17.28,17.28
	c9.544,0,17.28-7.737,17.28-17.28v-51.84c0-38.174-30.946-69.12-69.12-69.12H359.03c-38.174,0-69.12,30.946-69.12,69.12V200.88z"/>
<g>
	<path fill="#2288FF" d="M483.606,353.849l-41.19,0.013v-38.099l41.18-0.003c8.541,0.006,15.454-6.907,15.441-15.441
		c0.007-8.528-6.906-15.441-15.438-15.438l-41.186-0.003l0.003-28.369c-0.586-0.006-53.931-0.009-54.532-0.006
		c-40.294,0.009-73.432,30.434-77.782,69.552l-92.655-0.006c-4.817,0.01-8.739,3.932-8.755,8.755
		c0.003,4.836,3.934,8.768,8.768,8.767l92.646-0.003c4.368,39.118,37.509,69.534,77.791,69.55
		c0.602-0.003,53.938-0.033,54.522-0.046l-0.008-28.332h41.201c8.514,0.003,15.427-6.91,15.444-15.445
		C499.044,360.759,492.134,353.849,483.606,353.849z"/>
	<path fill="#2288FF" d="M751.289,334.8c0-4.827-3.916-8.743-8.739-8.74l-92.664-0.002c-4.345-39.113-37.494-69.544-77.773-69.538
		c-0.599,0-53.937,0.021-54.532,0.031l0.003,28.332l34.998-0.003c8.521,0.006,15.432,6.916,15.45,15.45
		c-0.006,8.523-6.928,15.445-15.441,15.441l-35.011-0.002l0.008,38.086l35.003,0.002c8.523,0.007,15.42,6.903,15.438,15.438
		c-0.006,8.535-6.919,15.448-15.454,15.454h-35.001l0.01,28.369c0.59,0.01,53.918-0.003,54.521-0.006
		c40.294,0.016,73.443-30.422,77.785-69.55l92.643-0.006C747.373,343.561,751.295,339.639,751.289,334.8z"/>
</g>
</svg>
