<?xml version="1.0" encoding="utf-8"?>
<!-- Generator: Adobe Illustrator 21.0.2, SVG Export Plug-In . SVG Version: 6.00 Build 0)  -->
<svg version="1.1" baseProfile="tiny" id="Layer_1" xmlns="http://www.w3.org/2000/svg" xmlns:xlink="http://www.w3.org/1999/xlink"
	 x="0px" y="0px" viewBox="0 0 355 355" xml:space="preserve">
<path fill="#FF6868" d="M20.3,167c0,9.5,6.4,17.3,14.3,17.3s14.3-7.7,14.3-17.3v-51.8c0-19.1,12.8-37.6,28.6-37.6h200.1
	c15.8,0,28.6,18.5,28.6,37.6V167c0,9.5,6.4,17.3,14.3,17.3s14.3-7.7,14.3-17.3v-51.8c0-38.2-25.6-69.1-57.2-69.1H77.5
	c-31.6,0-57.2,30.9-57.2,69.1V167z"/>
<g>
	<path fill="#2288FF" stroke="#2288FF" stroke-miterlimit="10" d="M81.3,252.9c2.5,27,21.2,48,44,48.1c0.3,0,30.5,0,30.9,0v-19.6
		h23.3c4.8,0,8.7-4.8,8.7-10.7c0-5.9-3.9-10.7-8.7-10.7h-23.3v-26.3h23.3c4.8,0,8.7-4.8,8.7-10.7s-3.9-10.7-8.7-10.7h-23.3v-19.6
		c-0.3,0-30.5,0-30.9,0c-22.8,0-41.6,21-44,48.1"/>
	<path fill="#2288FF" stroke="#2288FF" stroke-miterlimit="10" d="M273.7,240.8c-2.5-27-21.2-48.1-44-48c-0.3,0-30.5,0-30.9,0v19.6
		h19.8c4.8,0,8.7,4.8,8.7,10.7s-3.9,10.7-8.7,10.7h-19.8v26.3h19.8c4.8,0,8.7,4.8,8.7,10.7c0,5.9-3.9,10.7-8.7,10.7h-19.8v19.6
		c0.3,0,30.5,0,30.9,0c22.8,0,41.6-21,44-48.1"/>
</g>
<line fill="none" stroke="#2288FF" stroke-width="17" stroke-linecap="round" stroke-linejoin="round" x1="34.2" y1="246.9" x2="87.7" y2="246.9"/>
<line fill="none" stroke="#2288FF" stroke-width="17" stroke-linecap="round" stroke-linejoin="round" x1="265.5" y1="251.3" x2="319" y2="251.3"/>
</svg>
