<?xml version="1.0" encoding="utf-8"?>
<!-- Generator: Adobe Illustrator 21.0.2, SVG Export Plug-In . SVG Version: 6.00 Build 0)  -->
<svg version="1.1" baseProfile="tiny" id="Layer_1" xmlns="http://www.w3.org/2000/svg" xmlns:xlink="http://www.w3.org/1999/xlink"
	 x="0px" y="0px" viewBox="0 0 355 355" xml:space="preserve">
<path fill="#FF6868" d="M279.1,95.3l-3.1,46.4c-0.4,4.7-4.3,8-8.8,7.8c-0.4,0-0.6-0.2-1-0.2l-45.8-8.4c-4.5-0.8-7.4-5.1-6.5-9.6
	c0.4-2,1.4-3.9,3.1-5.1L265.8,88c3.5-2.9,8.8-2,11.7,1.4C278.5,91.5,279.3,93.5,279.1,95.3"/>
<path fill="#FF6868" d="M76.1,259.5L87,208.8c1.2-5.1,5.9-8.2,10.8-7.2c0.4,0,0.6,0.2,1,0.2l49.3,16.6c4.9,1.6,7.4,6.7,5.7,11.7
	c-0.6,2.2-2.2,3.9-4.3,5.1l-60.1,34.1c-4.3,2.5-10,1-12.5-3.5C75.9,264,75.5,261.5,76.1,259.5"/>
<path fill="none" stroke="#FF6868" stroke-width="30" stroke-linecap="round" stroke-linejoin="round" d="M257.1,127.8
	c-15.9-26-44.8-43.3-77.5-43.3c-49.3,0-89.5,39.3-90.8,88.3"/>
<path fill="none" stroke="#FF6868" stroke-width="30" stroke-linecap="round" stroke-linejoin="round" d="M103.9,225.6
	c16.4,24.5,44.2,40.5,75.6,40.5c47,0,85.9-35.8,90.4-81.8"/>
<path fill="#2288FF" stroke="#2288FF" stroke-width="12" stroke-miterlimit="10" d="M51.8,6.8h251.4c24.8,0,45,20.3,45,45v251.4
	c0,24.8-20.2,45-45,45H51.8c-24.8,0-45-20.2-45-45V51.8C6.8,27.1,27.1,6.8,51.8,6.8z M303.2,15.8H51.8c-19.8,0-36,16.2-36,36v251.4
	c0,19.8,16.2,36,36,36h251.4c19.8,0,36-16.2,36-36V51.8C339.2,32,323,15.8,303.2,15.8z"/>
</svg>
