<?xml version="1.0" encoding="utf-8"?>
<!-- Generator: Adobe Illustrator 21.0.2, SVG Export Plug-In . SVG Version: 6.00 Build 0)  -->
<svg version="1.1" baseProfile="tiny" id="Layer_1" xmlns="http://www.w3.org/2000/svg" xmlns:xlink="http://www.w3.org/1999/xlink"
	 x="0px" y="0px" viewBox="0 0 355 355" xml:space="preserve">
<g>
	<path fill="#2A2A2A" d="M159.1,97.4c3.2,0,5.8-2.6,5.8-5.8v-6.1c0-3.2-2.6-5.8-5.8-5.8s-5.8,2.6-5.8,5.8v6.1
		C153.3,94.8,155.9,97.4,159.1,97.4z"/>
	<path fill="#2A2A2A" d="M195.9,97.4c3.2,0,5.8-2.6,5.8-5.8v-6.1c0-3.2-2.6-5.8-5.8-5.8s-5.8,2.6-5.8,5.8v6.1
		C190.2,94.8,192.7,97.4,195.9,97.4z"/>
	<path fill="#2A2A2A" d="M296.6,239.8l-9.1-4.5v-53c7.1-2.4,12.3-9.1,12.3-17.1c0-9.9-8.1-18-18-18h-24.9v-6.5
		c0-3.2-2.6-5.8-5.8-5.8h-12.7v-31.1c0-20-9.7-37.7-24.5-48.9c0-0.1,0-0.1,0-0.2V35.1c7.1-2.4,12.3-9.1,12.3-17.1
		c0-9.9-8.1-18-18-18s-18,8.1-18,18c0,7.9,5.1,14.7,12.3,17.1v13.2c-7.6-3.4-16-5.3-24.9-5.3c-8.9,0-17.3,1.9-24.9,5.3V35.1
		c7.1-2.4,12.3-9.1,12.3-17.1c0-9.9-8.1-18-18-18s-18,8.1-18,18c0,7.9,5.1,14.7,12.3,17.1v19.7c0,0.1,0,0.1,0,0.2
		c-14.9,11.1-24.5,28.9-24.5,48.9v31.1h-12.7c-3.2,0-5.8,2.6-5.8,5.8v6.5H73.2c-9.9,0-18,8.1-18,18c0,7.9,5.1,14.7,12.3,17.1v53
		l-9.1,4.5c-1.9,1-3.2,3-3.2,5.1v18.4c0,2.2,1.2,4.2,3.2,5.1l12.3,6.1c0.8,0.4,1.7,0.6,2.6,0.6c2.1,0,4.1-1.2,5.1-3.2
		c1.4-2.8,0.3-6.3-2.6-7.7l-9.1-4.5v-11.3l6.5-3.3l6.5,3.3v8.7c0,3.2,2.6,5.8,5.8,5.8c3.2,0,5.8-2.6,5.8-5.8V245
		c0-2.2-1.2-4.2-3.2-5.1l-9.1-4.5v-52h19.2v24.9c0,20,9.7,37.7,24.5,48.9c0,0.1,0,0.1,0,0.2V294c0,7.9,5.1,14.7,12.3,17.1v7.8h-12.7
		c-2.2,0-4.1,1.2-5.1,3.1l-11.1,21.4h-2.2c-3.2,0-5.8,2.6-5.8,5.8c0,3.2,2.6,5.8,5.8,5.8h55.2c3.2,0,5.8-2.6,5.8-5.8v-24.5
		c0-3.2-2.6-5.8-5.8-5.8h-12.7v-7.8c7.1-2.4,12.3-9.1,12.3-17.1v-24.9c0.1,0,0.3,0,0.4,0h36.8c0.1,0,0.3,0,0.4,0V294
		c0,7.9,5.1,14.7,12.3,17.1v7.8h-12.7c-3.2,0-5.8,2.6-5.8,5.8v24.5c0,3.2,2.6,5.8,5.8,5.8h55.2c3.2,0,5.8-2.6,5.8-5.8
		c0-3.2-2.6-5.8-5.8-5.8h-2.2l-11.1-21.4c-1-1.9-3-3.1-5.1-3.1h-12.7v-7.8c7.1-2.4,12.3-9.1,12.3-17.1v-36.8c0-0.1,0-0.1,0-0.2
		c14.9-11.1,24.5-28.9,24.5-48.9v-24.9H276v52l-9.1,4.5c-1.9,1-3.2,3-3.2,5.1v12.3c0,3.2,2.6,5.8,5.8,5.8s5.8-2.6,5.8-5.8v-8.7
		l6.5-3.3l6.5,3.3v11.3l-9.1,4.5c-2.8,1.4-4,4.9-2.6,7.7c1,2,3,3.2,5.1,3.2c0.9,0,1.7-0.2,2.6-0.6l12.3-6.1c1.9-1,3.2-3,3.2-5.1V245
		C299.8,242.8,298.6,240.8,296.6,239.8z M208.2,11.5c3.6,0,6.5,2.9,6.5,6.5s-2.9,6.5-6.5,6.5c-3.6,0-6.5-2.9-6.5-6.5
		S204.6,11.5,208.2,11.5z M146.8,11.5c3.6,0,6.5,2.9,6.5,6.5s-2.9,6.5-6.5,6.5s-6.5-2.9-6.5-6.5S143.2,11.5,146.8,11.5z
		 M153.3,343.5h-34.3l6.7-13h27.5V343.5z M235.9,343.5h-34.3v-13h27.5L235.9,343.5z M281.8,171.7c-3.6,0-6.5-2.9-6.5-6.5
		s2.9-6.5,6.5-6.5c3.6,0,6.5,2.9,6.5,6.5S285.4,171.7,281.8,171.7z M177.5,54.4c27.3,0,49.5,22.2,49.5,49.5v6.5H128v-6.5
		C128,76.6,150.2,54.4,177.5,54.4z M128,121.9H227v13H128V121.9z M73.2,158.7c3.6,0,6.5,2.9,6.5,6.5s-2.9,6.5-6.5,6.5
		s-6.5-2.9-6.5-6.5S69.6,158.7,73.2,158.7z M90,171.7c0.8-2,1.2-4.2,1.2-6.5s-0.4-4.5-1.2-6.5h8.1v13H90z M140.7,300.6
		c-3.6,0-6.5-2.9-6.5-6.5s2.9-6.5,6.5-6.5s6.5,2.9,6.5,6.5S144.3,300.6,140.7,300.6z M147.2,277.3c-2-0.8-4.2-1.2-6.5-1.2
		s-4.5,0.4-6.5,1.2v-13.5c4.1,1.9,8.5,3.3,13,4.2V277.3z M109.6,208.2v-61.7h62.1v19.2H153c-13.3,0-24.2,10.8-24.2,24.2
		s10.8,24.2,24.2,24.2h18.8v43.7h-12.7C131.8,257.6,109.6,235.4,109.6,208.2z M153,202.4c-7,0-12.7-5.7-12.7-12.7
		s5.7-12.7,12.7-12.7H202c7,0,12.7,5.7,12.7,12.7s-5.7,12.7-12.7,12.7H153z M214.3,300.6c-3.6,0-6.5-2.9-6.5-6.5s2.9-6.5,6.5-6.5
		c3.6,0,6.5,2.9,6.5,6.5S217.9,300.6,214.3,300.6z M220.8,277.3c-2-0.8-4.2-1.2-6.5-1.2c-2.3,0-4.5,0.4-6.5,1.2V268
		c4.5-0.9,8.9-2.3,13-4.2V277.3z M245.4,208.2c0,27.3-22.2,49.5-49.5,49.5h-12.7v-43.7H202c13.3,0,24.2-10.8,24.2-24.2
		s-10.8-24.2-24.2-24.2h-18.8v-19.2h62.1V208.2z M256.9,158.7h8.1c-0.8,2-1.2,4.2-1.2,6.5s0.4,4.5,1.2,6.5h-8.1V158.7z"/>
</g>
</svg>
