<?xml version="1.0" encoding="utf-8"?>
<!-- Generator: Adobe Illustrator 21.0.2, SVG Export Plug-In . SVG Version: 6.00 Build 0)  -->
<svg version="1.1" baseProfile="tiny" id="Layer_1" xmlns="http://www.w3.org/2000/svg" xmlns:xlink="http://www.w3.org/1999/xlink"
	 x="0px" y="0px" viewBox="0 0 355 355" xml:space="preserve">
<g>
	<path fill="#2A2A2A" d="M132.9,235.2c7.7,0,14-6.3,14-14v-14.7c0-7.7-6.3-14-14-14c-7.7,0-14,6.3-14,14v14.7
		C118.9,228.9,125.2,235.2,132.9,235.2z"/>
	<path fill="#2A2A2A" d="M221.8,235.2c7.7,0,14-6.3,14-14v-14.7c0-7.7-6.3-14-14-14s-14,6.3-14,14v14.7
		C208,228.9,214.1,235.2,221.8,235.2z"/>
	<path fill="#2A2A2A" d="M324.4,355V250.7c0-48.3-23.4-91-59.2-118.1c0-0.2,0-0.2,0-0.5V84.8c17.1-5.8,29.7-22,29.7-41.3
		C295,19.6,275.4,0,251.5,0S208,19.6,208,43.5c0,19.1,12.3,35.5,29.7,41.3v31.9c-18.4-8.2-38.6-12.8-60.1-12.8s-41.8,4.6-60.1,12.8
		V84.8c17.1-5.8,29.7-22,29.7-41.3c0-23.9-19.6-43.5-43.5-43.5S60.2,19.6,60.2,43.5c0,19.1,12.3,35.5,29.7,41.3v47.6
		c0,0.2,0,0.2,0,0.5c-36,26.8-59.2,69.8-59.2,118.1V355 M251.5,27.8c8.7,0,15.7,7,15.7,15.7s-7,15.7-15.7,15.7s-15.7-7-15.7-15.7
		S242.8,27.8,251.5,27.8z M103.2,27.8c8.7,0,15.7,7,15.7,15.7s-7,15.7-15.7,15.7s-15.7-7-15.7-15.7S94.5,27.8,103.2,27.8z
		 M177.4,131.4c65.9,0,119.5,53.6,119.5,119.5v15.7H57.8v-15.7C57.8,185,111.4,131.4,177.4,131.4z M57.8,294.4h239.1v31.4H57.8
		V294.4z"/>
</g>
</svg>
