<?xml version="1.0" encoding="utf-8"?>
<!-- Generator: Adobe Illustrator 22.0.1, SVG Export Plug-In . SVG Version: 6.00 Build 0)  -->
<svg version="1.1" baseProfile="tiny" id="Layer_1" xmlns="http://www.w3.org/2000/svg" xmlns:xlink="http://www.w3.org/1999/xlink"
	 x="0px" y="0px" viewBox="0 0 355 355" xml:space="preserve">
<title>Programs.DisplayProgram</title>
<desc>Created with Sketch.</desc>
<g>
	<path id="Rectangle-Copy-10" fill="#2288FF" d="M228,108.5h60c3.9,0,7,3.1,7,7v4.7c0,3.9-3.1,7-7,7h-60c-3.9,0-7-3.1-7-7v-4.7
		C221,111.6,224.1,108.5,228,108.5z"/>
	<path id="Rectangle-Copy-7" fill="#2288FF" d="M30,108.5h60c3.9,0,7,3.1,7,7v4.7c0,3.9-3.1,7-7,7H30c-3.9,0-7-3.1-7-7v-4.7
		C23,111.6,26.1,108.5,30,108.5z"/>
	<path id="Rectangle-Copy-8" fill="#2288FF" d="M120,108.1h15c3.9,0,7,3.1,7,7v4.7c0,3.9-3.1,7-7,7h-15c-3.9,0-7-3.1-7-7v-4.7
		C113,111.3,116.1,108.1,120,108.1z"/>
	<path id="Rectangle-Copy-9" fill="#2288FF" d="M165,108.1h31c3.9,0,7,3.1,7,7v4.7c0,3.9-3.1,7-7,7h-31c-3.9,0-7-3.1-7-7v-4.7
		C158,111.3,161.1,108.1,165,108.1z"/>
	<path id="Rectangle-Copy-10_1_" fill="#2288FF" d="M228,228.2h60c3.9,0,7,3.1,7,7v4.7c0,3.9-3.1,7-7,7h-60c-3.9,0-7-3.1-7-7v-4.7
		C221,231.3,224.1,228.2,228,228.2z"/>
	<path id="Rectangle-Copy-7_1_" fill="#2288FF" d="M30,228.2h60c3.9,0,7,3.1,7,7v4.7c0,3.9-3.1,7-7,7H30c-3.9,0-7-3.1-7-7v-4.7
		C23,231.3,26.1,228.2,30,228.2z"/>
	<path id="Rectangle-Copy-8_1_" fill="#2288FF" d="M120.3,228.2h15c3.9,0,7,3.1,7,7v4.7c0,3.9-3.1,7-7,7h-15c-3.9,0-7-3.1-7-7v-4.7
		C113.3,231.3,116.5,228.2,120.3,228.2z"/>
	<path id="Rectangle-Copy-4" fill="#2288FF" d="M78.5,68.7h83c3.9,0,7,3.1,7,7v4.7c0,3.9-3.1,7-7,7h-83c-3.9,0-7-3.1-7-7v-4.7
		C71.5,71.9,74.6,68.7,78.5,68.7z"/>
	<path id="Rectangle-Copy-6" fill="#2288FF" d="M195,68.7h60c3.9,0,7,3.1,7,7v4.7c0,3.9-3.1,7-7,7h-60c-3.9,0-7-3.1-7-7v-4.7
		C188,71.9,191.1,68.7,195,68.7z"/>
	<path id="Rectangle-Copy-5" fill="#2288FF" d="M30,68.7h15c3.9,0,7,3.1,7,7v4.7c0,3.9-3.1,7-7,7H30c-3.9,0-7-3.1-7-7v-4.7
		C23,71.9,26.1,68.7,30,68.7z"/>
	<path id="Rectangle-Copy-4_1_" fill="#2288FF" d="M78.5,188.5h83c3.9,0,7,3.1,7,7v4.7c0,3.9-3.1,7-7,7h-83c-3.9,0-7-3.1-7-7v-4.7
		C71.5,191.6,74.6,188.5,78.5,188.5z"/>
	<path id="Rectangle-Copy-6_1_" fill="#2288FF" d="M195,188.5h60c3.9,0,7,3.1,7,7v4.7c0,3.9-3.1,7-7,7h-60c-3.9,0-7-3.1-7-7v-4.7
		C188,191.6,191.1,188.5,195,188.5z"/>
	<path id="Rectangle-Copy-5_1_" fill="#2288FF" d="M30,188.5h15c3.9,0,7,3.1,7,7v4.7c0,3.9-3.1,7-7,7H30c-3.9,0-7-3.1-7-7v-4.7
		C23,191.6,26.1,188.5,30,188.5z"/>
	<path id="Rectangle-Copy-4_2_" fill="#2288FF" d="M78.5,308.2h83c3.9,0,7,3.1,7,7v4.7c0,3.9-3.1,7-7,7h-83c-3.9,0-7-3.1-7-7v-4.7
		C71.5,311.3,74.6,308.2,78.5,308.2z"/>
	<path id="Rectangle-Copy-6_2_" fill="#2288FF" d="M195,308.2h60c3.9,0,7,3.1,7,7v4.7c0,3.9-3.1,7-7,7h-60c-3.9,0-7-3.1-7-7v-4.7
		C188,311.3,191.1,308.2,195,308.2z"/>
	<path id="Rectangle-Copy-5_2_" fill="#2288FF" d="M30,308.2h15c3.9,0,7,3.1,7,7v4.7c0,3.9-3.1,7-7,7H30c-3.9,0-7-3.1-7-7v-4.7
		C23,311.3,26.1,308.2,30,308.2z"/>
	<path id="Rectangle" fill="#2288FF" d="M30,29h83c3.9,0,7,3.1,7,7v4.7c0,3.9-3.1,7-7,7H30c-3.9,0-7-3.1-7-7V36
		C23,32.1,26.1,29,30,29z"/>
	<path id="Rectangle-Copy" fill="#2288FF" d="M148,29h60c3.9,0,7,3.1,7,7v4.7c0,3.9-3.1,7-7,7h-60c-3.9,0-7-3.1-7-7V36
		C141,32.1,144.1,29,148,29z"/>
	<path id="Rectangle-Copy-2" fill="#2288FF" d="M243,29h15c3.9,0,7,3.1,7,7v4.7c0,3.9-3.1,7-7,7h-15c-3.9,0-7-3.1-7-7V36
		C236,32.1,239.1,29,243,29z"/>
	<path id="Rectangle-Copy-3" fill="#2288FF" d="M293,29h32c3.9,0,7,3.1,7,7v4.7c0,3.9-3.1,7-7,7h-32c-3.9,0-7-3.1-7-7V36
		C286,32.1,289.1,29,293,29z"/>
	<path id="Rectangle_1_" fill="#2288FF" d="M30,148.7h83c3.9,0,7,3.1,7,7v4.7c0,3.9-3.1,7-7,7H30c-3.9,0-7-3.1-7-7v-4.7
		C23,151.8,26.1,148.7,30,148.7z"/>
	<path id="Rectangle-Copy_1_" fill="#2288FF" d="M148,148.7h60c3.9,0,7,3.1,7,7v4.7c0,3.9-3.1,7-7,7h-60c-3.9,0-7-3.1-7-7v-4.7
		C141,151.8,144.1,148.7,148,148.7z"/>
	<path id="Rectangle-Copy-2_1_" fill="#2288FF" d="M243,148.7h15c3.9,0,7,3.1,7,7v4.7c0,3.9-3.1,7-7,7h-15c-3.9,0-7-3.1-7-7v-4.7
		C236,151.8,239.1,148.7,243,148.7z"/>
	<path id="Rectangle-Copy-3_1_" fill="#2288FF" d="M293,148.7h32c3.9,0,7,3.1,7,7v4.7c0,3.9-3.1,7-7,7h-32c-3.9,0-7-3.1-7-7v-4.7
		C286,151.8,289.1,148.7,293,148.7z"/>
	<path id="Rectangle_2_" fill="#2288FF" d="M30,268.4h83c3.9,0,7,3.1,7,7v4.7c0,3.9-3.1,7-7,7H30c-3.9,0-7-3.1-7-7v-4.7
		C23,271.6,26.1,268.4,30,268.4z"/>
	<path id="Rectangle-Copy_2_" fill="#2288FF" d="M148,268.4h60c3.9,0,7,3.1,7,7v4.7c0,3.9-3.1,7-7,7h-60c-3.9,0-7-3.1-7-7v-4.7
		C141,271.6,144.1,268.4,148,268.4z"/>
	<path id="Rectangle-Copy-2_2_" fill="#2288FF" d="M243,268.4h15c3.9,0,7,3.1,7,7v4.7c0,3.9-3.1,7-7,7h-15c-3.9,0-7-3.1-7-7v-4.7
		C236,271.6,239.1,268.4,243,268.4z"/>
	<path id="Rectangle-Copy-3_2_" fill="#2288FF" d="M293,268.4h32c3.9,0,7,3.1,7,7v4.7c0,3.9-3.1,7-7,7h-32c-3.9,0-7-3.1-7-7v-4.7
		C286,271.6,289.1,268.4,293,268.4z"/>
</g>
</svg>
