<?xml version="1.0" encoding="utf-8"?>
<!-- Generator: Adobe Illustrator 21.0.2, SVG Export Plug-In . SVG Version: 6.00 Build 0)  -->
<svg version="1.1" baseProfile="tiny" id="Layer_1" xmlns="http://www.w3.org/2000/svg" xmlns:xlink="http://www.w3.org/1999/xlink"
	 x="0px" y="0px" viewBox="0 0 355 355" xml:space="preserve">
<g>
	<path id="Rectangle-Copy-10" fill="#2288FF" d="M258,102.5h60c3.9,0,7,3.1,7,7v4.7c0,3.9-3.1,7-7,7h-60c-3.9,0-7-3.1-7-7v-4.7
		C251,105.6,254.1,102.5,258,102.5z"/>
	<path id="Rectangle-Copy-7" fill="#2288FF" d="M60,102.5h60c3.9,0,7,3.1,7,7v4.7c0,3.9-3.1,7-7,7H60c-3.9,0-7-3.1-7-7v-4.7
		C53,105.6,56.1,102.5,60,102.5z"/>
	<path id="Rectangle-Copy-8" fill="#2288FF" d="M150,102.1h15c3.9,0,7,3.1,7,7v4.7c0,3.9-3.1,7-7,7h-15c-3.9,0-7-3.1-7-7v-4.7
		C143,105.3,146.1,102.1,150,102.1z"/>
	<path id="Rectangle-Copy-9" fill="#2288FF" d="M195,102.1h31c3.9,0,7,3.1,7,7v4.7c0,3.9-3.1,7-7,7h-31c-3.9,0-7-3.1-7-7v-4.7
		C188,105.3,191.1,102.1,195,102.1z"/>
	<path id="Rectangle-Copy-10_1_" fill="#2288FF" d="M195,222.2h60c3.9,0,7,3.1,7,7v4.7c0,3.9-3.1,7-7,7h-60c-3.9,0-7-3.1-7-7v-4.7
		C188,225.3,191.1,222.2,195,222.2z"/>
	<path id="Rectangle-Copy-7_1_" fill="#2288FF" d="M60,222.2h60c3.9,0,7,3.1,7,7v4.7c0,3.9-3.1,7-7,7H60c-3.9,0-7-3.1-7-7v-4.7
		C53,225.3,56.1,222.2,60,222.2z"/>
	<path id="Rectangle-Copy-8_1_" fill="#2288FF" d="M150.3,222.2h15c3.9,0,7,3.1,7,7v4.7c0,3.9-3.1,7-7,7h-15c-3.9,0-7-3.1-7-7v-4.7
		C143.3,225.3,146.5,222.2,150.3,222.2z"/>
	<path id="Rectangle-Copy-4" fill="#2288FF" d="M108.5,62.7h83c3.9,0,7,3.1,7,7v4.7c0,3.9-3.1,7-7,7h-83c-3.9,0-7-3.1-7-7v-4.7
		C101.5,65.9,104.6,62.7,108.5,62.7z"/>
	<path id="Rectangle-Copy-6" fill="#2288FF" d="M225,62.7h60c3.9,0,7,3.1,7,7v4.7c0,3.9-3.1,7-7,7h-60c-3.9,0-7-3.1-7-7v-4.7
		C218,65.9,221.1,62.7,225,62.7z"/>
	<path id="Rectangle-Copy-5" fill="#2288FF" d="M60,62.7h15c3.9,0,7,3.1,7,7v4.7c0,3.9-3.1,7-7,7H60c-3.9,0-7-3.1-7-7v-4.7
		C53,65.9,56.1,62.7,60,62.7z"/>
	<path id="Rectangle-Copy-4_1_" fill="#2288FF" d="M108.5,182.5h83c3.9,0,7,3.1,7,7v4.7c0,3.9-3.1,7-7,7h-83c-3.9,0-7-3.1-7-7v-4.7
		C101.5,185.6,104.6,182.5,108.5,182.5z"/>
	<path id="Rectangle-Copy-6_1_" fill="#2288FF" d="M225,182.5h60c3.9,0,7,3.1,7,7v4.7c0,3.9-3.1,7-7,7h-60c-3.9,0-7-3.1-7-7v-4.7
		C218,185.6,221.1,182.5,225,182.5z"/>
	<path id="Rectangle-Copy-5_1_" fill="#2288FF" d="M60,182.5h15c3.9,0,7,3.1,7,7v4.7c0,3.9-3.1,7-7,7H60c-3.9,0-7-3.1-7-7v-4.7
		C53,185.6,56.1,182.5,60,182.5z"/>
	<path id="Rectangle-Copy-4_2_" fill="#2288FF" d="M108.5,302.2h83c3.9,0,7,3.1,7,7v4.7c0,3.9-3.1,7-7,7h-83c-3.9,0-7-3.1-7-7v-4.7
		C101.5,305.3,104.6,302.2,108.5,302.2z"/>
	<path id="Rectangle-Copy-6_2_" fill="#2288FF" d="M225,302.2h60c3.9,0,7,3.1,7,7v4.7c0,3.9-3.1,7-7,7h-60c-3.9,0-7-3.1-7-7v-4.7
		C218,305.3,221.1,302.2,225,302.2z"/>
	<path id="Rectangle-Copy-5_2_" fill="#2288FF" d="M60,302.2h15c3.9,0,7,3.1,7,7v4.7c0,3.9-3.1,7-7,7H60c-3.9,0-7-3.1-7-7v-4.7
		C53,305.3,56.1,302.2,60,302.2z"/>
	<path id="Rectangle_3_" fill="#2288FF" d="M60,23h83c3.9,0,7,3.1,7,7v4.7c0,3.9-3.1,7-7,7H60c-3.9,0-7-3.1-7-7V30
		C53,26.1,56.1,23,60,23z"/>
	<path id="Rectangle-Copy" fill="#2288FF" d="M178,23h60c3.9,0,7,3.1,7,7v4.7c0,3.9-3.1,7-7,7h-60c-3.9,0-7-3.1-7-7V30
		C171,26.1,174.1,23,178,23z"/>
	<path id="Rectangle-Copy-2" fill="#2288FF" d="M273,23h15c3.9,0,7,3.1,7,7v4.7c0,3.9-3.1,7-7,7h-15c-3.9,0-7-3.1-7-7V30
		C266,26.1,269.1,23,273,23z"/>
	<path id="Rectangle_1_" fill="#2288FF" d="M60,142.7h83c3.9,0,7,3.1,7,7v4.7c0,3.9-3.1,7-7,7H60c-3.9,0-7-3.1-7-7v-4.7
		C53,145.8,56.1,142.7,60,142.7z"/>
	<path id="Rectangle-Copy_1_" fill="#2288FF" d="M178,142.7h60c3.9,0,7,3.1,7,7v4.7c0,3.9-3.1,7-7,7h-60c-3.9,0-7-3.1-7-7v-4.7
		C171,145.8,174.1,142.7,178,142.7z"/>
	<path id="Rectangle-Copy-2_1_" fill="#2288FF" d="M273,142.7h15c3.9,0,7,3.1,7,7v4.7c0,3.9-3.1,7-7,7h-15c-3.9,0-7-3.1-7-7v-4.7
		C266,145.8,269.1,142.7,273,142.7z"/>
	<path id="Rectangle_2_" fill="#2288FF" d="M60,262.4h83c3.9,0,7,3.1,7,7v4.7c0,3.9-3.1,7-7,7H60c-3.9,0-7-3.1-7-7v-4.7
		C53,265.6,56.1,262.4,60,262.4z"/>
	<path id="Rectangle-Copy_2_" fill="#2288FF" d="M178,262.4h60c3.9,0,7,3.1,7,7v4.7c0,3.9-3.1,7-7,7h-60c-3.9,0-7-3.1-7-7v-4.7
		C171,265.6,174.1,262.4,178,262.4z"/>
	<path id="Rectangle-Copy-2_2_" fill="#2288FF" d="M273,262.4h15c3.9,0,7,3.1,7,7v4.7c0,3.9-3.1,7-7,7h-15c-3.9,0-7-3.1-7-7v-4.7
		C266,265.6,269.1,262.4,273,262.4z"/>
	<path id="Rectangle-Copy-5_3_" fill="#2288FF" d="M27.9,302.2h10.5c2.7,0,4.9,3.1,4.9,7v4.7c0,3.9-2.2,7-4.9,7H27.9
		c-2.7,0-4.9-3.1-4.9-7v-4.7C23,305.3,25.2,302.2,27.9,302.2z"/>
	<path id="Rectangle-Copy-5_4_" fill="#2288FF" d="M27.9,262.4h10.5c2.7,0,4.9,3.1,4.9,7v4.7c0,3.9-2.2,7-4.9,7H27.9
		c-2.7,0-4.9-3.1-4.9-7v-4.7C23,265.5,25.2,262.4,27.9,262.4z"/>
	<path id="Rectangle-Copy-5_5_" fill="#2288FF" d="M27.9,222.2h10.5c2.7,0,4.9,3.1,4.9,7v4.7c0,3.9-2.2,7-4.9,7H27.9
		c-2.7,0-4.9-3.1-4.9-7v-4.7C23,225.3,25.2,222.2,27.9,222.2z"/>
	<path id="Rectangle-Copy-5_6_" fill="#2288FF" d="M27.9,182.5h10.5c2.7,0,4.9,3.1,4.9,7v4.7c0,3.9-2.2,7-4.9,7H27.9
		c-2.7,0-4.9-3.1-4.9-7v-4.7C23,185.6,25.2,182.5,27.9,182.5z"/>
	<path id="Rectangle-Copy-5_7_" fill="#2288FF" d="M27.9,142.7h10.5c2.7,0,4.9,3.1,4.9,7v4.7c0,3.9-2.2,7-4.9,7H27.9
		c-2.7,0-4.9-3.1-4.9-7v-4.7C23,145.8,25.2,142.7,27.9,142.7z"/>
	<path id="Rectangle-Copy-5_8_" fill="#2288FF" d="M27.9,102.1h10.5c2.7,0,4.9,3.1,4.9,7v4.7c0,3.9-2.2,7-4.9,7H27.9
		c-2.7,0-4.9-3.1-4.9-7v-4.7C23,105.2,25.2,102.1,27.9,102.1z"/>
	<path id="Rectangle-Copy-5_9_" fill="#2288FF" d="M27.9,62.7h10.5c2.7,0,4.9,3.1,4.9,7v4.7c0,3.9-2.2,7-4.9,7H27.9
		c-2.7,0-4.9-3.1-4.9-7v-4.7C23,65.8,25.2,62.7,27.9,62.7z"/>
	<path id="Rectangle-Copy-5_10_" fill="#2288FF" d="M27.9,23h10.5c2.7,0,4.9,3.1,4.9,7v4.7c0,3.9-2.2,7-4.9,7H27.9
		c-2.7,0-4.9-3.1-4.9-7V30C23,26.1,25.2,23,27.9,23z"/>
	<path id="Rectangle-Copy-2_3_" fill="#2288FF" d="M284.5,222.2h15c3.9,0,7,3.1,7,7v4.7c0,3.9-3.1,7-7,7h-15c-3.9,0-7-3.1-7-7v-4.7
		C277.5,225.4,280.6,222.2,284.5,222.2z"/>
	<path id="Rectangle-Copy-2_4_" fill="#2288FF" d="M320.5,23h15c3.9,0,7,3.1,7,7v4.7c0,3.9-3.1,7-7,7h-15c-3.9,0-7-3.1-7-7V30
		C313.5,26.1,316.6,23,320.5,23z"/>
	<path id="Rectangle-Copy-2_5_" fill="#2288FF" d="M317.5,262.4h15c3.9,0,7,3.1,7,7v4.7c0,3.9-3.1,7-7,7h-15c-3.9,0-7-3.1-7-7v-4.7
		C310.5,265.5,313.6,262.4,317.5,262.4z"/>
	<path id="Rectangle-Copy-6_3_" fill="#2288FF" d="M317.5,182.5h60c3.9,0,7,3.1,7,7v4.7c0,3.9-3.1,7-7,7h-60c-3.9,0-7-3.1-7-7v-4.7
		C310.5,185.6,313.6,182.5,317.5,182.5z"/>
	<path id="Rectangle-Copy-6_4_" fill="#2288FF" d="M332,222.2h60c3.9,0,7,3.1,7,7v4.7c0,3.9-3.1,7-7,7h-60c-3.9,0-7-3.1-7-7v-4.7
		C325,225.3,328.1,222.2,332,222.2z"/>
	<path id="Rectangle-Copy-2_6_" fill="#2288FF" d="M317.5,302.2h15c3.9,0,7,3.1,7,7v4.7c0,3.9-3.1,7-7,7h-15c-3.9,0-7-3.1-7-7v-4.7
		C310.5,305.3,313.6,302.2,317.5,302.2z"/>
	<path id="Rectangle-Copy-6_5_" fill="#2288FF" d="M320.5,142.7h60c3.9,0,7,3.1,7,7v4.7c0,3.9-3.1,7-7,7h-60c-3.9,0-7-3.1-7-7v-4.7
		C313.5,145.9,316.6,142.7,320.5,142.7z"/>
	<path id="Rectangle-Copy-2_7_" fill="#2288FF" d="M317.5,62.7h15c3.9,0,7,3.1,7,7v4.7c0,3.9-3.1,7-7,7h-15c-3.9,0-7-3.1-7-7v-4.7
		C310.5,65.8,313.6,62.7,317.5,62.7z"/>
	<path id="Rectangle-Copy-10_2_" fill="#2288FF" d="M258,343.2h60c3.9,0,7,3.1,7,7v4.7c0,3.9-3.1,7-7,7h-60c-3.9,0-7-3.1-7-7v-4.7
		C251,346.3,254.1,343.2,258,343.2z"/>
	<path id="Rectangle-Copy-7_2_" fill="#2288FF" d="M60,343.2h60c3.9,0,7,3.1,7,7v4.7c0,3.9-3.1,7-7,7H60c-3.9,0-7-3.1-7-7v-4.7
		C53,346.3,56.1,343.2,60,343.2z"/>
	<path id="Rectangle-Copy-8_2_" fill="#2288FF" d="M150,342.8h15c3.9,0,7,3.1,7,7v4.7c0,3.9-3.1,7-7,7h-15c-3.9,0-7-3.1-7-7v-4.7
		C143,346,146.1,342.8,150,342.8z"/>
	<path id="Rectangle-Copy-9_1_" fill="#2288FF" d="M195,342.8h31c3.9,0,7,3.1,7,7v4.7c0,3.9-3.1,7-7,7h-31c-3.9,0-7-3.1-7-7v-4.7
		C188,346,191.1,342.8,195,342.8z"/>
	<path id="Rectangle-Copy-5_11_" fill="#2288FF" d="M27.9,342.8h10.5c2.7,0,4.9,3.1,4.9,7v4.7c0,3.9-2.2,7-4.9,7H27.9
		c-2.7,0-4.9-3.1-4.9-7v-4.7C23,345.9,25.2,342.8,27.9,342.8z"/>
	<path id="Rectangle-Copy-2_8_" fill="#2288FF" d="M349.5,102.1h15c3.9,0,7,3.1,7,7v4.7c0,3.9-3.1,7-7,7h-15c-3.9,0-7-3.1-7-7v-4.7
		C342.5,105.2,345.6,102.1,349.5,102.1z"/>
	<path id="Rectangle-Copy-2_9_" fill="#2288FF" d="M349.5,342.8h15c3.9,0,7,3.1,7,7v4.7c0,3.9-3.1,7-7,7h-15c-3.9,0-7-3.1-7-7v-4.7
		C342.5,345.9,345.6,342.8,349.5,342.8z"/>
</g>
<polyline id="Rectangle" fill="#2A2A2A" stroke="#2A2A2A" stroke-width="23.7006" stroke-linejoin="round" points="77,355 77,312 
	172,312 172,355 "/>
<polyline id="Path-6" fill="none" stroke="#2A2A2A" stroke-width="32.9175" stroke-linecap="round" stroke-linejoin="round" points="
	135.5,312 -26,146.2 138.1,39 212,121.9 "/>
<circle id="Oval" fill="#FFFFFF" stroke="#2A2A2A" stroke-width="16.83" stroke-linecap="round" stroke-linejoin="round" cx="-15" cy="149" r="23"/>
<circle id="Oval-Copy" fill="#FFFFFF" stroke="#2A2A2A" stroke-width="16.83" stroke-linecap="round" stroke-linejoin="round" cx="136" cy="49" r="23"/>
<circle id="Oval-Copy-2" fill="#FFFFFF" stroke="#2A2A2A" stroke-width="16.83" stroke-linecap="round" stroke-linejoin="round" cx="118" cy="293" r="23"/>
<polygon id="Page-1" fill="none" stroke="#2A2A2A" stroke-width="17" stroke-linecap="round" stroke-linejoin="round" points="
	193.1,159.3 232.3,196 177,162.6 253.2,89 283.6,146.5 249.4,105 "/>
</svg>
