<?xml version="1.0" encoding="utf-8"?>
<!-- Generator: Adobe Illustrator 22.0.1, SVG Export Plug-In . SVG Version: 6.00 Build 0)  -->
<svg version="1.1" baseProfile="tiny" id="Layer_1" xmlns="http://www.w3.org/2000/svg" xmlns:xlink="http://www.w3.org/1999/xlink"
	 x="0px" y="0px" viewBox="0 0 355 355" xml:space="preserve">
<title>Robots.Version</title>
<desc>Created with Sketch.</desc>
<g>
	<polyline id="Rectangle" fill="#2A2A2A" stroke="#2A2A2A" stroke-width="23.7006" stroke-linejoin="round" points="77,355 77,312 
		172,312 172,355 	"/>
	
		<polyline id="Path-6" fill="none" stroke="#2A2A2A" stroke-width="32.9175" stroke-linecap="round" stroke-linejoin="round" points="
		135.5,312 -26,146.2 138.1,39 212,121.9 	"/>
	<path id="v1" fill="#2288FF" d="M231.8,283.6l12.5-49.9h26L244.5,313h-25.2l-25.9-79.2h26.1L231.8,283.6z M332,313h-24.8v-78.8
		l-24.3,7.1v-18.8l46.8-16.2h2.3V313z"/>
	
		<circle id="Oval" fill="#FFFFFF" stroke="#2A2A2A" stroke-width="16.83" stroke-linecap="round" stroke-linejoin="round" cx="-15" cy="149" r="23"/>
	
		<circle id="Oval-Copy" fill="#FFFFFF" stroke="#2A2A2A" stroke-width="16.83" stroke-linecap="round" stroke-linejoin="round" cx="136" cy="49" r="23"/>
	
		<circle id="Oval-Copy-2" fill="#FFFFFF" stroke="#2A2A2A" stroke-width="16.83" stroke-linecap="round" stroke-linejoin="round" cx="118" cy="293" r="23"/>
	<polygon id="Page-1" fill="none" stroke="#2A2A2A" stroke-width="17" stroke-linecap="round" stroke-linejoin="round" points="
		193.1,159.3 232.3,196 177,162.6 253.2,89 283.6,146.5 249.4,105 	"/>
</g>
</svg>
