<?xml version="1.0" encoding="utf-8"?>
<!-- Generator: Adobe Illustrator 22.0.1, SVG Export Plug-In . SVG Version: 6.00 Build 0)  -->
<svg version="1.1" id="Layer_1" xmlns="http://www.w3.org/2000/svg" xmlns:xlink="http://www.w3.org/1999/xlink" x="0px" y="0px"
	 viewBox="0 0 355 355" style="enable-background:new 0 0 355 355;" xml:space="preserve">
<style type="text/css">
	.st0{fill:#2A2A2A;stroke:#2A2A2A;stroke-width:7;stroke-miterlimit:10;}
	.st1{fill:#2288FF;stroke:#2288FF;stroke-width:8;stroke-miterlimit:10;}
	.st2{fill:#FF6868;}
</style>
<g>
	<g>
		<path class="st0" d="M240.6,275c0.3,0,0.6,0,1-0.1c3.3-0.5,5.5-3.6,5-6.9c-2-12.3,3.1-16.5,10.1-22.3c5.3-4.4,11.4-9.4,12.9-18.4
			c0.8-4.3,2.8-19.3-3.5-30.1c-2.9-5-7.5-8.7-13.7-11c-4.3-1.6-9.4-2.5-15.4-2.8c-5.9-0.3-11.3,0.7-16,2.9
			c-5.2,2.4-9.3,6.3-12.4,11.5c-6.9,11.5-2.3,25.4,1.7,34.9c1.3,3,4.8,4.5,7.9,3.2c3-1.3,4.5-4.8,3.2-7.9c-4.8-11.2-5.5-18.8-2.4-24
			c3.7-6.2,9.4-9,17.6-8.6c10.3,0.5,16.7,3.1,19.4,7.9c3.4,5.9,3.2,15.6,2.1,22.1c-0.8,4.4-3.8,7.1-8.8,11.2
			c-3.8,3.1-8.1,6.7-11.1,11.9c-3.5,6-4.5,13.1-3.2,21.5C235.2,272.9,237.7,275,240.6,275z"/>
		<path class="st0" d="M244.6,317.6c1.7,0,3.5-0.1,5.2-0.4c5.2-0.9,10.1-3.1,14.6-6.6c8.6-6.7,8.8-15.9,9.1-24.8
			c0-1,0.1-1.9,0.1-2.9c0.1-3.3-2.5-6.1-5.8-6.2c-3.3-0.1-6.1,2.5-6.2,5.8c0,1-0.1,2.1-0.1,3c-0.2,8.4-0.5,12.6-4.5,15.7
			c-5.5,4.3-12,5.6-18.3,3.6c-7.2-2.3-13.1-8.7-15.4-16.7c-0.6-2.1-1.2-4.2-1.7-6.3c-2-7.6-3.8-14.8-8.7-22.5
			c-1.9-3-3.9-5.9-5.9-8.8c-4.1-5.9-7.9-11.4-10.6-17.7c-6.4-15.1-5.6-33.8,2-46.5c9-15,27.1-16.4,37.1-15.9
			c20.8,1.1,34,6.3,39.3,15.6c6.3,11,6.9,17.8,7,34.4c0,3.3,2.7,6,6,6c0,0,0,0,0,0c3.3,0,6-2.7,6-6c-0.1-16.8-0.6-26.3-8.6-40.3
			c-4.4-7.7-12.1-13.5-22.7-17.1c-7.3-2.5-15.9-3.9-26.3-4.5c-9.7-0.5-18.9,0.9-26.6,3.9c-9.3,3.7-16.5,9.7-21.4,17.8
			c-4.9,8.1-7.6,18-8,28.5c-0.3,10,1.5,20,5.2,28.8c3.1,7.4,7.5,13.7,11.8,19.8c1.9,2.7,3.8,5.5,5.6,8.3c3.9,6.2,5.5,12.2,7.3,19.2
			c0.5,2.1,1.1,4.3,1.8,6.6c1.7,5.8,4.7,11.2,8.8,15.5c4.1,4.3,9.1,7.5,14.4,9.2C238.2,317.1,241.4,317.6,244.6,317.6z"/>
		<path class="st1" d="M120.8,317.6c1.5,0,3.1-0.6,4.2-1.8c10.5-10.5,18.7-22.8,24.2-36.4c5.4-13.2,8.1-27.1,8.1-41.4
			c0-14.3-2.7-28.2-8.1-41.4c-5.5-13.7-13.7-25.9-24.2-36.4c-2.3-2.3-6.1-2.3-8.5,0c-2.3,2.3-2.3,6.1,0,8.5
			c38.3,38.3,38.3,100.5,0,138.8c-2.3,2.3-2.3,6.1,0,8.5C117.7,317,119.2,317.6,120.8,317.6z"/>
		<path class="st1" d="M94.6,302.9c1.5,0,3.1-0.6,4.2-1.8c8.5-8.5,15.1-18.5,19.6-29.5c4.3-10.7,6.5-22,6.5-33.6
			c0-11.6-2.2-22.9-6.5-33.6c-4.5-11.1-11.1-21-19.6-29.5c-2.3-2.3-6.1-2.3-8.5,0c-2.3,2.3-2.3,6.1,0,8.5
			c30.1,30.1,30.1,79.2,0,109.3c-2.3,2.3-2.3,6.1,0,8.5C91.6,302.3,93.1,302.9,94.6,302.9z"/>
		<path class="st1" d="M67.3,286.4c1.5,0,3.1-0.6,4.2-1.8c12.5-12.5,19.3-29,19.3-46.6s-6.9-34.2-19.3-46.6c-2.3-2.3-6.1-2.3-8.5,0
			c-2.3,2.3-2.3,6.1,0,8.5c21,21,21,55.3,0,76.3c-2.3,2.3-2.3,6.1,0,8.5C64.2,285.8,65.8,286.4,67.3,286.4z"/>
	</g>
	<path class="st2" d="M20.3,158.3c0,9.5,6.4,17.3,14.3,17.3s14.3-7.7,14.3-17.3v-51.8c0-19.1,12.8-37.6,28.6-37.6h200.1
		c15.8,0,28.6,18.5,28.6,37.6v51.8c0,9.5,6.4,17.3,14.3,17.3s14.3-7.7,14.3-17.3v-51.8c0-38.2-25.6-69.1-57.2-69.1H77.5
		c-31.6,0-57.2,30.9-57.2,69.1V158.3z"/>
</g>
</svg>
