<?xml version="1.0" encoding="utf-8"?>
<!-- Generator: Adobe Illustrator 22.0.1, SVG Export Plug-In . SVG Version: 6.00 Build 0)  -->
<svg version="1.1" id="Layer_1" xmlns="http://www.w3.org/2000/svg" xmlns:xlink="http://www.w3.org/1999/xlink" x="0px" y="0px"
	 viewBox="0 0 355 355" style="enable-background:new 0 0 355 355;" xml:space="preserve">
<style type="text/css">
	.st0{fill:none;stroke:#2A2A2A;stroke-width:13.8;stroke-linecap:round;stroke-linejoin:round;}
	.st1{fill:none;stroke:#2A2A2A;stroke-width:18;stroke-linecap:round;stroke-linejoin:round;}
	.st2{fill:none;stroke:#FF6868;stroke-width:18;stroke-linecap:round;stroke-miterlimit:10;}
	.st3{fill:none;stroke:#2A2A2A;stroke-width:9.2;stroke-linecap:round;stroke-linejoin:round;}
	.st4{fill:#2288FF;}
	.st5{fill:none;stroke:#2288FF;stroke-width:17;stroke-linecap:round;stroke-linejoin:round;}
</style>
<path id="Path-9-Copy" class="st0" d="M312.2,232.9h10"/>
<path id="Path-9_2_" class="st0" d="M180,89.7v10"/>
<path id="Path-9_3_" class="st0" d="M302.5,161.3l-8.7,5"/>
<path id="Path-9_4_" class="st0" d="M250.6,110.4l-5,8.7"/>
<path id="Path-10" class="st1" d="M24,288.8h308.2"/>
<path id="Path-11_1_" class="st2" d="M198,239.5l78.1-42.1"/>
<ellipse id="Oval-3_1_" class="st3" cx="178" cy="248" rx="16" ry="16.5"/>
<path class="st4" d="M123.8,157.8l16.9,15.7c1.7,1.6,1.8,4.1,0.2,5.8c-0.1,0.1-0.2,0.2-0.3,0.3l-17.5,15c-1.7,1.5-4.3,1.3-5.7-0.4
	c-0.7-0.8-1-1.7-1-2.8l0.6-30.7c0-2.2,1.9-4,4.2-4C122.1,156.7,123.1,157.1,123.8,157.8"/>
<line class="st5" x1="103.5" y1="133.7" x2="157" y2="133.7"/>
<line class="st5" x1="17.8" y1="218.4" x2="76.7" y2="218.4"/>
<path class="st1" d="M14.4,246.5c1.3,14.2,4.5,27.9,9.2,40.8l310.3,1.2c6.7-17.9,10.3-37.3,10.3-57.5c0-91.1-74-164.9-165.3-164.9
	c-36.8,0-70.8,12-98.3,32.3"/>
<line class="st5" x1="119.3" y1="175.9" x2="64.9" y2="175.9"/>
<path class="st4" d="M164.5,115.4l16.9,15.7c1.7,1.6,1.8,4.1,0.2,5.8c-0.1,0.1-0.2,0.2-0.3,0.3l-17.5,15c-1.7,1.5-4.3,1.3-5.7-0.4
	c-0.7-0.8-1-1.7-1-2.8l0.6-30.7c0-2.2,1.9-4,4.2-4C162.8,114.4,163.8,114.7,164.5,115.4"/>
<path class="st4" d="M82.9,200.1l16.9,15.7c1.7,1.6,1.8,4.1,0.2,5.8c-0.1,0.1-0.2,0.2-0.3,0.3l-17.5,15c-1.7,1.5-4.3,1.3-5.7-0.4
	c-0.7-0.8-1-1.7-1-2.8l0.6-30.7c0-2.2,1.9-4,4.2-4C81.2,199,82.2,199.4,82.9,200.1"/>
</svg>
