<?xml version="1.0" encoding="utf-8"?>
<!-- Generator: Adobe Illustrator 22.0.1, SVG Export Plug-In . SVG Version: 6.00 Build 0)  -->
<svg version="1.1" baseProfile="tiny" id="Layer_1" xmlns="http://www.w3.org/2000/svg" xmlns:xlink="http://www.w3.org/1999/xlink"
	 x="0px" y="0px" viewBox="0 0 355 355" xml:space="preserve">
<path fill="#FF6868" d="M20.3,158.3c0,9.5,6.4,17.3,14.3,17.3s14.3-7.7,14.3-17.3v-51.8c0-19.1,12.8-37.6,28.6-37.6h200.1
	c15.8,0,28.6,18.5,28.6,37.6v51.8c0,9.5,6.4,17.3,14.3,17.3s14.3-7.7,14.3-17.3v-51.8c0-38.2-25.6-69.1-57.2-69.1H77.5
	c-31.6,0-57.2,30.9-57.2,69.1V158.3z"/>
<path fill="#2288FF" d="M180,329.8c9.5,0,17.3-7.7,17.3-17.3V180l39.9,38.2c6.9,6.6,17.8,6.4,24.5-0.5c6.6-6.9,6.4-17.8-0.5-24.5
	l0,0L192,127.1c-6.7-6.4-17.2-6.4-23.9,0L99,193.2c-6.9,6.6-7.1,17.6-0.5,24.5s17.6,7.1,24.5,0.5l39.9-38.2v132.5
	C162.7,322.1,170.4,329.8,180,329.8z"/>
</svg>
