<?xml version="1.0" encoding="utf-8"?>
<!-- Generator: Adobe Illustrator 22.0.1, SVG Export Plug-In . SVG Version: 6.00 Build 0)  -->
<svg version="1.1" id="Layer_1" xmlns="http://www.w3.org/2000/svg" xmlns:xlink="http://www.w3.org/1999/xlink" x="0px" y="0px"
	 viewBox="0 0 355 355" style="enable-background:new 0 0 355 355;" xml:space="preserve">
<style type="text/css">
	.st0{fill:#FF6868;}
	.st1{fill:#2288FF;stroke:#2288FF;stroke-miterlimit:10;}
	.st2{fill:none;stroke:#2288FF;stroke-width:17;stroke-linecap:round;stroke-linejoin:round;}
</style>
<path class="st0" d="M20.3,167c0,9.5,6.4,17.3,14.3,17.3s14.3-7.7,14.3-17.3v-51.8c0-19.1,12.8-37.6,28.6-37.6h200.1
	c15.8,0,28.6,18.5,28.6,37.6V167c0,9.5,6.4,17.3,14.3,17.3c7.9,0,14.3-7.7,14.3-17.3v-51.8c0-38.2-25.6-69.1-57.2-69.1H77.5
	c-31.6,0-57.2,30.9-57.2,69.1V167z"/>
<g>
	<path class="st1" d="M81.3,252.9c2.5,27,21.2,48,44,48.1c0.3,0,30.5,0,30.9,0l0-19.6h23.3c4.8,0,8.7-4.8,8.7-10.7
		c0-5.9-3.9-10.7-8.7-10.7l-23.3,0v-26.3l23.3,0c4.8,0,8.7-4.8,8.7-10.7c0-5.9-3.9-10.7-8.7-10.7l-23.3,0l0-19.6
		c-0.3,0-30.5,0-30.9,0c-22.8,0-41.6,21-44,48.1"/>
	<path class="st1" d="M273.7,240.8c-2.5-27-21.2-48.1-44-48c-0.3,0-30.5,0-30.9,0l0,19.6l19.8,0c4.8,0,8.7,4.8,8.7,10.7
		c0,5.9-3.9,10.7-8.7,10.7l-19.8,0l0,26.3l19.8,0c4.8,0,8.7,4.8,8.7,10.7c0,5.9-3.9,10.7-8.7,10.7h-19.8l0,19.6c0.3,0,30.5,0,30.9,0
		c22.8,0,41.6-21,44-48.1"/>
</g>
<line class="st2" x1="34.2" y1="246.9" x2="87.7" y2="246.9"/>
<line class="st2" x1="265.5" y1="251.3" x2="319" y2="251.3"/>
</svg>
