<?xml version="1.0" encoding="utf-8"?>
<!-- Generator: Adobe Illustrator 22.0.1, SVG Export Plug-In . SVG Version: 6.00 Build 0)  -->
<svg version="1.1" baseProfile="tiny" id="Layer_1" xmlns="http://www.w3.org/2000/svg" xmlns:xlink="http://www.w3.org/1999/xlink"
	 x="0px" y="0px" viewBox="0 0 355 355" xml:space="preserve">
<path id="Path-9" fill="none" stroke="#2A2A2A" stroke-width="13.8" stroke-linecap="round" stroke-linejoin="round" d="M37.6,232.9
	h10"/>
<path id="Path-9-Copy" fill="none" stroke="#2A2A2A" stroke-width="13.8" stroke-linecap="round" stroke-linejoin="round" d="
	M312.6,232.9h10"/>
<path id="Path-9_2_" fill="none" stroke="#2A2A2A" stroke-width="13.8" stroke-linecap="round" stroke-linejoin="round" d="
	M180.6,89.9v10"/>
<path id="Path-9_3_" fill="none" stroke="#2A2A2A" stroke-width="13.8" stroke-linecap="round" stroke-linejoin="round" d="
	M302.9,161.4l-8.7,5"/>
<path id="Path-9_4_" fill="none" stroke="#2A2A2A" stroke-width="13.8" stroke-linecap="round" stroke-linejoin="round" d="
	M251.1,110.6l-5,8.7"/>
<path id="Path-10" fill="none" stroke="#2A2A2A" stroke-width="18" stroke-linecap="round" stroke-linejoin="round" d="M24.9,288.6
	h307.7"/>
<path id="Path-11" fill="none" stroke="#2A2A2A" stroke-width="18" stroke-linecap="round" stroke-linejoin="round" d="M160.6,237.4
	l-76-40"/>
<path id="Path-11_1_" fill="none" stroke="#FF6868" stroke-width="18" stroke-linecap="round" stroke-linejoin="round" d="
	M198.6,239.4l78-42"/>
<ellipse id="Oval-3_1_" fill="none" stroke="#2A2A2A" stroke-width="9.2" stroke-linecap="round" stroke-linejoin="round" cx="178.6" cy="247.9" rx="16" ry="16.5"/>
<path id="Stroke-3" fill="none" stroke="#2288FF" stroke-width="17" stroke-linecap="round" stroke-linejoin="round" d="
	M229.1,169.7c-15.5-13.6-35.9-21.8-58.3-21.8c-24.6,0-46.8,10-62.7,26"/>
<path fill="#2288FF" d="M247.9,147.7l-2.6,39.3c-0.3,3.9-3.6,6.8-7.4,6.5c-0.3,0-0.5-0.1-0.8-0.1l-38.8-7c-3.8-0.7-6.3-4.3-5.6-8.1
	c0.3-1.7,1.2-3.2,2.6-4.3l41.4-32.3c3-2.4,7.4-1.8,9.8,1.2C247.5,144.3,248.1,146,247.9,147.7"/>
<path fill="none" stroke="#2A2A2A" stroke-width="18" stroke-linecap="round" stroke-linejoin="round" d="M21.5,183.8
	c-4.5,14.9-6.9,30.7-6.9,47.1c0,19.8,3.5,38.7,9.9,56.2l309.8,1.2c6.7-17.9,10.3-37.2,10.3-57.4c0-90.9-73.9-164.6-165-164.6
	c-18.1,0-35.5,2.9-51.7,8.3"/>
<path fill="#FF6868" d="M109.9,80.2l-1.5,22.7c-0.2,2.3-2.1,3.9-4.3,3.8c-0.2,0-0.3-0.1-0.5-0.1l-22.4-4.1c-2.2-0.4-3.6-2.5-3.2-4.7
	c0.2-1,0.7-1.9,1.5-2.5l23.9-18.7c1.7-1.4,4.3-1,5.7,0.7C109.6,78.3,110,79.3,109.9,80.2"/>
<path fill="#FF6868" d="M10.6,160.5l5.3-24.8c0.6-2.5,2.9-4,5.3-3.5c0.2,0,0.3,0.1,0.5,0.1l24.1,8.1c2.4,0.8,3.6,3.3,2.8,5.7
	c-0.3,1.1-1.1,1.9-2.1,2.5l-29.4,16.7c-2.1,1.2-4.9,0.5-6.1-1.7C10.5,162.7,10.3,161.5,10.6,160.5"/>
<path fill="none" stroke="#FF6868" stroke-width="18" stroke-linecap="round" stroke-linejoin="round" d="M99.1,96.1
	c-7.8-12.7-21.9-21.2-37.9-21.2c-24.1,0-43.8,19.2-44.4,43.2"/>
<path fill="none" stroke="#FF6868" stroke-width="18" stroke-linecap="round" stroke-linejoin="round" d="M24.2,143.9
	c8,12,21.6,19.8,37,19.8c23,0,42-17.5,44.2-40"/>
</svg>
