<?xml version="1.0" encoding="utf-8"?>
<!-- Generator: Adobe Illustrator 22.0.1, SVG Export Plug-In . SVG Version: 6.00 Build 0)  -->
<svg version="1.1" id="Layer_1" xmlns="http://www.w3.org/2000/svg" xmlns:xlink="http://www.w3.org/1999/xlink" x="0px" y="0px"
	 viewBox="0 0 355 355" style="enable-background:new 0 0 355 355;" xml:space="preserve">
<style type="text/css">
	.st0{fill:#2288FF;}
	.st1{fill:#FF6868;}
</style>
<path id="Rectangle-Copy-7" class="st0" d="M30,108h60c3.9,0,7,3.1,7,7v4.7c0,3.9-3.1,7-7,7H30c-3.9,0-7-3.1-7-7V115
	C23,111.1,26.1,108,30,108z"/>
<path id="Rectangle-Copy-8" class="st0" d="M120,107.6h15c3.9,0,7,3.1,7,7v4.7c0,3.9-3.1,7-7,7h-15c-3.9,0-7-3.1-7-7v-4.7
	C113,110.8,116.1,107.6,120,107.6z"/>
<path id="Rectangle-Copy-9" class="st0" d="M165,107.6h31c3.9,0,7,3.1,7,7v4.7c0,3.9-3.1,7-7,7h-31c-3.9,0-7-3.1-7-7v-4.7
	C158,110.8,161.1,107.6,165,107.6z"/>
<path id="Rectangle-Copy-10_1_" class="st0" d="M228,227.7h60c3.9,0,7,3.1,7,7v4.7c0,3.9-3.1,7-7,7h-60c-3.9,0-7-3.1-7-7v-4.7
	C221,230.8,224.1,227.7,228,227.7z"/>
<path id="Rectangle-Copy-7_1_" class="st0" d="M30,227.7h60c3.9,0,7,3.1,7,7v4.7c0,3.9-3.1,7-7,7H30c-3.9,0-7-3.1-7-7v-4.7
	C23,230.8,26.1,227.7,30,227.7z"/>
<path id="Rectangle-Copy-8_1_" class="st0" d="M120.3,227.7h15c3.9,0,7,3.1,7,7v4.7c0,3.9-3.1,7-7,7h-15c-3.9,0-7-3.1-7-7v-4.7
	C113.3,230.8,116.5,227.7,120.3,227.7z"/>
<path id="Rectangle-Copy-4" class="st0" d="M78.5,68.2h83c3.9,0,7,3.1,7,7v4.7c0,3.9-3.1,7-7,7h-83c-3.9,0-7-3.1-7-7v-4.7
	C71.5,71.4,74.6,68.2,78.5,68.2z"/>
<path id="Rectangle-Copy-5" class="st0" d="M30,68.2h15c3.9,0,7,3.1,7,7v4.7c0,3.9-3.1,7-7,7H30c-3.9,0-7-3.1-7-7v-4.7
	C23,71.4,26.1,68.2,30,68.2z"/>
<path id="Rectangle-Copy-4_1_" class="st0" d="M78.5,188h83c3.9,0,7,3.1,7,7v4.7c0,3.9-3.1,7-7,7h-83c-3.9,0-7-3.1-7-7V195
	C71.5,191.1,74.6,188,78.5,188z"/>
<path id="Rectangle-Copy-6_1_" class="st0" d="M195,188h60c3.9,0,7,3.1,7,7v4.7c0,3.9-3.1,7-7,7h-60c-3.9,0-7-3.1-7-7V195
	C188,191.1,191.1,188,195,188z"/>
<path id="Rectangle-Copy-5_1_" class="st0" d="M30,188h15c3.9,0,7,3.1,7,7v4.7c0,3.9-3.1,7-7,7H30c-3.9,0-7-3.1-7-7V195
	C23,191.1,26.1,188,30,188z"/>
<path id="Rectangle-Copy-4_2_" class="st0" d="M78.5,307.8h83c3.9,0,7,3.1,7,7v4.7c0,3.9-3.1,7-7,7h-83c-3.9,0-7-3.1-7-7v-4.7
	C71.5,310.8,74.6,307.8,78.5,307.8z"/>
<path id="Rectangle-Copy-6_2_" class="st0" d="M195,307.8h60c3.9,0,7,3.1,7,7v4.7c0,3.9-3.1,7-7,7h-60c-3.9,0-7-3.1-7-7v-4.7
	C188,310.8,191.1,307.8,195,307.8z"/>
<path id="Rectangle-Copy-5_2_" class="st0" d="M30,307.8h15c3.9,0,7,3.1,7,7v4.7c0,3.9-3.1,7-7,7H30c-3.9,0-7-3.1-7-7v-4.7
	C23,310.8,26.1,307.8,30,307.8z"/>
<path id="Rectangle" class="st0" d="M30,28.5h83c3.9,0,7,3.1,7,7v4.7c0,3.9-3.1,7-7,7H30c-3.9,0-7-3.1-7-7v-4.7
	C23,31.6,26.1,28.5,30,28.5z"/>
<path id="Rectangle-Copy" class="st0" d="M148,28.5h60c3.9,0,7,3.1,7,7v4.7c0,3.9-3.1,7-7,7h-60c-3.9,0-7-3.1-7-7v-4.7
	C141,31.6,144.1,28.5,148,28.5z"/>
<path id="Rectangle_1_" class="st0" d="M30,148.2h83c3.9,0,7,3.1,7,7v4.7c0,3.9-3.1,7-7,7H30c-3.9,0-7-3.1-7-7v-4.7
	C23,151.3,26.1,148.2,30,148.2z"/>
<path id="Rectangle-Copy_1_" class="st0" d="M148,148.2h60c3.9,0,7,3.1,7,7v4.7c0,3.9-3.1,7-7,7h-60c-3.9,0-7-3.1-7-7v-4.7
	C141,151.3,144.1,148.2,148,148.2z"/>
<path id="Rectangle-Copy-2_1_" class="st0" d="M243,148.2h15c3.9,0,7,3.1,7,7v4.7c0,3.9-3.1,7-7,7h-15c-3.9,0-7-3.1-7-7v-4.7
	C236,151.3,239.1,148.2,243,148.2z"/>
<path id="Rectangle-Copy-3_1_" class="st0" d="M293,148.2h32c3.9,0,7,3.1,7,7v4.7c0,3.9-3.1,7-7,7h-32c-3.9,0-7-3.1-7-7v-4.7
	C286,151.3,289.1,148.2,293,148.2z"/>
<path id="Rectangle_2_" class="st0" d="M30,267.9h83c3.9,0,7,3.1,7,7v4.7c0,3.9-3.1,7-7,7H30c-3.9,0-7-3.1-7-7v-4.7
	C23,271.1,26.1,267.9,30,267.9z"/>
<path id="Rectangle-Copy_2_" class="st0" d="M148,267.9h60c3.9,0,7,3.1,7,7v4.7c0,3.9-3.1,7-7,7h-60c-3.9,0-7-3.1-7-7v-4.7
	C141,271.1,144.1,267.9,148,267.9z"/>
<path id="Rectangle-Copy-2_2_" class="st0" d="M243,267.9h15c3.9,0,7,3.1,7,7v4.7c0,3.9-3.1,7-7,7h-15c-3.9,0-7-3.1-7-7v-4.7
	C236,271.1,239.1,267.9,243,267.9z"/>
<path id="Rectangle-Copy-3_2_" class="st0" d="M293,267.9h32c3.9,0,7,3.1,7,7v4.7c0,3.9-3.1,7-7,7h-32c-3.9,0-7-3.1-7-7v-4.7
	C286,271.1,289.1,267.9,293,267.9z"/>
<path id="_x2B__1_" class="st1" d="M291.8,72.7h31.7c3.9,0,7,3.1,7,7v12.8c0,3.9-3.1,7-7,7h-31.7v36.6c0,3.9-3.1,7-7,7h-14
	c-3.9,0-7-3.1-7-7V99.6H232c-3.9,0-7-3.1-7-7V79.7c0-3.9,3.1-7,7-7h31.8V38.1c0-3.9,3.1-7,7-7h14c3.9,0,7,3.1,7,7V72.7z"/>
</svg>
