<?xml version="1.0" encoding="utf-8"?>
<!-- Generator: Adobe Illustrator 22.0.1, SVG Export Plug-In . SVG Version: 6.00 Build 0)  -->
<svg version="1.1" id="Layer_1" xmlns="http://www.w3.org/2000/svg" xmlns:xlink="http://www.w3.org/1999/xlink" x="0px" y="0px"
	 viewBox="0 0 355 355" style="enable-background:new 0 0 355 355;" xml:space="preserve">
<style type="text/css">
	.st0{fill:none;stroke:#2A2A2A;stroke-width:13.8;stroke-linecap:round;stroke-linejoin:round;}
	.st1{fill:none;stroke:#2A2A2A;stroke-width:18;stroke-linecap:round;stroke-linejoin:round;}
	.st2{fill:none;stroke:#FF6868;stroke-width:18;stroke-linecap:round;stroke-miterlimit:10;}
	.st3{fill:none;stroke:#2A2A2A;stroke-width:9.2;stroke-linecap:round;stroke-linejoin:round;}
	.st4{fill:#2288FF;}
	.st5{fill:none;stroke:#2288FF;stroke-width:17;stroke-linecap:round;stroke-linejoin:round;}
	.st6{fill:none;}
	.st7{fill:none;stroke:#2A2A2A;stroke-width:7;stroke-linecap:round;stroke-linejoin:round;}
	.st8{fill:#FF6868;stroke:#FF6868;stroke-width:3;stroke-miterlimit:10;}
</style>
<path id="Path-9-Copy" class="st0" d="M310.4,232.9h10"/>
<path id="Path-9_2_" class="st0" d="M178.2,89.8v10"/>
<path id="Path-9_3_" class="st0" d="M300.7,161.4l-8.7,5"/>
<path id="Path-9_4_" class="st0" d="M248.8,110.5l-5,8.7"/>
<path id="Path-10" class="st1" d="M22.2,288.8h308.2"/>
<path id="Path-11_1_" class="st2" d="M196.2,239.6l78.1-42.1"/>
<ellipse id="Oval-3_1_" class="st3" cx="176.2" cy="248.1" rx="16" ry="16.5"/>
<path class="st4" d="M183,157.9l16.9,15.7c1.7,1.6,1.8,4.1,0.2,5.8c-0.1,0.1-0.2,0.2-0.3,0.3l-17.5,15c-1.7,1.5-4.3,1.3-5.7-0.4
	c-0.7-0.8-1-1.7-1-2.8l0.6-30.7c0-2.2,1.9-4,4.2-4C181.3,156.8,182.3,157.2,183,157.9"/>
<line class="st5" x1="162.7" y1="133.8" x2="216.2" y2="133.8"/>
<path class="st1" d="M12.6,246.6c1.3,14.2,4.5,27.9,9.2,40.8l310.3,1.2c6.7-17.9,10.3-37.3,10.3-57.5c0-91.1-74-164.9-165.3-164.9
	c-36.8,0-70.8,12-98.3,32.3"/>
<line class="st5" x1="178.5" y1="175.9" x2="143.3" y2="175.9"/>
<path class="st4" d="M223.7,115.5l16.9,15.7c1.7,1.6,1.8,4.1,0.2,5.8c-0.1,0.1-0.2,0.2-0.3,0.3l-17.5,15c-1.7,1.5-4.3,1.3-5.7-0.4
	c-0.7-0.8-1-1.7-1-2.8l0.6-30.7c0-2.2,1.9-4,4.2-4C222,114.5,223,114.8,223.7,115.5"/>
<path class="st6" d="M-2.3,169.8l-20.2,16.5c-16.6,11.8-12.9,21.1-10.5,24.6l0.2,0.4c0.2,0.2,3,5.4,9.8,6.3c5.7,0.7,12.6-1.7,20.5-7
	h0.2L30,191.1c-9.1-1.8-17.2-8-22.6-12.9L-2.3,169.8z M-11.4,206.8c-2,5.2-8,7.8-13.1,5.7c-5.2-2-7.8-8-5.7-13.1
	c2-5.2,8-7.8,13.1-5.7C-11.9,195.7-9.4,201.5-11.4,206.8z"/>
<path class="st6" d="M88.5,166.2c5.5-3.9,12.2-5.5,18.9-4.8c0.9,0.2,1.8,0.4,2.8,0.6c-0.4-0.4-0.9-0.9-1.5-1.3l-0.2-0.2l-47.2-51.6
	l-2.6-2.8c-4.3-4.1-9.6-6.5-15.4-7.2c-8.9-1.1-17.8,2-23.9,8.5c-5.2,5.4-7.8,12.6-7.6,20c0.2,7.4,3.3,14.2,8.7,19.2l3.3,2.8
	l42.7,34.8L88.5,166.2z M63.6,131.3c-2,12.4-13.9,20.7-26.3,18.7c-3.9-0.7-7.2-2.2-10.2-4.4c-6.5-5-10-13.3-8.5-21.8
	c2-12.4,13.9-20.7,26.3-18.7c5.2,0.9,9.6,3.5,12.9,7C62.4,117,64.7,124.1,63.6,131.3z"/>
<path class="st6" d="M106.7,167.4c-5.2-0.6-10.2,0.6-14.6,3.7l-20.5,16.8l9.1,7.4c7.2,6.8,15,11.1,21.5,11.8c2.6,0.4,4.8,0.2,7-0.6
	l5.5-3.3c0.7-0.6,1.3-0.9,2-1.5l1.1-1.7c5.2-5.5,6.5-15.5,0.9-26.1C115.9,170.3,111.5,168.1,106.7,167.4z M117.2,190.3
	c-1.3,7.8-8.9,13.1-16.6,11.8s-13.1-8.7-11.8-16.6c1.3-7.8,8.7-13.1,16.6-11.8C113.1,175.1,118.5,182.5,117.2,190.3z"/>
<path class="st3" d="M104.9,176.6c-6.2-1-12.2,3.1-13.2,9.4c-1,6.2,3.1,12.2,9.4,13.2c6.2,1,12.2-3.1,13.2-9.4
	C115.3,183.6,111,177.8,104.9,176.6z"/>
<path class="st7" d="M48.8,220.4c-2.9-0.5-5.8,1.5-6.3,4.5c-0.5,2.9,1.5,5.8,4.5,6.3c2.9,0.5,5.8-1.5,6.3-4.5
	C53.7,223.8,51.7,221,48.8,220.4z"/>
<path class="st8" d="M125,172c-0.4-0.7-0.9-1.3-1.5-1.8c-2.8-5-6.5-9.8-10.7-13.7L63,102.1l-0.2-0.2c-5.2-5-11.7-8-18.9-8.9
	c-10.5-1.3-21.5,2.6-28.9,10.4C9,109.8,5.7,118.5,6,127.6c0.2,9.1,4.1,17.4,10.7,23.5l45.3,36.8L43,203.4
	C28.4,213.8,24,226,31.2,236c0.7,1.3,5,8,14.2,9.2c7.2,0.9,15.5-1.8,24.6-8l41.8-25.2c3.5-1.1,6.5-3.3,9.2-6.1l0,0
	c4.1-3.9,6.8-8.9,8-14.4C130.3,184.4,128.9,177.5,125,172z M24,149.4l-3.3-2.8c-5.4-5-8.5-11.8-8.7-19.2s2.4-14.4,7.6-20
	c6.1-6.5,15-9.6,23.9-8.5c5.7,0.7,11.1,3.3,15.4,7.2l2.6,2.8l47.2,51.6l0.2,0.2c0.6,0.4,0.9,0.9,1.5,1.3c-0.9-0.2-1.8-0.4-2.8-0.6
	c-6.7-0.9-13.3,0.9-18.9,4.8L66.7,184L24,149.4z M66.7,232.1L66.7,232.1c-8,5.5-15,8-20.7,7.2c-6.7-0.9-9.6-5.9-9.6-6.3l-0.4-0.2
	c-2.4-3.5-6.3-12.8,10.5-24.6l20.2-16.5l9.8,8c5.4,5,13.5,11.1,22.6,12.9L66.7,232.1z M117.9,200.1l-1.1,1.7c-0.6,0.6-1.3,1.1-2,1.5
	l-5.5,3.3c-2.2,0.7-4.6,0.9-7,0.6c-6.7-0.9-14.2-5-21.5-11.8l-9.1-7.4l20.5-16.8c4.3-3,9.4-4.3,14.6-3.7c5,0.6,9.2,3,12.4,6.7
	C124.4,184.6,123.1,194.6,117.9,200.1z"/>
<path class="st3" d="M44.3,108.6c-10.4-1.7-20.2,5.3-22.1,15.7c-1.2,7.2,1.7,14.2,7.2,18.4c2.3,1.9,5.3,3.1,8.6,3.7
	c10.4,1.7,20.4-5.3,22.1-15.7c1.1-6.1-0.9-11.8-4.7-16.2C52.4,111.4,48.6,109.2,44.3,108.6z"/>
<path class="st4" d="M142.7,205.2l16.9,15.7c1.7,1.6,1.8,4.1,0.2,5.8c-0.1,0.1-0.2,0.2-0.3,0.3L142,242c-1.7,1.5-4.3,1.3-5.7-0.4
	c-0.7-0.8-1-1.7-1-2.8l0.6-30.7c0-2.2,1.9-4,4.2-4C141,204.1,142,204.5,142.7,205.2"/>
<line class="st5" x1="138.2" y1="223.3" x2="120" y2="223.3"/>
</svg>
