<?xml version="1.0" encoding="utf-8"?>
<!-- Generator: Adobe Illustrator 22.0.1, SVG Export Plug-In . SVG Version: 6.00 Build 0)  -->
<svg version="1.1" id="Layer_1" xmlns="http://www.w3.org/2000/svg" xmlns:xlink="http://www.w3.org/1999/xlink" x="0px" y="0px"
	 viewBox="0 0 355 355" style="enable-background:new 0 0 355 355;" xml:space="preserve">
<style type="text/css">
	.st0{fill:#3399FF;}
	.st1{fill:#BFBFBF;}
	.st2{fill:#FF6868;stroke:#BFBFBF;stroke-width:16;stroke-miterlimit:10;}
	.st3{fill:#FF6868;}
	.st4{fill:#2A2A2A;stroke:#2A2A2A;stroke-width:10;stroke-linejoin:round;}
	.st5{fill:none;stroke:#2A2A2A;stroke-width:16;stroke-linecap:round;stroke-linejoin:round;}
	.st6{fill:#FFFFFF;stroke:#2A2A2A;stroke-width:9;stroke-linecap:round;stroke-linejoin:round;}
	.st7{fill:none;stroke:#2A2A2A;stroke-width:9;stroke-linecap:round;stroke-linejoin:round;}
</style>
<path class="st0" d="M343.6,322.8c3.5,4.5,3.4,11.5-0.3,15.7l-93.4,0c-8.1,1-13-0.2-16.5-4.7L11.4,53C7.9,48.6,8,41.5,11.7,37.3
	l92.5-0.6c8.1-0.3,14.6,2.3,18.1,6.7L343.6,322.8z"/>
<path class="st1" d="M77.1,95.7l1.5-30.8c0.2-3.1,2.7-5.4,5.7-5.2c0.2,0,0.4,0.1,0.6,0.1l30.5,5c3,0.5,5,3.3,4.5,6.3
	c-0.2,1.3-0.9,2.5-2,3.4l-32,25.8c-2.3,1.9-5.8,1.5-7.7-0.8C77.4,98.3,76.9,97,77.1,95.7"/>
<line class="st2" x1="88.5" y1="71.3" x2="274.7" y2="306"/>
<path class="st1" d="M288.4,283.8l-1.7,29.5c-0.2,2.9-3,5.1-6.3,5c-0.3,0-0.4-0.1-0.7-0.1l-33.7-4.8c-3.3-0.5-5.5-3.1-5-6
	c0.2-1.3,1-2.4,2.2-3.3l35.4-24.7c2.6-1.8,6.4-1.4,8.5,0.8C288,281.3,288.6,282.6,288.4,283.8"/>
<path id="_x2B__2_" class="st3" d="M87.8,254.6h31.7c3.9,0,7,3.1,7,7v12.8c0,3.9-3.1,7-7,7H87.8V318c0,3.9-3.1,7-7,7h-14
	c-3.9,0-7-3.1-7-7v-36.5H28c-3.9,0-7-3.1-7-7v-12.9c0-3.9,3.1-7,7-7h31.8V220c0-3.9,3.1-7,7-7h14c3.9,0,7,3.1,7,7V254.6z"/>
<polyline id="Rectangle_4_" class="st4" points="162.8,220.5 162.8,196.1 221,197.3 221,221.2 "/>
<polyline id="Path-6_1_" class="st5" points="201.6,212.1 156.1,110.6 248,89.5 267.6,139.1 "/>
<circle id="Oval_1_" class="st6" cx="160.6" cy="114.1" r="11.1"/>
<circle id="Oval-Copy_1_" class="st6" cx="245.2" cy="93.8" r="11.1"/>
<polygon id="Page-1_1_" class="st7" points="251.5,154.5 262.9,177.2 243.8,153.3 289.6,133 293.8,163.5 285.3,139.5 "/>
</svg>
