<?xml version="1.0" encoding="utf-8"?>
<!-- Generator: Adobe Illustrator 22.0.1, SVG Export Plug-In . SVG Version: 6.00 Build 0)  -->
<svg version="1.1" id="Layer_1" xmlns="http://www.w3.org/2000/svg" xmlns:xlink="http://www.w3.org/1999/xlink" x="0px" y="0px"
	 viewBox="0 0 355 355" style="enable-background:new 0 0 355 355;" xml:space="preserve">
<style type="text/css">
	.st0{fill:none;}
	.st1{fill:none;stroke:#2A2A2A;stroke-width:9.2;stroke-linecap:round;stroke-linejoin:round;}
	.st2{fill:none;stroke:#2A2A2A;stroke-width:7;stroke-linecap:round;stroke-linejoin:round;}
	.st3{fill:#FF6868;stroke:#FF6868;stroke-width:3;stroke-miterlimit:10;}
	.st4{fill:none;stroke:#2A2A2A;stroke-width:13.8;stroke-linecap:round;stroke-linejoin:round;}
	.st5{fill:none;stroke:#2A2A2A;stroke-width:18;stroke-linecap:round;stroke-linejoin:round;}
	.st6{fill:none;stroke:#FF6868;stroke-width:18;stroke-linecap:round;stroke-linejoin:round;}
	.st7{fill:none;stroke:#2288FF;stroke-width:17;stroke-linecap:round;stroke-linejoin:round;}
	.st8{fill:#2288FF;}
</style>
<g>
	<path class="st0" d="M90.7,97c5.5-3.9,12.2-5.5,18.9-4.8c0.9,0.2,1.8,0.4,2.8,0.6c-0.4-0.4-0.9-0.9-1.5-1.3l-0.2-0.2L63.5,39.7
		l-2.6-2.8c-4.3-4.1-9.6-6.5-15.4-7.2c-8.9-1.1-17.8,2-23.9,8.5c-5.2,5.4-7.8,12.6-7.6,20c0.2,7.4,3.3,14.2,8.7,19.2l3.3,2.8
		L68.8,115L90.7,97z M65.7,62.1c-2,12.4-13.9,20.7-26.3,18.7c-3.9-0.7-7.2-2.2-10.2-4.4c-6.5-5-10-13.3-8.5-21.8
		c2-12.4,13.9-20.7,26.3-18.7c5.2,0.9,9.6,3.5,12.9,7C64.6,47.8,66.8,54.8,65.7,62.1z"/>
	<path class="st0" d="M108.8,98.1c-5.2-0.6-10.2,0.6-14.6,3.7l-20.5,16.8l9.1,7.4c7.2,6.8,15,11.1,21.5,11.8c2.6,0.4,4.8,0.2,7-0.6
		l5.5-3.3c0.7-0.6,1.3-0.9,2-1.5l1.1-1.7c5.2-5.5,6.5-15.5,0.9-26.1C118,101.1,113.6,98.9,108.8,98.1z M119.3,121.1
		c-1.3,7.8-8.9,13.1-16.6,11.8c-7.8-1.3-13.1-8.7-11.8-16.6c1.3-7.8,8.7-13.1,16.6-11.8C115.3,105.9,120.6,113.3,119.3,121.1z"/>
	<path class="st1" d="M107,107.4c-6.2-1-12.2,3.1-13.2,9.4c-1,6.2,3.1,12.2,9.4,13.2c6.2,1,12.2-3.1,13.2-9.4
		C117.4,114.4,113.1,108.5,107,107.4z"/>
	<path class="st2" d="M50.9,151.2c-2.9-0.5-5.8,1.5-6.3,4.5c-0.5,2.9,1.5,5.8,4.5,6.3c2.9,0.5,5.8-1.5,6.3-4.5
		C55.8,154.6,53.8,151.8,50.9,151.2z"/>
	<path class="st3" d="M127.1,102.8c-0.4-0.7-0.9-1.3-1.5-1.8c-2.8-5-6.5-9.8-10.7-13.7L65.1,32.8l-0.2-0.2c-5.2-5-11.7-8-18.9-8.9
		c-10.5-1.3-21.5,2.6-28.9,10.4c-6.1,6.5-9.4,15.2-9.1,24.2c0.2,9.1,4.1,17.4,10.7,23.5l45.3,36.8l-19.1,15.5
		c-14.6,10.4-19.1,22.6-11.8,32.6c0.7,1.3,5,8,14.2,9.2c7.2,0.9,15.5-1.8,24.6-8l41.8-25.2c3.5-1.1,6.5-3.3,9.2-6.1l0,0
		c4.1-3.9,6.8-8.9,8-14.4C132.5,115.1,131,108.3,127.1,102.8z M26.1,80.2l-3.3-2.8c-5.4-5-8.5-11.8-8.7-19.2
		c-0.2-7.4,2.4-14.4,7.6-20c6.1-6.5,15-9.6,23.9-8.5c5.7,0.7,11.1,3.3,15.4,7.2l2.6,2.8l47.2,51.6l0.2,0.2c0.6,0.4,0.9,0.9,1.5,1.3
		c-0.9-0.2-1.8-0.4-2.8-0.6c-6.7-0.9-13.3,0.9-18.9,4.8l-21.8,17.8L26.1,80.2z M68.8,162.9L68.8,162.9c-8,5.5-15,8-20.7,7.2
		c-6.7-0.9-9.6-5.9-9.6-6.3l-0.4-0.2c-2.4-3.5-6.3-12.8,10.5-24.6l20.2-16.5l9.8,8c5.4,5,13.5,11.1,22.6,12.9L68.8,162.9z
		 M120.1,130.9l-1.1,1.7c-0.6,0.6-1.3,1.1-2,1.5l-5.5,3.3c-2.2,0.7-4.6,0.9-7,0.6c-6.7-0.9-14.2-5-21.5-11.8l-9.1-7.4l20.5-16.8
		c4.3-3,9.4-4.3,14.6-3.7c5,0.6,9.2,3,12.4,6.7C126.5,115.3,125.2,125.3,120.1,130.9z"/>
	<path class="st1" d="M46.4,39.3C36,37.6,26.2,44.6,24.3,55.1C23,62.2,26,69.2,31.5,73.4c2.3,1.9,5.3,3.1,8.6,3.7
		c10.4,1.7,20.4-5.3,22.1-15.7c1.1-6.1-0.9-11.8-4.7-16.2C54.5,42.2,50.8,40,46.4,39.3z"/>
</g>
<path id="Path-9" class="st4" d="M35.5,232.9h10"/>
<path id="Path-9-Copy" class="st4" d="M310.5,232.9h10"/>
<path id="Path-9_2_" class="st4" d="M178.5,89.9v10"/>
<path id="Path-9_3_" class="st4" d="M300.8,161.4l-8.7,5"/>
<path id="Path-9_4_" class="st4" d="M249,110.6l-5,8.7"/>
<path id="Path-10" class="st5" d="M22.8,288.6h307.7"/>
<path id="Path-11" class="st5" d="M158.5,237.4l-76-40"/>
<path id="Path-11_1_" class="st6" d="M196.5,239.4l78-42"/>
<ellipse id="Oval-3_1_" class="st1" cx="176.5" cy="247.9" rx="16" ry="16.5"/>
<path id="Stroke-3" class="st7" d="M227,169.7c-15.5-13.6-35.9-21.8-58.3-21.8c-24.6,0-46.8,10-62.7,26"/>
<path class="st8" d="M245.8,147.7l-2.6,39.3c-0.3,3.9-3.6,6.8-7.4,6.5c-0.3,0-0.5-0.1-0.8-0.1l-38.8-7c-3.8-0.7-6.3-4.3-5.6-8.1
	c0.3-1.7,1.2-3.2,2.6-4.3l41.4-32.3c3-2.4,7.4-1.8,9.8,1.2C245.4,144.3,246,146,245.8,147.7"/>
<path class="st5" d="M19.4,183.8c-4.5,14.9-6.9,30.7-6.9,47.1c0,19.8,3.5,38.7,9.9,56.2l309.8,1.2c6.7-17.9,10.3-37.2,10.3-57.4
	c0-90.9-73.9-164.6-165-164.6c-18.1,0-35.5,2.9-51.7,8.3"/>
</svg>
