<?xml version="1.0" encoding="utf-8"?>
<!-- Generator: Adobe Illustrator 16.0.0, SVG Export Plug-In . SVG Version: 6.00 Build 0)  -->
<!DOCTYPE svg PUBLIC "-//W3C//DTD SVG 1.1//EN" "http://www.w3.org/Graphics/SVG/1.1/DTD/svg11.dtd">
<svg version="1.1" id="Layer_1" xmlns="http://www.w3.org/2000/svg" xmlns:xlink="http://www.w3.org/1999/xlink" x="0px" y="0px"
	 width="959.98px" height="540px" viewBox="0 0 959.98 540" enable-background="new 0 0 959.98 540" xml:space="preserve">
<g>
	<path fill="#2288FF" d="M494.934,204.071l-34.712,39.133c-3.485,3.849-9.312,4.208-13.054,0.804
		c-0.318-0.246-0.443-0.513-0.756-0.756l-35.03-38.925c-3.422-3.825-3.113-9.639,0.712-13.058c1.697-1.542,3.862-2.383,6.23-2.397
		l69.739-0.211c5.1-0.077,9.23,4.135,9.309,9.234C497.283,200.178,496.527,202.453,494.934,204.071"/>
	<rect x="556.656" y="252.346" stroke="#FFFFFF" stroke-miterlimit="10" width="35.531" height="98.996"/>
	<rect x="488.656" y="252.346" stroke="#FFFFFF" stroke-miterlimit="10" width="32.531" height="98.996"/>
	<rect x="627.656" y="252.346" stroke="#FFFFFF" stroke-miterlimit="10" width="32.531" height="98.996"/>
	<path stroke="#FFFFFF" stroke-miterlimit="10" d="M711.729,252.346h-16.072v98.996h16.072c6.627,0,12-5.373,12-12v-74.996
		C723.729,257.719,718.355,252.346,711.729,252.346z"/>
	<path fill="#FF6868" d="M248.252,252.346c-6.627,0-12,5.373-12,12v74.996c0,6.627,5.373,12,12,12h204.936v-98.996H248.252z"/>
</g>
<line fill="none" stroke="#2288FF" stroke-width="21" stroke-linecap="round" stroke-linejoin="round" stroke-miterlimit="10" x1="453.188" y1="212.5" x2="453.188" y2="119.5"/>
</svg>
