<?xml version="1.0" encoding="utf-8"?>
<!-- Generator: Adobe Illustrator 22.0.1, SVG Export Plug-In . SVG Version: 6.00 Build 0)  -->
<svg version="1.1" id="Layer_1" xmlns="http://www.w3.org/2000/svg" xmlns:xlink="http://www.w3.org/1999/xlink" x="0px" y="0px"
	 viewBox="0 0 355 355" style="enable-background:new 0 0 355 355;" xml:space="preserve">
<style type="text/css">
	.st0{fill:#FF6868;}
	.st1{fill:#2288FF;}
	.st2{font-family:'Arial-BoldMT';}
	.st3{font-size:0.2026px;}
	.st4{fill:#2288FF;stroke:#2288FF;stroke-width:5;stroke-miterlimit:10;}
</style>
<path class="st0" d="M43.1,187.5c-9.8,9.8-9.8,26.1,0,35.9l61.4,61.4c10.1,10.1,25.4,9,36.3-0.5L312.3,106c9.6-10,9.4-26.2-0.7-35.9
	c-10-9.6-26.2-9.4-35.8,0.7L122,230.7l-43.1-43.2C69.1,177.8,52.9,177.8,43.1,187.5z"/>
<path class="st1" d="M51.8,6.8h251.4c24.8,0,45,20.3,45,45v251.4c0,24.8-20.2,45-45,45H51.8c-24.8,0-45-20.2-45-45V51.8
	C6.8,27.1,27.1,6.8,51.8,6.8z M303.2,15.8H51.8c-19.8,0-36,16.2-36,36v251.4c0,19.8,16.2,36,36,36h251.4c19.8,0,36-16.2,36-36V51.8
	C339.2,32,323,15.8,303.2,15.8z"/>
<text transform="matrix(1 0 0 1 176.7685 177.5492)" class="st0 st2 st3">Created by joni</text>
<text transform="matrix(1 0 0 1 176.4365 177.5487)" class="st0 st2 st3">from the Noun Project</text>
<path class="st4" d="M51.8,6.8h251.4c24.8,0,45,20.3,45,45v251.4c0,24.8-20.2,45-45,45H51.8c-24.8,0-45-20.2-45-45V51.8
	C6.8,27.1,27.1,6.8,51.8,6.8z M303.2,15.8H51.8c-19.8,0-36,16.2-36,36v251.4c0,19.8,16.2,36,36,36h251.4c19.8,0,36-16.2,36-36V51.8
	C339.2,32,323,15.8,303.2,15.8z"/>
</svg>
